SplineFontDB: 3.0
FontName: Cinzel-Bold
FullName: Cinzel-Bold
FamilyName: Cinzel
Weight: Bold
Copyright: Copyright (c) 2012 Natanael Gama (info@ndiscovered.com), with Reserved Font Name 'Cinzel'
Version: 1.001;PS 001.001;hotconv 1.0.56;makeotf.lib2.0.21325
ItalicAngle: 0
UnderlinePosition: -50
UnderlineWidth: 50
Ascent: 800
Descent: 200
sfntRevision: 0x00010041
LayerCount: 2
Layer: 0 1 "Back"  1
Layer: 1 1 "Fore"  0
XUID: [1021 514 2005837425 3422692]
FSType: 0
OS2Version: 3
OS2_WeightWidthSlopeOnly: 0
OS2_UseTypoMetrics: 1
CreationTime: 1337254829
ModificationTime: 1349490218
PfmFamily: 81
TTFWeight: 700
TTFWidth: 5
LineGap: 0
VLineGap: 0
Panose: 0 0 8 0 0 0 0 0 0 0
OS2TypoAscent: 976
OS2TypoAOffset: 0
OS2TypoDescent: -372
OS2TypoDOffset: 0
OS2TypoLinegap: 0
OS2WinAscent: 976
OS2WinAOffset: 0
OS2WinDescent: 372
OS2WinDOffset: 0
HheadAscent: 971
HheadAOffset: 0
HheadDescent: -372
HheadDOffset: 0
OS2SubXSize: 650
OS2SubYSize: 600
OS2SubXOff: 0
OS2SubYOff: 75
OS2SupXSize: 650
OS2SupYSize: 600
OS2SupXOff: 0
OS2SupYOff: 350
OS2StrikeYSize: 50
OS2StrikeYPos: 300
OS2Vendor: 'UKWN'
OS2CodePages: 20000093.00000000
OS2UnicodeRanges: 00000007.00000000.00000000.00000000
Lookup: 258 0 0 "'kern' Horizontal Kerning lookup 0"  {"'kern' Horizontal Kerning lookup 0 per glyph data 0"  "'kern' Horizontal Kerning lookup 0 kerning class 1"  } ['kern' ('DFLT' <'dflt' > 'grek' <'dflt' > 'latn' <'dflt' > ) ]
DEI: 91125
KernClass2: 64+ 45 "'kern' Horizontal Kerning lookup 0 kerning class 1" 
 30 T Tcedilla Tcaron Tbar uni021A
 73 U Ugrave Uacute Ucircumflex Udieresis Umacron Uring Uhungarumlaut Uogonek
 1 V
 4 nine
 37 W Wcircumflex Wgrave Wacute Wdieresis
 1 X
 37 Y Yacute Ycircumflex Ydieresis Ygrave
 49 comma period quotesinglbase quotedblbase ellipsis
 26 Z Zacute Zdotaccent Zcaron
 5 seven
 73 a agrave aacute acircumflex atilde adieresis aring amacron abreve aogonek
 1 b
 35 c ccedilla cacute cdotaccent ccaron
 4 five
 31 hyphen softhyphen endash emdash

StartChar: exclam
Encoding: 33 33 4
Width: 269
GlyphClass: 2
Flags: W
LayerCount: 2
Fore
SplineSet
193 379 m 1,0,-1
 157 206 l 1,1,-1
 111 206 l 1,2,-1
 76 379 l 1,3,-1
 57 702 l 1,4,-1
 211 702 l 1,5,-1
 193 379 l 1,0,-1
184.5 11 m 128,-1,7
 163 -10 163 -10 138.5 -10 c 128,-1,8
 114 -10 114 -10 97 0 c 0,9,10
 61 21 61 21 61 56.5 c 128,-1,11
 61 92 61 92 82 113.5 c 128,-1,12
 103 135 103 135 133 135 c 128,-1,13
 163 135 163 135 184.5 113.5 c 128,-1,14
 206 92 206 92 206 62 c 128,-1,6
 206 32 206 32 184.5 11 c 128,-1,7
EndSplineSet
EndChar

StartChar: quotedbl
Encoding: 34 34 5
Width: 362
GlyphClass: 2
Flags: W
LayerCount: 2
Fore
SplineSet
38 505 m 1,0,1
 66 590 66 590 66 629.5 c 128,-1,2
 66 669 66 669 62 700 c 1,3,-1
 169 714 l 1,4,5
 169 710 169 710 169 698.5 c 128,-1,6
 169 687 169 687 164.5 660.5 c 128,-1,7
 160 634 160 634 148 601.5 c 128,-1,8
 136 569 136 569 110.5 540.5 c 128,-1,9
 85 512 85 512 52 500 c 1,10,-1
 38 505 l 1,0,1
194 505 m 1,11,12
 222 590 222 590 222 629.5 c 128,-1,13
 222 669 222 669 218 700 c 1,14,-1
 325 714 l 1,15,16
 326 710 326 710 326 698.5 c 128,-1,17
 326 687 326 687 321 660.5 c 128,-1,18
 316 634 316 634 304 601.5 c 128,-1,19
 292 569 292 569 267 540.5 c 128,-1,20
 242 512 242 512 208 500 c 1,21,-1
 194 505 l 1,11,12
EndSplineSet
EndChar

StartChar: numbersign
Encoding: 35 35 6
Width: 574
GlyphClass: 2
Flags: W
LayerCount: 2
Fore
SplineSet
534 449 m 1,0,-1
 418 449 l 1,1,-1
 386 265 l 1,2,-1
 490 265 l 1,3,-1
 490 217 l 1,4,-1
 377 217 l 1,5,-1
 339 0 l 1,6,-1
 289 0 l 1,7,-1
 327 217 l 1,8,-1
 177 217 l 1,9,-1
 139 0 l 1,10,-1
 89 0 l 1,11,-1
 127 217 l 1,12,-1
 20 217 l 1,13,-1
 20 265 l 1,14,-1
 136 265 l 1,15,-1
 168 449 l 1,16,-1
 64 449 l 1,17,-1
 64 497 l 1,18,-1
 177 497 l 1,19,-1
 212 700 l 1,20,-1
 263 700 l 1,21,-1
 227 497 l 1,22,-1
 377 497 l 1,23,-1
 412 700 l 1,24,-1
 463 700 l 1,25,-1
 427 497 l 1,26,-1
 534 497 l 1,27,-1
 534 449 l 1,0,-1
336 265 m 1,28,-1
 368 449 l 1,29,-1
 218 449 l 1,30,-1
 186 265 l 1,31,-1
 336 265 l 1,28,-1
EndSplineSet
EndChar

StartChar: dollar
Encoding: 36 36 7
Width: 557
GlyphClass: 2
Flags: W
LayerCount: 2
Fore
SplineSet
43 93 m 0,0,1
 43 165 43 165 74 216 c 1,2,-1
 82 216 l 1,3,4
 82 209 82 209 82 201 c 0,5,6
 82 137 82 137 123.5 87.5 c 128,-1,7
 165 38 165 38 243 30 c 1,8,-1
 262 288 l 1,9,-1
 155 359 l 1,10,11
 102 389 102 389 80 431.5 c 128,-1,12
 58 474 58 474 58 518 c 0,13,14
 58 529 58 529 59 539 c 0,15,16
 66 619 66 619 121.5 666 c 128,-1,17
 177 713 177 713 263 713 c 0,18,19
 264 713 264 713 265 713 c 2,20,-1
 295 713 l 1,21,-1
 300 788 l 1,22,-1
 342 787 l 1,23,-1
 336 711 l 1,24,25
 373 708 373 708 406 704 c 1,26,-1
 469 704 l 1,27,-1
 468 691 l 1,28,-1
 456 557 l 1,29,-1
 446 557 l 1,30,31
 446 619 446 619 393 650 c 0,32,33
 368 665 368 665 333 670 c 1,34,-1
 315 437 l 1,35,-1
 435 359 l 1,36,37
 525 307 525 307 525 207 c 0,38,39
 525 136 525 136 493 88 c 0,40,41
 430 -8 430 -8 280 -14 c 1,42,-1
 274 -102 l 1,43,-1
 233 -99 l 1,44,-1
 239 -14 l 1,45,46
 175 -11 175 -11 125 5 c 128,-1,47
 75 21 75 21 50 47 c 1,48,49
 43 66 43 66 43 93 c 0,0,1
292 671 m 1,50,51
 241 668 241 668 207.5 640.5 c 128,-1,52
 174 613 174 613 174 568.5 c 128,-1,53
 174 524 174 524 244 483 c 1,54,-1
 276 462 l 1,55,-1
 292 671 l 1,50,51
302 262 m 1,56,-1
 284 29 l 1,57,58
 342 33 342 33 375.5 64 c 128,-1,59
 409 95 409 95 409 140 c 0,60,61
 409 200 409 200 329 244 c 1,62,-1
 302 262 l 1,56,-1
EndSplineSet
EndChar

StartChar: percent
Encoding: 37 37 8
Width: 740
GlyphClass: 2
Flags: W
LayerCount: 2
Fore
SplineSet
343 648 m 1,0,1
 358 617 358 617 358 587 c 0,2,3
 358 467 358 467 292 408 c 0,4,5
 240 361 240 361 164.5 361 c 128,-1,6
 89 361 89 361 54 409 c 1,7,8
 30 444 30 444 30 498 c 0,9,10
 30 608 30 608 97 668 c 0,11,12
 148 714 148 714 226 714 c 0,13,14
 264 714 264 714 294 702 c 128,-1,15
 324 690 324 690 348 677 c 0,16,17
 377 662 377 662 399 662 c 128,-1,18
 421 662 421 662 440.5 666.5 c 128,-1,19
 460 671 460 671 473.5 677.5 c 128,-1,20
 487 684 487 684 508 695 c 128,-1,21
 529 706 529 706 534 709 c 1,22,-1
 567 695 l 1,23,-1
 194 -16 l 1,24,-1
 157 0 l 1,25,-1
 507 662 l 1,26,27
 458 633 458 633 419 633 c 128,-1,28
 380 633 380 633 343 648 c 1,0,1
132 474 m 0,29,30
 132 393 132 393 173 393 c 0,31,32
 203 393 203 393 225 431.5 c 128,-1,33
 247 470 247 470 254.5 520 c 128,-1,34
 262 570 262 570 262 597 c 0,35,36
 262 682 262 682 220 682 c 0,37,38
 192 682 192 682 170.5 643.5 c 128,-1,39
 149 605 149 605 140.5 553 c 128,-1,40
 132 501 132 501 132 474 c 0,29,30
440 294 m 0,41,42
 491 339 491 339 564.5 339 c 128,-1,43
 638 339 638 339 673 292 c 0,44,45
 700 255 700 255 700 197 c 0,46,47
 700 91 700 91 636 33 c 0,48,49
 584 -14 584 -14 507.5 -14 c 128,-1,50
 431 -14 431 -14 397 35 c 1,51,52
 372 69 372 69 372 123 c 0,53,54
 372 233 372 233 440 294 c 0,41,42
471 99 m 0,55,56
 471 18 471 18 511 18 c 0,57,58
 541 18 541 18 563.5 56 c 128,-1,59
 586 94 586 94 593 145 c 128,-1,60
 600 196 600 196 600 222 c 0,61,62
 600 307 600 307 559 307 c 0,63,64
 531 307 531 307 509 268.5 c 128,-1,65
 487 230 487 230 479 178 c 128,-1,66
 471 126 471 126 471 99 c 0,55,56
EndSplineSet
EndChar

StartChar: ampersand
Encoding: 38 38 9
Width: 807
GlyphClass: 2
Flags: W
LayerCount: 2
Fore
SplineSet
848 0 m 1,0,1
 733 -9 733 -9 699 -4 c 0,2,3
 619 10 619 10 572 37 c 1,4,5
 494 -10 494 -10 376 -10 c 0,6,7
 205 -10 205 -10 105 61 c 0,8,9
 71 86 71 86 49 126 c 128,-1,10
 27 166 27 166 27 210 c 128,-1,11
 27 254 27 254 40 285.5 c 128,-1,12
 53 317 53 317 76 338 c 0,13,14
 118 378 118 378 174 397 c 1,15,16
 130 466 130 466 130 530 c 128,-1,17
 130 594 130 594 165 636 c 0,18,19
 232 714 232 714 372 714 c 0,20,21
 435 714 435 714 490 695.5 c 128,-1,22
 545 677 545 677 570 643 c 1,23,-1
 534 500 l 1,24,-1
 525 500 l 1,25,26
 524 574 524 574 493 623 c 128,-1,27
 462 672 462 672 405 672 c 128,-1,28
 348 672 348 672 316.5 639 c 128,-1,29
 285 606 285 606 285 553 c 128,-1,30
 285 500 285 500 323.5 450 c 128,-1,31
 362 400 362 400 472.5 303.5 c 128,-1,32
 583 207 583 207 607 187 c 1,33,34
 620 229 620 229 620 271 c 128,-1,35
 620 313 620 313 599.5 356 c 128,-1,36
 579 399 579 399 540 399 c 2,37,38
 540 399 540 399 539 399 c 2,39,-1
 524 399 l 1,40,-1
 524 409 l 1,41,-1
 758 409 l 1,42,-1
 758 399 l 1,43,-1
 744 399 l 1,44,45
 744 399 744 399 743 399 c 0,46,47
 723 399 723 399 716 386 c 128,-1,48
 709 373 709 373 709 347 c 2,49,-1
 709 330 l 2,50,51
 709 216 709 216 666 136 c 1,52,53
 730 81 730 81 771 51 c 128,-1,54
 812 21 812 21 848 11 c 1,55,-1
 848 0 l 1,0,1
413 32 m 0,56,57
 478 32 478 32 527 68 c 1,58,59
 445 132 445 132 349.5 214.5 c 128,-1,60
 254 297 254 297 212 347 c 1,61,62
 185 305 185 305 185 249 c 0,63,64
 185 144 185 144 253.5 88 c 128,-1,65
 322 32 322 32 413 32 c 0,56,57
EndSplineSet
EndChar

StartChar: quotesingle
Encoding: 39 39 10
Width: 200
GlyphClass: 2
Flags: W
LayerCount: 2
Fore
SplineSet
32 505 m 1,0,1
 60 590 60 590 60 629.5 c 128,-1,2
 60 669 60 669 56 700 c 1,3,-1
 163 714 l 1,4,5
 163 710 163 710 163 698.5 c 128,-1,6
 163 687 163 687 158.5 660.5 c 128,-1,7
 154 634 154 634 142 601.5 c 128,-1,8
 130 569 130 569 104.5 540.5 c 128,-1,9
 79 512 79 512 46 500 c 1,10,-1
 32 505 l 1,0,1
EndSplineSet
EndChar

StartChar: parenleft
Encoding: 40 40 11
Width: 423
GlyphClass: 2
Flags: W
LayerCount: 2
Fore
SplineSet
281 70.5 m 128,-1,1
 323 -43 323 -43 392 -91 c 1,2,-1
 386 -100 l 1,3,4
 292 -71 292 -71 224 -5 c 0,5,6
 90 127 90 127 90 336 c 0,7,8
 90 548 90 548 224 660 c 0,9,10
 292 716 292 716 388 732 c 1,11,-1
 394 724 l 1,12,13
 320 689 320 689 279.5 589 c 128,-1,14
 239 489 239 489 239 336.5 c 128,-1,0
 239 184 239 184 281 70.5 c 128,-1,1
EndSplineSet
EndChar

StartChar: parenright
Encoding: 41 41 12
Width: 423
GlyphClass: 2
Flags: W
LayerCount: 2
Fore
SplineSet
144 589 m 128,-1,1
 103 689 103 689 30 724 c 1,2,-1
 36 732 l 1,3,4
 179 709 179 709 256.5 600 c 128,-1,5
 334 491 334 491 334 336 c 0,6,7
 334 127 334 127 199 -5 c 0,8,9
 131 -71 131 -71 38 -100 c 1,10,-1
 32 -91 l 1,11,12
 99 -44 99 -44 140 64 c 0,13,14
 185 182 185 182 185 335.5 c 128,-1,0
 185 489 185 489 144 589 c 128,-1,1
EndSplineSet
EndChar

StartChar: asterisk
Encoding: 42 42 13
Width: 388
GlyphClass: 2
Flags: W
LayerCount: 2
Fore
SplineSet
202 605 m 1,0,-1
 257 576 l 1,1,-1
 321 512 l 1,2,-1
 292 474 l 1,3,-1
 248 459 l 1,4,-1
 205 538 l 1,5,-1
 195 600 l 1,6,-1
 184 538 l 1,7,-1
 143 458 l 1,8,-1
 98 474 l 1,9,-1
 70 511 l 1,10,-1
 132 576 l 1,11,-1
 188 605 l 1,12,-1
 126 596 l 1,13,-1
 37 611 l 1,14,-1
 37 658 l 1,15,-1
 65 697 l 1,16,-1
 146 657 l 1,17,-1
 191 613 l 1,18,-1
 163 670 l 1,19,-1
 149 759 l 1,20,-1
 194 773 l 1,21,-1
 240 759 l 1,22,-1
 227 670 l 1,23,-1
 199 613 l 1,24,-1
 244 657 l 1,25,-1
 325 698 l 1,26,-1
 353 659 l 1,27,-1
 353 612 l 1,28,-1
 264 596 l 1,29,-1
 202 605 l 1,0,-1
EndSplineSet
EndChar

StartChar: plus
Encoding: 43 43 14
Width: 481
GlyphClass: 2
Flags: W
LayerCount: 2
Fore
SplineSet
442 338 m 1,0,-1
 442 281 l 1,1,-1
 269 281 l 1,2,-1
 269 109 l 1,3,-1
 212 109 l 1,4,-1
 212 281 l 1,5,-1
 40 281 l 1,6,-1
 40 338 l 1,7,-1
 212 338 l 1,8,-1
 212 511 l 1,9,-1
 269 511 l 1,10,-1
 269 338 l 1,11,-1
 442 338 l 1,0,-1
EndSplineSet
EndChar

StartChar: comma
Encoding: 44 44 15
Width: 230
GlyphClass: 2
Flags: W
LayerCount: 2
Fore
SplineSet
42 -102 m 1,0,1
 88 -85 88 -85 88 -41 c 0,2,3
 88 -16 88 -16 66 9.5 c 128,-1,4
 44 35 44 35 44 66 c 128,-1,5
 44 97 44 97 62.5 115.5 c 128,-1,6
 81 134 81 134 106 134 c 0,7,8
 159 134 159 134 179 87 c 1,9,10
 193 59 193 59 193 40 c 0,11,12
 193 -15 193 -15 170 -50 c 0,13,14
 128 -114 128 -114 62 -114 c 0,15,16
 54 -114 54 -114 46 -113 c 1,17,-1
 42 -102 l 1,0,1
EndSplineSet
EndChar

StartChar: hyphen
Encoding: 45 45 16
Width: 380
GlyphClass: 2
Flags: W
LayerCount: 2
Fore
SplineSet
32 292 m 1,0,-1
 40 325 l 1,1,-1
 340 325 l 1,2,-1
 348 292 l 1,3,-1
 340 258 l 1,4,-1
 40 258 l 1,5,-1
 32 292 l 1,0,-1
EndSplineSet
EndChar

StartChar: period
Encoding: 46 46 17
Width: 222
GlyphClass: 2
Flags: W
LayerCount: 2
Fore
SplineSet
111 -10 m 128,-1,1
 81 -10 81 -10 60 11 c 128,-1,2
 39 32 39 32 39 62 c 128,-1,3
 39 92 39 92 60 113.5 c 128,-1,4
 81 135 81 135 111 135 c 128,-1,5
 141 135 141 135 162.5 113.5 c 128,-1,6
 184 92 184 92 184 62 c 128,-1,7
 184 32 184 32 162.5 11 c 128,-1,0
 141 -10 141 -10 111 -10 c 128,-1,1
EndSplineSet
EndChar

StartChar: slash
Encoding: 47 47 18
Width: 426
GlyphClass: 2
Flags: W
LayerCount: 2
Fore
SplineSet
9 11 m 1,0,-1
 369 719 l 1,1,-1
 417 696 l 1,2,-1
 56 -14 l 1,3,-1
 9 11 l 1,0,-1
EndSplineSet
EndChar

StartChar: zero
Encoding: 48 48 19
Width: 653
GlyphClass: 2
Flags: W
LayerCount: 2
Fore
SplineSet
326.5 714 m 128,-1,1
 457 714 457 714 532 615.5 c 128,-1,2
 607 517 607 517 607 350 c 128,-1,3
 607 183 607 183 532 84.5 c 128,-1,4
 457 -14 457 -14 326.5 -14 c 128,-1,5
 196 -14 196 -14 121 84.5 c 128,-1,6
 46 183 46 183 46 350 c 128,-1,7
 46 517 46 517 121 615.5 c 128,-1,0
 196 714 196 714 326.5 714 c 128,-1,1
327 672 m 0,8,9
 244 672 244 672 215 528 c 0,10,11
 201 456 201 456 201 350 c 0,12,13
 201 191 201 191 233 109.5 c 128,-1,14
 265 28 265 28 326.5 28 c 128,-1,15
 388 28 388 28 420 109.5 c 128,-1,16
 452 191 452 191 452 350 c 128,-1,17
 452 509 452 509 420 590.5 c 128,-1,18
 388 672 388 672 327 672 c 0,8,9
EndSplineSet
EndChar

StartChar: one
Encoding: 49 49 20
Width: 392
GlyphClass: 2
Flags: W
LayerCount: 2
Fore
SplineSet
330 10 m 2,0,-1
 351 10 l 1,1,-1
 351 0 l 1,2,-1
 49 0 l 1,3,-1
 49 10 l 1,4,-1
 70 10 l 2,5,6
 93 10 93 10 109.5 26 c 128,-1,7
 126 42 126 42 126 64 c 2,8,-1
 126 579 l 2,9,10
 126 640 126 640 67 640 c 2,11,-1
 42 640 l 1,12,-1
 42 650 l 1,13,14
 197 663 197 663 265 714 c 1,15,-1
 275 714 l 1,16,-1
 275 63 l 2,17,18
 275 41 275 41 291 25.5 c 128,-1,19
 307 10 307 10 330 10 c 2,0,-1
EndSplineSet
EndChar

StartChar: two
Encoding: 50 50 21
Width: 616
GlyphClass: 2
Flags: W
LayerCount: 2
Fore
SplineSet
293 714 m 0,0,1
 352 714 352 714 410.5 690 c 128,-1,2
 469 666 469 666 502.5 620 c 128,-1,3
 536 574 536 574 536 512 c 0,4,5
 536 459 536 459 504 394 c 0,6,7
 487 358 487 358 425 289 c 0,8,9
 387 246 387 246 314.5 189.5 c 128,-1,10
 242 133 242 133 237 129 c 1,11,-1
 443 129 l 2,12,13
 487 129 487 129 516.5 151.5 c 128,-1,14
 546 174 546 174 572 226 c 1,15,-1
 582 226 l 1,16,-1
 523 0 l 1,17,-1
 45 0 l 1,18,-1
 45 10 l 1,19,20
 59 26 59 26 96.5 68 c 128,-1,21
 134 110 134 110 153.5 131.5 c 128,-1,22
 173 153 173 153 207.5 194.5 c 128,-1,23
 242 236 242 236 261 263 c 128,-1,24
 280 290 280 290 305.5 328.5 c 128,-1,25
 331 367 331 367 344 397 c 0,26,27
 376 469 376 469 376 531.5 c 128,-1,28
 376 594 376 594 341.5 633 c 128,-1,29
 307 672 307 672 251 672 c 0,30,31
 178 672 178 672 141 623 c 128,-1,32
 104 574 104 574 105 487 c 1,33,-1
 95 487 l 1,34,-1
 47 641 l 1,35,36
 128 714 128 714 293 714 c 0,0,1
EndSplineSet
EndChar

StartChar: three
Encoding: 51 51 22
Width: 563
GlyphClass: 2
Flags: W
LayerCount: 2
Fore
SplineSet
42 641 m 1,0,1
 120 712 120 712 263 712 c 0,2,3
 364 712 364 712 425 668.5 c 128,-1,4
 486 625 486 625 486 555 c 128,-1,5
 486 485 486 485 444.5 442 c 128,-1,6
 403 399 403 399 349 396 c 1,7,8
 412 384 412 384 459 341 c 0,9,10
 511 293 511 293 512 206 c 0,11,12
 512 147 512 147 484 96 c 0,13,14
 432 2 432 2 303 -39 c 0,15,16
 249 -56 249 -56 188 -56 c 0,17,18
 115 -56 115 -56 47 -32 c 1,19,-1
 49 -22 l 1,20,21
 54 -22 54 -22 59 -22 c 0,22,23
 134 -22 134 -22 201 6 c 128,-1,24
 268 34 268 34 309.5 90 c 128,-1,25
 351 146 351 146 351 217 c 0,26,27
 351 339 351 339 231 374 c 0,28,29
 197 384 197 384 158 384 c 1,30,-1
 160 394 l 1,31,32
 163 394 163 394 165 394 c 0,33,34
 233 394 233 394 282.5 440 c 128,-1,35
 332 486 332 486 332 551 c 0,36,37
 332 612 332 612 298 641 c 128,-1,38
 264 670 264 670 218 670 c 0,39,40
 94 670 94 670 94 514 c 0,41,42
 94 507 94 507 94 499 c 1,43,-1
 84 499 l 1,44,-1
 42 641 l 1,0,1
EndSplineSet
EndChar

StartChar: four
Encoding: 52 52 23
Width: 619
GlyphClass: 2
Flags: W
LayerCount: 2
Fore
SplineSet
529 10 m 2,0,-1
 539 10 l 1,1,-1
 540 0 l 1,2,-1
 257 0 l 1,3,-1
 257 10 l 1,4,-1
 268 10 l 2,5,6
 290 10 290 10 306 25 c 128,-1,7
 322 40 322 40 323 62 c 1,8,-1
 323 212 l 1,9,-1
 7 212 l 1,10,-1
 7 222 l 1,11,-1
 464 714 l 1,12,-1
 473 714 l 1,13,-1
 473 298 l 1,14,-1
 517 298 l 2,15,16
 543 298 543 298 555.5 305.5 c 128,-1,17
 568 313 568 313 578 330 c 1,18,-1
 588 330 l 1,19,-1
 560 212 l 1,20,-1
 473 212 l 1,21,-1
 473 63 l 1,22,23
 474 41 474 41 490 25.5 c 128,-1,24
 506 10 506 10 529 10 c 2,0,-1
323 298 m 1,25,-1
 323 495 l 1,26,-1
 139 298 l 1,27,-1
 323 298 l 1,25,-1
EndSplineSet
EndChar

StartChar: five
Encoding: 53 53 24
Width: 554
GlyphClass: 2
Flags: W
LayerCount: 2
Fore
SplineSet
252 450 m 0,0,1
 338 450 338 450 399 411 c 1,2,3
 495 352 495 352 495 231 c 0,4,5
 495 164 495 164 467.5 112.5 c 128,-1,6
 440 61 440 61 400 29 c 0,7,8
 294 -54 294 -54 151 -54 c 0,9,10
 77 -54 77 -54 26 -31 c 1,11,-1
 28 -21 l 1,12,13
 31 -21 31 -21 45 -21 c 128,-1,14
 59 -21 59 -21 93 -14 c 128,-1,15
 127 -7 127 -7 168.5 10.5 c 128,-1,16
 210 28 210 28 245 53.5 c 128,-1,17
 280 79 280 79 305 118 c 0,18,19
 333 163 333 163 333 215 c 128,-1,20
 333 267 333 267 298 303 c 0,21,22
 260 343 260 343 195.5 343 c 128,-1,23
 131 343 131 343 62 319 c 1,24,-1
 53 324 l 1,25,-1
 134 664 l 1,26,-1
 392 685 l 1,27,28
 446 685 446 685 472 735 c 1,29,-1
 482 735 l 1,30,-1
 443 568 l 1,31,-1
 164 547 l 1,32,-1
 135 435 l 1,33,34
 198 450 198 450 252 450 c 0,0,1
EndSplineSet
EndChar

StartChar: six
Encoding: 54 54 25
Width: 629
GlyphClass: 2
Flags: W
LayerCount: 2
Fore
SplineSet
327 374 m 0,0,1
 287 374 287 374 258 346 c 1,2,-1
 251 354 l 1,3,4
 279 400 279 400 334 421 c 0,5,6
 366 433 366 433 395 433 c 128,-1,7
 424 433 424 433 448.5 427.5 c 128,-1,8
 473 422 473 422 498 406 c 0,9,10
 584 350 584 350 584 223 c 0,11,12
 584 123 584 123 517 55 c 0,13,14
 447 -15 447 -15 319.5 -15 c 128,-1,15
 192 -15 192 -15 121 63.5 c 128,-1,16
 50 142 50 142 50 295 c 0,17,18
 50 494 50 494 160 617 c 0,19,20
 214 677 214 677 294 706 c 128,-1,21
 374 735 374 735 466 735 c 0,22,23
 481 735 481 735 497 734 c 1,24,-1
 501 727 l 1,25,26
 361 683 361 683 293 601 c 0,27,28
 235 530 235 530 221 407 c 0,29,30
 216 356 216 356 216 285 c 0,31,32
 216 157 216 157 239 95 c 128,-1,33
 262 33 262 33 323 33 c 0,34,35
 362 33 362 33 387 59 c 0,36,37
 430 104 430 104 430 208 c 0,38,39
 430 361 430 361 347 372 c 0,40,41
 337 374 337 374 327 374 c 0,0,1
EndSplineSet
EndChar

StartChar: seven
Encoding: 55 55 26
Width: 544
GlyphClass: 2
Flags: W
LayerCount: 2
Fore
SplineSet
102 572 m 2,0,1
 73 572 73 572 55.5 557.5 c 128,-1,2
 38 543 38 543 27 512 c 1,3,-1
 17 512 l 1,4,-1
 45 698 l 1,5,-1
 523 698 l 1,6,-1
 404 406 l 2,7,8
 377 342 377 342 332 207 c 128,-1,9
 287 72 287 72 267 0 c 1,10,-1
 137 0 l 1,11,12
 182 85 182 85 247 215.5 c 128,-1,13
 312 346 312 346 341 414 c 2,14,-1
 407 572 l 1,15,-1
 102 572 l 2,0,1
EndSplineSet
EndChar

StartChar: eight
Encoding: 56 56 27
Width: 603
GlyphClass: 2
Flags: W
LayerCount: 2
Fore
SplineSet
116 27 m 0,0,1
 80 48 80 48 59.5 83.5 c 128,-1,2
 39 119 39 119 39 165 c 0,3,4
 39 284 39 284 183 338 c 1,5,6
 79 414 79 414 79 521 c 0,7,8
 79 608 79 608 140 661 c 0,9,10
 202 714 202 714 297.5 714 c 128,-1,11
 393 714 393 714 456.5 667.5 c 128,-1,12
 520 621 520 621 520 545 c 0,13,14
 520 508 520 508 502 477 c 0,15,16
 469 419 469 419 389 397 c 1,17,18
 461 360 461 360 478.5 346 c 128,-1,19
 496 332 496 332 510.5 319 c 128,-1,20
 525 306 525 306 533 293 c 128,-1,21
 541 280 541 280 549 264 c 0,22,23
 564 234 564 234 564 190 c 0,24,25
 564 94 564 94 489.5 40 c 128,-1,26
 415 -14 415 -14 301 -14 c 128,-1,27
 187 -14 187 -14 116 27 c 0,0,1
231.5 643 m 128,-1,29
 208 615 208 615 208 571 c 256,30,31
 208 527 208 527 239 494 c 0,32,33
 269 461 269 461 346 419 c 1,34,35
 390 468 390 468 390 551 c 0,36,37
 390 625 390 625 347 655 c 0,38,39
 325 671 325 671 290 671 c 128,-1,28
 255 671 255 671 231.5 643 c 128,-1,29
388.5 58.5 m 128,-1,41
 423 89 423 89 423 136 c 128,-1,42
 423 183 423 183 388.5 213.5 c 128,-1,43
 354 244 354 244 297 273.5 c 128,-1,44
 240 303 240 303 219 315 c 1,45,46
 171 264 171 264 171 188 c 128,-1,47
 171 112 171 112 203 71 c 1,48,49
 239 28 239 28 296.5 28 c 128,-1,40
 354 28 354 28 388.5 58.5 c 128,-1,41
EndSplineSet
EndChar

StartChar: nine
Encoding: 57 57 28
Width: 629
GlyphClass: 2
Flags: W
LayerCount: 2
Fore
SplineSet
302 322 m 0,0,1
 343 322 343 322 372 351 c 1,2,-1
 379 342 l 1,3,4
 361 312 361 312 329 292 c 0,5,6
 283 263 283 263 231 263 c 0,7,8
 167 263 167 263 115 303 c 0,9,10
 84 326 84 326 65 369.5 c 128,-1,11
 46 413 46 413 46 469 c 0,12,13
 46 578 46 578 114 644 c 0,14,15
 184 711 184 711 312 711 c 0,16,17
 484 711 484 711 547 574 c 0,18,19
 580 503 580 503 580 402.5 c 128,-1,20
 580 302 580 302 552 221 c 0,21,22
 492 46 492 46 330 -13 c 0,23,24
 257 -39 257 -39 168 -39 c 0,25,26
 151 -39 151 -39 133 -38 c 1,27,-1
 129 -31 l 1,28,29
 268 11 268 11 336 94 c 0,30,31
 394 165 394 165 408 287 c 0,32,33
 414 339 414 339 414 408 c 0,34,35
 414 540 414 540 391 601.5 c 128,-1,36
 368 663 368 663 307 663 c 0,37,38
 268 663 268 663 243 637 c 0,39,40
 200 593 200 593 200 489 c 0,41,42
 200 334 200 334 284 324 c 0,43,44
 293 322 293 322 302 322 c 0,0,1
EndSplineSet
EndChar

StartChar: colon
Encoding: 58 58 29
Width: 218
GlyphClass: 2
Flags: W
LayerCount: 2
Fore
SplineSet
111 372 m 128,-1,1
 81 372 81 372 60 393.5 c 128,-1,2
 39 415 39 415 39 445 c 128,-1,3
 39 475 39 475 60 496 c 128,-1,4
 81 517 81 517 111 517 c 128,-1,5
 141 517 141 517 162.5 496 c 128,-1,6
 184 475 184 475 184 445 c 128,-1,7
 184 415 184 415 162.5 393.5 c 128,-1,0
 141 372 141 372 111 372 c 128,-1,1
111 -10 m 128,-1,9
 81 -10 81 -10 60 11 c 128,-1,10
 39 32 39 32 39 62 c 128,-1,11
 39 92 39 92 60 113.5 c 128,-1,12
 81 135 81 135 111 135 c 128,-1,13
 141 135 141 135 162.5 113.5 c 128,-1,14
 184 92 184 92 184 62 c 128,-1,15
 184 32 184 32 162.5 11 c 128,-1,8
 141 -10 141 -10 111 -10 c 128,-1,9
EndSplineSet
EndChar

StartChar: semicolon
Encoding: 59 59 30
Width: 393
GlyphClass: 2
Flags: W
LayerCount: 2
Fore
SplineSet
111 401 m 128,-1,1
 81 401 81 401 60 422.5 c 128,-1,2
 39 444 39 444 39 473.5 c 128,-1,3
 39 503 39 503 60 524.5 c 128,-1,4
 81 546 81 546 111 546 c 128,-1,5
 141 546 141 546 162.5 524.5 c 128,-1,6
 184 503 184 503 184 473.5 c 128,-1,7
 184 444 184 444 162.5 422.5 c 128,-1,0
 141 401 141 401 111 401 c 128,-1,1
42 -102 m 1,8,9
 88 -85 88 -85 88 -41 c 0,10,11
 88 -16 88 -16 66 9.5 c 128,-1,12
 44 35 44 35 44 66 c 128,-1,13
 44 97 44 97 62.5 115.5 c 128,-1,14
 81 134 81 134 106 134 c 0,15,16
 159 134 159 134 179 87 c 1,17,18
 193 59 193 59 193 40 c 0,19,20
 193 -15 193 -15 170 -50 c 0,21,22
 128 -114 128 -114 62 -114 c 0,23,24
 54 -114 54 -114 46 -113 c 1,25,-1
 42 -102 l 1,8,9
EndSplineSet
EndChar

StartChar: less
Encoding: 60 60 31
Width: 493
GlyphClass: 2
Flags: W
LayerCount: 2
Fore
SplineSet
442 525 m 1,0,-1
 442 463 l 1,1,-1
 120 310 l 1,2,-1
 442 156 l 1,3,-1
 442 94 l 1,4,-1
 40 283 l 1,5,-1
 40 336 l 1,6,-1
 442 525 l 1,0,-1
EndSplineSet
EndChar

StartChar: equal
Encoding: 61 61 32
Width: 481
GlyphClass: 2
Flags: W
LayerCount: 2
Fore
SplineSet
40 358 m 1,0,-1
 40 415 l 1,1,-1
 442 415 l 1,2,-1
 442 358 l 1,3,-1
 40 358 l 1,0,-1
40 183 m 1,4,-1
 40 240 l 1,5,-1
 442 240 l 1,6,-1
 442 183 l 1,7,-1
 40 183 l 1,4,-1
EndSplineSet
EndChar

StartChar: greater
Encoding: 62 62 33
Width: 481
GlyphClass: 2
Flags: W
LayerCount: 2
Fore
SplineSet
40 525 m 1,0,-1
 442 337 l 1,1,-1
 442 283 l 1,2,-1
 40 94 l 1,3,-1
 40 156 l 1,4,-1
 362 310 l 1,5,-1
 40 463 l 1,6,-1
 40 525 l 1,0,-1
EndSplineSet
EndChar

StartChar: question
Encoding: 63 63 34
Width: 461
GlyphClass: 2
Flags: W
LayerCount: 2
Fore
SplineSet
200 714 m 0,0,1
 307 714 307 714 365.5 668 c 128,-1,2
 424 622 424 622 424 540 c 0,3,4
 424 504 424 504 408 471 c 128,-1,5
 392 438 392 438 373 418 c 128,-1,6
 354 398 354 398 319 364.5 c 128,-1,7
 284 331 284 331 267.5 312.5 c 128,-1,8
 251 294 251 294 244.5 286 c 128,-1,9
 238 278 238 278 231 263 c 0,10,11
 218 237 218 237 238 203 c 1,12,-1
 230 197 l 1,13,14
 152 232 152 232 152 301 c 0,15,16
 152 348 152 348 194 395 c 0,17,18
 210 413 210 413 226 433 c 0,19,20
 264 479 264 479 264 542 c 128,-1,21
 264 605 264 605 237 638.5 c 128,-1,22
 210 672 210 672 168.5 672 c 128,-1,23
 127 672 127 672 102 655 c 0,24,25
 51 620 51 620 52 518 c 1,26,-1
 42 518 l 1,27,-1
 8 625 l 1,28,29
 31 666 31 666 81.5 690 c 128,-1,30
 132 714 132 714 200 714 c 0,0,1
259 11 m 128,-1,32
 238 -10 238 -10 208 -10 c 128,-1,33
 178 -10 178 -10 156.5 11 c 128,-1,34
 135 32 135 32 135 57 c 128,-1,35
 135 82 135 82 145 99 c 0,36,37
 166 135 166 135 208 135 c 0,38,39
 238 135 238 135 259 113.5 c 128,-1,40
 280 92 280 92 280 62 c 128,-1,31
 280 32 280 32 259 11 c 128,-1,32
EndSplineSet
EndChar

StartChar: at
Encoding: 64 64 35
Width: 989
GlyphClass: 2
Flags: W
LayerCount: 2
Fore
SplineSet
90 115 m 0,0,1
 36 168 36 168 36 260 c 0,2,3
 36 321 36 321 64 395 c 1,4,5
 128 548 128 548 284 630 c 1,6,7
 403 694 403 694 540 694 c 0,8,9
 766 694 766 694 874 562 c 0,10,11
 951 469 951 469 951 340 c 256,12,13
 951 211 951 211 892.5 108 c 128,-1,14
 834 5 834 5 737 -56 c 1,15,16
 630 -125 630 -125 493 -125 c 128,-1,17
 356 -125 356 -125 203 -63 c 1,18,-1
 199 -53 l 1,19,20
 309 -98 309 -98 406 -98 c 0,21,22
 534 -98 534 -98 634 -35 c 0,23,24
 718 18 718 18 770 110 c 0,25,26
 833 222 833 222 833 360 c 0,27,28
 833 466 833 466 787 539 c 0,29,30
 714 654 714 654 554 654 c 0,31,32
 416 654 416 654 303 555 c 0,33,34
 230 491 230 491 184 390 c 0,35,36
 137 289 137 289 137 209 c 0,37,38
 137 178 137 178 145 155 c 0,39,40
 160 112 160 112 202 112 c 0,41,42
 243 112 243 112 284 156 c 0,43,44
 319 193 319 193 349.5 236 c 128,-1,45
 380 279 380 279 389 291 c 2,46,-1
 516 464 l 1,47,48
 563 521 563 521 571 541 c 1,49,-1
 578 541 l 1,50,-1
 645 137 l 2,51,52
 653 90 653 90 685 90 c 2,53,-1
 690 90 l 1,54,-1
 689 83 l 1,55,-1
 482 83 l 1,56,-1
 483 90 l 1,57,-1
 490 90 l 2,58,59
 504 90 504 90 518 102 c 128,-1,60
 532 114 532 114 532 133 c 1,61,-1
 524 207 l 1,62,-1
 377 207 l 1,63,64
 324 136 324 136 285 105 c 0,65,66
 244 73 244 73 189 73 c 128,-1,67
 134 73 134 73 90 115 c 0,0,1
504 386 m 1,68,-1
 399 237 l 1,69,-1
 521 237 l 1,70,-1
 504 386 l 1,68,-1
EndSplineSet
EndChar

StartChar: A
Encoding: 65 65 36
Width: 716
GlyphClass: 2
Flags: W
LayerCount: 2
Fore
SplineSet
737 10 m 2,0,-1
 746 10 l 1,1,-1
 746 0 l 1,2,-1
 427 0 l 1,3,-1
 427 10 l 1,4,-1
 436 10 l 2,5,6
 458 10 458 10 468.5 23.5 c 128,-1,7
 479 37 479 37 479 49 c 128,-1,8
 479 61 479 61 474 73 c 2,9,-1
 425 196 l 1,10,-1
 191 196 l 1,11,-1
 139 73 l 2,12,13
 134 60 134 60 134 48.5 c 128,-1,14
 134 37 134 37 145 23.5 c 128,-1,15
 156 10 156 10 178 10 c 2,16,-1
 186 10 l 1,17,-1
 186 0 l 1,18,-1
 -28 0 l 1,19,-1
 -28 10 l 1,20,-1
 -19 10 l 2,21,22
 4 10 4 10 27 24 c 128,-1,23
 50 38 50 38 65 66 c 1,24,-1
 296 589 l 1,25,26
 343 688 343 688 346 720 c 1,27,-1
 355 720 l 1,28,-1
 652 68 l 1,29,30
 667 39 667 39 690 24.5 c 128,-1,31
 713 10 713 10 737 10 c 2,0,-1
208 238 m 1,32,-1
 408 238 l 1,33,-1
 311 484 l 1,34,-1
 208 238 l 1,32,-1
EndSplineSet
EndChar

StartChar: B
Encoding: 66 66 37
Width: 674
GlyphClass: 2
Flags: W
LayerCount: 2
Fore
SplineSet
358 0 m 2,0,-1
 42 0 l 1,1,-1
 42 10 l 1,2,-1
 55 10 l 2,3,4
 91 10 91 10 110 41 c 0,5,6
 118 55 118 55 119 72 c 1,7,-1
 119 628 l 1,8,9
 118 654 118 654 99.5 672 c 128,-1,10
 81 690 81 690 55 690 c 2,11,-1
 42 690 l 1,12,-1
 42 700 l 1,13,-1
 332 700 l 2,14,15
 448 700 448 700 516.5 658 c 128,-1,16
 585 616 585 616 586 529 c 1,17,18
 585 485 585 485 567 452 c 0,19,20
 534 390 534 390 463 381 c 1,21,22
 540 374 540 374 590 323.5 c 128,-1,23
 640 273 640 273 640 195 c 0,24,25
 640 101 640 101 564.5 50.5 c 128,-1,26
 489 0 489 0 358 0 c 2,0,-1
426 516 m 1,27,28
 425 657 425 657 298 657 c 2,29,-1
 269 657 l 1,30,-1
 269 46 l 1,31,-1
 315 46 l 2,32,33
 316 46 316 46 317 46 c 0,34,35
 386 46 386 46 427 86 c 128,-1,36
 468 126 468 126 468 208 c 128,-1,37
 468 290 468 290 422 330 c 128,-1,38
 376 370 376 370 303 370 c 1,39,40
 303 370 303 370 303 370 c 1,41,-1
 303 379 l 1,42,43
 303 379 303 379 303 379 c 1,44,45
 355 379 355 379 390 412.5 c 128,-1,46
 425 446 425 446 426 516 c 1,27,28
EndSplineSet
EndChar

StartChar: C
Encoding: 67 67 38
Width: 780
GlyphClass: 2
Flags: W
LayerCount: 2
Fore
SplineSet
155 84 m 128,-1,1
 45 181 45 181 45 350 c 128,-1,2
 45 519 45 519 154 616.5 c 128,-1,3
 263 714 263 714 453 714 c 0,4,5
 598 714 598 714 702 660 c 1,6,-1
 704 488 l 1,7,-1
 696 488 l 1,8,9
 645 672 645 672 463 672 c 0,10,11
 345 672 345 672 276.5 586.5 c 128,-1,12
 208 501 208 501 208 353 c 128,-1,13
 208 205 208 205 273.5 118 c 128,-1,14
 339 31 339 31 451 28 c 1,15,16
 567 28 567 28 628 86 c 0,17,18
 690 146 690 146 714 292 c 1,19,-1
 722 292 l 1,20,-1
 732 120 l 1,21,22
 651 -14 651 -14 458 -13.5 c 128,-1,0
 265 -13 265 -13 155 84 c 128,-1,1
EndSplineSet
EndChar

StartChar: D
Encoding: 68 68 39
Width: 828
GlyphClass: 2
Flags: W
LayerCount: 2
Fore
SplineSet
685 606 m 128,-1,1
 788 512 788 512 788 350 c 128,-1,2
 788 188 788 188 685 94 c 128,-1,3
 582 0 582 0 405 0 c 2,4,-1
 42 0 l 1,5,-1
 42 10 l 1,6,-1
 55 10 l 2,7,8
 81 10 81 10 99.5 28.5 c 128,-1,9
 118 47 118 47 119 73 c 1,10,-1
 119 633 l 2,11,12
 119 657 119 657 99.5 673.5 c 128,-1,13
 80 690 80 690 55 690 c 2,14,-1
 42 690 l 1,15,-1
 42 700 l 1,16,-1
 405 700 l 2,17,0
 582 700 582 700 685 606 c 128,-1,1
392 43 m 2,18,19
 464 43 464 43 516.5 80 c 128,-1,20
 569 117 569 117 597 186.5 c 128,-1,21
 625 256 625 256 625 338 c 128,-1,22
 625 420 625 420 608.5 477.5 c 128,-1,23
 592 535 592 535 562 575 c 0,24,25
 500 658 500 658 392 658 c 2,26,-1
 269 658 l 1,27,-1
 269 43 l 1,28,-1
 392 43 l 2,18,19
EndSplineSet
EndChar

StartChar: E
Encoding: 69 69 40
Width: 631
GlyphClass: 2
Flags: W
LayerCount: 2
Fore
SplineSet
55 10 m 2,0,1
 81 10 81 10 99.5 28.5 c 128,-1,2
 118 47 118 47 119 73 c 1,3,-1
 119 630 l 1,4,5
 117 656 117 656 104 668 c 0,6,7
 80 690 80 690 55 690 c 2,8,-1
 42 690 l 1,9,-1
 42 700 l 1,10,-1
 425 700 l 2,11,12
 474 700 474 700 506 707.5 c 128,-1,13
 538 715 538 715 545 718 c 1,14,-1
 545 543 l 1,15,-1
 535 544 l 1,16,-1
 535 555 l 2,17,18
 535 617 535 617 489 643 c 0,19,20
 467 656 467 656 437 657 c 1,21,-1
 269 657 l 1,22,-1
 269 366 l 1,23,-1
 401 366 l 1,24,25
 438 367 438 367 462 391.5 c 128,-1,26
 486 416 486 416 486 452 c 2,27,-1
 486 461 l 1,28,-1
 496 461 l 1,29,-1
 496 230 l 1,30,-1
 486 230 l 1,31,-1
 486 238 l 2,32,33
 486 275 486 275 462.5 299 c 128,-1,34
 439 323 439 323 403 324 c 1,35,-1
 269 324 l 1,36,-1
 269 43 l 1,37,-1
 400 43 l 2,38,39
 473 43 473 43 522.5 85 c 128,-1,40
 572 127 572 127 596 204 c 1,41,-1
 606 204 l 1,42,-1
 560 0 l 1,43,-1
 42 0 l 1,44,-1
 42 10 l 1,45,-1
 55 10 l 2,0,1
EndSplineSet
EndChar

StartChar: F
Encoding: 70 70 41
Width: 595
GlyphClass: 2
Flags: W
LayerCount: 2
Fore
SplineSet
269 657 m 1,0,-1
 269 366 l 1,1,-1
 401 366 l 1,2,3
 438 367 438 367 462 391 c 128,-1,4
 486 415 486 415 486 452 c 2,5,-1
 486 461 l 1,6,-1
 496 461 l 1,7,-1
 496 230 l 1,8,-1
 486 230 l 1,9,-1
 486 238 l 2,10,11
 486 275 486 275 462.5 299 c 128,-1,12
 439 323 439 323 403 324 c 1,13,-1
 269 324 l 1,14,-1
 269 73 l 2,15,16
 269 47 269 47 288 28.5 c 128,-1,17
 307 10 307 10 333 10 c 2,18,-1
 345 10 l 1,19,-1
 346 0 l 1,20,-1
 42 0 l 1,21,-1
 42 10 l 1,22,-1
 55 10 l 2,23,24
 81 10 81 10 99.5 28.5 c 128,-1,25
 118 47 118 47 119 73 c 1,26,-1
 119 630 l 2,27,28
 119 665 119 665 86 682 c 0,29,30
 72 690 72 690 55 690 c 2,31,-1
 42 690 l 1,32,-1
 42 700 l 1,33,-1
 425 700 l 2,34,35
 456 700 456 700 493 706 c 128,-1,36
 530 712 530 712 545 718 c 1,37,-1
 545 549 l 1,38,-1
 535 549 l 1,39,-1
 535 559 l 2,40,41
 535 603 535 603 509.5 629.5 c 128,-1,42
 484 656 484 656 440 657 c 1,43,-1
 269 657 l 1,0,-1
EndSplineSet
EndChar

StartChar: G
Encoding: 71 71 42
Width: 836
GlyphClass: 2
Flags: W
LayerCount: 2
Fore
SplineSet
423 -14 m 0,0,1
 252 -14 252 -14 148.5 84.5 c 128,-1,2
 45 183 45 183 45 350.5 c 128,-1,3
 45 518 45 518 148.5 616 c 128,-1,4
 252 714 252 714 429 714 c 0,5,6
 509 714 509 714 584 698.5 c 128,-1,7
 659 683 659 683 705 660 c 1,8,-1
 707 488 l 1,9,-1
 698 488 l 1,10,11
 672 585 672 585 609 628.5 c 128,-1,12
 546 672 546 672 459 672 c 0,13,14
 338 672 338 672 273 585.5 c 128,-1,15
 208 499 208 499 208 348.5 c 128,-1,16
 208 198 208 198 267.5 113 c 128,-1,17
 327 28 327 28 436 28 c 0,18,19
 515 28 515 28 568 73 c 0,20,21
 594 96 594 96 606 127 c 1,22,-1
 606 280 l 2,23,24
 606 302 606 302 592.5 313.5 c 128,-1,25
 579 325 579 325 554 325 c 2,26,-1
 538 325 l 1,27,-1
 538 335 l 1,28,-1
 819 335 l 1,29,-1
 819 325 l 1,30,-1
 804 325 l 2,31,32
 780 325 780 325 767 313.5 c 128,-1,33
 754 302 754 302 754 280 c 2,34,-1
 754 115 l 1,35,36
 715 64 715 64 625 25 c 128,-1,37
 535 -14 535 -14 423 -14 c 0,0,1
EndSplineSet
EndChar

StartChar: H
Encoding: 72 72 43
Width: 861
GlyphClass: 2
Flags: W
LayerCount: 2
Fore
SplineSet
529 10 m 2,0,1
 555 10 555 10 569 23 c 0,2,3
 592 46 592 46 593 72 c 1,4,-1
 593 327 l 1,5,-1
 269 327 l 1,6,-1
 269 73 l 2,7,8
 269 47 269 47 288 28.5 c 128,-1,9
 307 10 307 10 333 10 c 2,10,-1
 345 10 l 1,11,-1
 346 0 l 1,12,-1
 42 0 l 1,13,-1
 42 10 l 1,14,-1
 55 10 l 2,15,16
 81 10 81 10 99.5 28.5 c 128,-1,17
 118 47 118 47 119 73 c 1,18,-1
 119 627 l 1,19,20
 118 653 118 653 99.5 671.5 c 128,-1,21
 81 690 81 690 55 690 c 2,22,-1
 42 690 l 1,23,-1
 42 700 l 1,24,-1
 346 700 l 1,25,-1
 345 690 l 1,26,-1
 333 690 l 2,27,28
 307 690 307 690 288 671.5 c 128,-1,29
 269 653 269 653 269 627 c 2,30,-1
 269 370 l 1,31,-1
 593 370 l 1,32,-1
 593 627 l 1,33,34
 592 653 592 653 573.5 671.5 c 128,-1,35
 555 690 555 690 529 690 c 2,36,-1
 516 690 l 1,37,-1
 516 700 l 1,38,-1
 820 700 l 1,39,-1
 820 690 l 1,40,-1
 807 690 l 2,41,42
 781 690 781 690 762 671.5 c 128,-1,43
 743 653 743 653 743 627 c 2,44,-1
 743 73 l 2,45,46
 743 47 743 47 762 28.5 c 128,-1,47
 781 10 781 10 807 10 c 2,48,-1
 820 10 l 1,49,-1
 820 0 l 1,50,-1
 516 0 l 1,51,-1
 516 10 l 1,52,-1
 529 10 l 2,0,1
EndSplineSet
EndChar

StartChar: I
Encoding: 73 73 44
Width: 386
GlyphClass: 2
Flags: W
LayerCount: 2
Fore
SplineSet
55 10 m 2,0,1
 81 10 81 10 99.5 28.5 c 128,-1,2
 118 47 118 47 119 73 c 1,3,-1
 119 628 l 1,4,5
 118 654 118 654 99.5 672 c 128,-1,6
 81 690 81 690 55 690 c 2,7,-1
 42 690 l 1,8,-1
 42 700 l 1,9,-1
 346 700 l 1,10,-1
 345 690 l 1,11,-1
 333 690 l 2,12,13
 307 690 307 690 288 672 c 128,-1,14
 269 654 269 654 269 628 c 2,15,-1
 269 73 l 2,16,17
 269 47 269 47 288 28.5 c 128,-1,18
 307 10 307 10 333 10 c 2,19,-1
 345 10 l 1,20,-1
 346 0 l 1,21,-1
 42 0 l 1,22,-1
 42 10 l 1,23,-1
 55 10 l 2,0,1
EndSplineSet
EndChar

StartChar: J
Encoding: 74 74 45
Width: 384
GlyphClass: 2
Flags: W
LayerCount: 2
Fore
SplineSet
336 690 m 2,0,1
 300 690 300 690 281 659 c 0,2,3
 272 645 272 645 272 627 c 2,4,-1
 272 30 l 2,5,6
 272 -41 272 -41 234 -97 c 128,-1,7
 196 -153 196 -153 141 -177 c 128,-1,8
 86 -201 86 -201 31 -201 c 0,9,10
 18 -201 18 -201 5 -200 c 1,11,-1
 5 -191 l 1,12,13
 65 -166 65 -166 93.5 -104.5 c 128,-1,14
 122 -43 122 -43 122 33 c 2,15,-1
 122 627 l 1,16,17
 121 664 121 664 90 682 c 0,18,19
 75 690 75 690 58 690 c 2,20,-1
 45 690 l 1,21,-1
 45 700 l 1,22,-1
 349 700 l 1,23,-1
 349 690 l 1,24,-1
 336 690 l 2,0,1
EndSplineSet
EndChar

StartChar: K
Encoding: 75 75 46
Width: 757
GlyphClass: 2
Flags: W
LayerCount: 2
Fore
SplineSet
55 10 m 2,0,1
 81 10 81 10 99.5 28.5 c 128,-1,2
 118 47 118 47 119 73 c 1,3,-1
 119 628 l 1,4,5
 118 664 118 664 86 682 c 0,6,7
 72 690 72 690 55 690 c 2,8,-1
 42 690 l 1,9,-1
 42 700 l 1,10,-1
 346 700 l 1,11,-1
 345 690 l 1,12,-1
 333 690 l 2,13,14
 297 690 297 690 278 659 c 0,15,16
 269 645 269 645 269 628 c 2,17,-1
 269 73 l 2,18,19
 269 47 269 47 288 28.5 c 128,-1,20
 307 10 307 10 333 10 c 2,21,-1
 345 10 l 1,22,-1
 346 0 l 1,23,-1
 42 0 l 1,24,-1
 42 10 l 1,25,-1
 55 10 l 2,0,1
777 0 m 1,26,-1
 695 0 l 2,27,28
 543 0 543 0 480 83 c 1,29,30
 301 326 301 326 301 330 c 1,31,-1
 538 644 l 2,32,33
 546 654 546 654 546 662 c 128,-1,34
 546 670 546 670 543 676 c 0,35,36
 535 691 535 691 515 691 c 2,37,-1
 505 691 l 1,38,-1
 505 700 l 1,39,-1
 734 700 l 1,40,-1
 734 691 l 1,41,-1
 730 691 l 2,42,43
 663 691 663 691 621 643 c 1,44,-1
 426 412 l 1,45,-1
 675 72 l 1,46,47
 721 12 721 12 777 10 c 1,48,-1
 777 0 l 1,26,-1
EndSplineSet
EndChar

StartChar: L
Encoding: 76 76 47
Width: 616
GlyphClass: 2
Flags: W
LayerCount: 2
Fore
SplineSet
55 10 m 2,0,1
 81 10 81 10 99.5 28.5 c 128,-1,2
 118 47 118 47 119 73 c 1,3,-1
 119 627 l 1,4,5
 118 653 118 653 99.5 671.5 c 128,-1,6
 81 690 81 690 55 690 c 2,7,-1
 42 690 l 1,8,-1
 42 700 l 1,9,-1
 346 700 l 1,10,-1
 345 690 l 1,11,-1
 333 690 l 2,12,13
 307 690 307 690 288 671.5 c 128,-1,14
 269 653 269 653 269 627 c 2,15,-1
 269 43 l 1,16,-1
 400 43 l 2,17,18
 473 43 473 43 522.5 85 c 128,-1,19
 572 127 572 127 596 204 c 1,20,-1
 606 204 l 1,21,-1
 560 0 l 1,22,-1
 42 0 l 1,23,-1
 42 10 l 1,24,-1
 55 10 l 2,0,1
EndSplineSet
EndChar

StartChar: M
Encoding: 77 77 48
Width: 953
GlyphClass: 2
Flags: W
LayerCount: 2
Fore
SplineSet
947 10 m 2,0,-1
 963 10 l 1,1,-1
 963 0 l 1,2,-1
 663 0 l 1,3,-1
 663 9 l 1,4,-1
 678 9 l 1,5,6
 695 10 695 10 707 23 c 128,-1,7
 719 36 719 36 717 52 c 2,8,-1
 678 415 l 1,9,-1
 490 91 l 2,10,11
 453 29 453 29 452 -20 c 1,12,-1
 442 -20 l 1,13,-1
 185 412 l 1,14,-1
 146 52 l 2,15,16
 144 36 144 36 156 22.5 c 128,-1,17
 168 9 168 9 185 9 c 2,18,-1
 200 9 l 1,19,-1
 200 0 l 1,20,-1
 -9 0 l 1,21,-1
 -9 10 l 1,22,-1
 7 10 l 2,23,24
 35 10 35 10 55.5 27 c 128,-1,25
 76 44 76 44 80 73 c 2,26,-1
 163 714 l 1,27,-1
 172 714 l 1,28,-1
 482 204 l 1,29,-1
 780 714 l 1,30,-1
 789 714 l 1,31,-1
 874 73 l 1,32,33
 879 44 879 44 899.5 27 c 128,-1,34
 920 10 920 10 947 10 c 2,0,-1
EndSplineSet
EndChar

StartChar: N
Encoding: 78 78 49
Width: 865
GlyphClass: 2
Flags: W
LayerCount: 2
Fore
SplineSet
817 690 m 2,0,1
 782 690 782 690 764 660 c 0,2,3
 756 647 756 647 755 630 c 1,4,-1
 755 114 l 2,5,6
 755 47 755 47 764 1 c 2,7,-1
 767 -14 l 1,8,-1
 758 -14 l 1,9,-1
 253 467 l 1,10,-1
 253 70 l 2,11,12
 253 45 253 45 271 27.5 c 128,-1,13
 289 10 289 10 314 10 c 2,14,-1
 333 10 l 1,15,-1
 333 0 l 1,16,-1
 30 0 l 1,17,-1
 30 10 l 1,18,-1
 48 10 l 2,19,20
 74 10 74 10 92 27.5 c 128,-1,21
 110 45 110 45 110 71 c 2,22,-1
 110 590 l 2,23,24
 110 656 110 656 101 700 c 1,25,-1
 99 715 l 1,26,-1
 108 715 l 1,27,-1
 613 234 l 1,28,-1
 613 629 l 1,29,30
 612 655 612 655 594 672.5 c 128,-1,31
 576 690 576 690 551 690 c 2,32,-1
 533 690 l 1,33,-1
 533 700 l 1,34,-1
 836 700 l 1,35,-1
 836 690 l 1,36,-1
 817 690 l 2,0,1
EndSplineSet
EndChar

StartChar: O
Encoding: 79 79 50
Width: 878
GlyphClass: 2
Flags: W
LayerCount: 2
Fore
SplineSet
442.5 714 m 128,-1,1
 623 714 623 714 729.5 616 c 128,-1,2
 836 518 836 518 836 350 c 128,-1,3
 836 182 836 182 729.5 84 c 128,-1,4
 623 -14 623 -14 442.5 -14 c 128,-1,5
 262 -14 262 -14 155.5 84 c 128,-1,6
 49 182 49 182 49 350 c 128,-1,7
 49 518 49 518 155.5 616 c 128,-1,0
 262 714 262 714 442.5 714 c 128,-1,1
442 28 m 128,-1,9
 548 28 548 28 610 114.5 c 128,-1,10
 672 201 672 201 672 350 c 128,-1,11
 672 499 672 499 610 585.5 c 128,-1,12
 548 672 548 672 442 672 c 128,-1,13
 336 672 336 672 274.5 585.5 c 128,-1,14
 213 499 213 499 213 350 c 128,-1,15
 213 201 213 201 274.5 114.5 c 128,-1,8
 336 28 336 28 442 28 c 128,-1,9
EndSplineSet
EndChar

StartChar: P
Encoding: 80 80 51
Width: 655
GlyphClass: 2
Flags: W
LayerCount: 2
Fore
SplineSet
627 500 m 0,0,1
 627 454 627 454 609 413 c 0,2,3
 575 334 575 334 483 305 c 0,4,5
 456 296 456 296 433 296 c 0,6,7
 362 296 362 296 306 333 c 1,8,-1
 306 343 l 1,9,10
 381 341 381 341 427 392 c 0,11,12
 467 436 467 436 467 507 c 0,13,14
 467 579 467 579 432.5 618.5 c 128,-1,15
 398 658 398 658 339 658 c 2,16,-1
 272 658 l 1,17,-1
 272 73 l 2,18,19
 272 47 272 47 291 28.5 c 128,-1,20
 310 10 310 10 336 10 c 2,21,-1
 349 10 l 1,22,-1
 349 0 l 1,23,-1
 45 0 l 1,24,-1
 45 10 l 1,25,-1
 58 10 l 2,26,27
 84 10 84 10 102.5 28.5 c 128,-1,28
 121 47 121 47 122 73 c 1,29,-1
 122 632 l 2,30,31
 122 657 122 657 103 673.5 c 128,-1,32
 84 690 84 690 58 690 c 2,33,-1
 45 690 l 1,34,-1
 45 700 l 1,35,-1
 379 700 l 2,36,37
 501 700 501 700 563 648 c 0,38,39
 627 593 627 593 627 500 c 0,0,1
EndSplineSet
EndChar

StartChar: Q
Encoding: 81 81 52
Width: 882
GlyphClass: 2
Flags: W
LayerCount: 2
Fore
SplineSet
1120 -145 m 0,0,1
 1261 -145 1261 -145 1351 -72 c 1,2,-1
 1357 -76 l 1,3,4
 1352 -157 1352 -157 1281 -214 c 0,5,6
 1201 -279 1201 -279 1082.5 -279 c 128,-1,7
 964 -279 964 -279 826 -212 c 0,8,9
 764 -181 764 -181 621 -89 c 1,10,11
 581 -62 581 -62 530 -40 c 128,-1,12
 479 -18 479 -18 435 -14 c 1,13,14
 257 -12 257 -12 152.5 85.5 c 128,-1,15
 48 183 48 183 48 350.5 c 128,-1,16
 48 518 48 518 154.5 616 c 128,-1,17
 261 714 261 714 441.5 714 c 128,-1,18
 622 714 622 714 728 616 c 128,-1,19
 834 518 834 518 834 350 c 0,20,21
 834 218 834 218 766.5 127.5 c 128,-1,22
 699 37 699 37 580 4 c 1,23,24
 660 -12 660 -12 729.5 -38 c 128,-1,25
 799 -64 799 -64 888 -98 c 0,26,27
 1008 -145 1008 -145 1120 -145 c 0,0,1
211 350 m 0,28,29
 211 252 211 252 239 179 c 128,-1,30
 267 106 267 106 319 67 c 128,-1,31
 371 28 371 28 441 28 c 0,32,33
 547 28 547 28 609 114.5 c 128,-1,34
 671 201 671 201 671 350 c 128,-1,35
 671 499 671 499 609 585.5 c 128,-1,36
 547 672 547 672 441 672 c 128,-1,37
 335 672 335 672 273 585.5 c 128,-1,38
 211 499 211 499 211 350 c 0,28,29
EndSplineSet
EndChar

StartChar: R
Encoding: 82 82 53
Width: 747
GlyphClass: 2
Flags: W
LayerCount: 2
Fore
SplineSet
318 656 m 2,0,-1
 275 656 l 2,1,2
 273 656 273 656 272 656 c 1,3,-1
 272 73 l 1,4,5
 273 47 273 47 291.5 28.5 c 128,-1,6
 310 10 310 10 336 10 c 2,7,-1
 349 10 l 1,8,-1
 349 0 l 1,9,-1
 45 0 l 1,10,-1
 45 10 l 1,11,-1
 58 10 l 2,12,13
 94 10 94 10 113 41 c 0,14,15
 121 55 121 55 122 72 c 1,16,-1
 122 627 l 1,17,18
 121 653 121 653 102.5 671.5 c 128,-1,19
 84 690 84 690 58 690 c 2,20,-1
 45 690 l 1,21,-1
 45 700 l 1,22,-1
 388 700 l 2,23,24
 485 700 485 700 552 658 c 0,25,26
 586 637 586 637 606 599.5 c 128,-1,27
 626 562 626 562 626 501.5 c 128,-1,28
 626 441 626 441 584 385 c 128,-1,29
 542 329 542 329 462 321 c 1,30,31
 520 302 520 302 564 233 c 0,32,33
 672 60 672 60 724 27 c 0,34,35
 750 11 750 11 789 10 c 1,36,-1
 789 0 l 1,37,-1
 691 0 l 2,38,39
 604 0 604 0 546.5 23 c 128,-1,40
 489 46 489 46 456 104 c 0,41,42
 437 137 437 137 373 275 c 0,43,44
 345 336 345 336 305 342 c 1,45,-1
 305 352 l 1,46,-1
 336 352 l 2,47,48
 381 352 381 352 415.5 379 c 128,-1,49
 450 406 450 406 462 467 c 0,50,51
 466 488 466 488 466 500 c 0,52,53
 466 582 466 582 433 618.5 c 128,-1,54
 400 655 400 655 348 656 c 0,55,56
 338 656 338 656 318 656 c 2,0,-1
EndSplineSet
EndChar

StartChar: S
Encoding: 83 83 54
Width: 578
GlyphClass: 2
Flags: W
LayerCount: 2
Fore
SplineSet
50 93 m 0,0,1
 50 165 50 165 81 216 c 1,2,-1
 90 216 l 1,3,4
 89 208 89 208 89 200 c 0,5,6
 89 131 89 131 138.5 79.5 c 128,-1,7
 188 28 188 28 274 28 c 0,8,9
 341 28 341 28 378.5 60 c 128,-1,10
 416 92 416 92 416 141 c 0,11,12
 416 170 416 170 397.5 193 c 128,-1,13
 379 216 379 216 336 244 c 2,14,-1
 162 359 l 2,15,16
 65 424 65 424 65 519 c 0,17,18
 65 529 65 529 67 539 c 1,19,20
 73 618 73 618 128.5 666 c 128,-1,21
 184 714 184 714 277 714 c 0,22,23
 332 714 332 714 413 704 c 1,24,-1
 476 704 l 1,25,-1
 463 557 l 1,26,-1
 453 557 l 1,27,28
 453 609 453 609 414.5 640.5 c 128,-1,29
 376 672 376 672 312 672 c 0,30,31
 234 672 234 672 199 624 c 0,32,33
 181 601 181 601 181 578 c 128,-1,34
 181 555 181 555 190 539 c 0,35,36
 204 513 204 513 251 483 c 2,37,-1
 442 359 l 2,38,39
 532 300 532 300 532 205 c 0,40,41
 532 99 532 99 459.5 42.5 c 128,-1,42
 387 -14 387 -14 267 -14 c 0,43,44
 199 -14 199 -14 141.5 2.5 c 128,-1,45
 84 19 84 19 57 47 c 1,46,47
 50 66 50 66 50 93 c 0,0,1
EndSplineSet
EndChar

StartChar: T
Encoding: 84 84 55
Width: 666
GlyphClass: 2
Flags: W
LayerCount: 2
Fore
SplineSet
409 659 m 1,0,-1
 409 72 l 1,1,2
 410 46 410 46 428.5 28 c 128,-1,3
 447 10 447 10 473 10 c 2,4,-1
 485 10 l 1,5,-1
 486 0 l 1,6,-1
 182 0 l 1,7,-1
 182 10 l 1,8,-1
 195 10 l 2,9,10
 220 10 220 10 238.5 28 c 128,-1,11
 257 46 257 46 259 71 c 1,12,-1
 259 659 l 1,13,-1
 124 659 l 1,14,15
 78 658 78 658 51 630 c 128,-1,16
 24 602 24 602 24 557 c 2,17,-1
 24 545 l 1,18,-1
 14 545 l 1,19,-1
 14 719 l 1,20,21
 55 702 55 702 132 701 c 1,22,-1
 535 701 l 2,23,24
 566 701 566 701 602.5 707 c 128,-1,25
 639 713 639 713 653 719 c 1,26,-1
 653 545 l 1,27,-1
 643 545 l 1,28,-1
 643 557 l 2,29,30
 643 619 643 619 596 645 c 0,31,32
 574 658 574 658 543 659 c 1,33,-1
 409 659 l 1,0,-1
EndSplineSet
EndChar

StartChar: U
Encoding: 85 85 56
Width: 821
GlyphClass: 2
Flags: W
LayerCount: 2
Fore
SplineSet
790 690 m 1,0,-1
 773 690 l 2,1,2
 752 690 752 690 737 676.5 c 128,-1,3
 722 663 722 663 721 643 c 1,4,-1
 721 253 l 2,5,6
 721 130 721 130 644 58 c 128,-1,7
 567 -14 567 -14 433 -14 c 0,8,9
 275 -14 275 -14 191 56.5 c 128,-1,10
 107 127 107 127 107 252 c 2,11,-1
 107 640 l 1,12,13
 106 670 106 670 80 684 c 0,14,15
 68 690 68 690 54 690 c 2,16,-1
 38 690 l 1,17,-1
 38 700 l 1,18,-1
 326 700 l 1,19,-1
 326 690 l 1,20,-1
 310 690 l 2,21,22
 288 690 288 690 273 676.5 c 128,-1,23
 258 663 258 663 257 642 c 1,24,-1
 257 260 l 2,25,26
 257 154 257 154 309 92 c 128,-1,27
 361 30 361 30 452 30 c 128,-1,28
 543 30 543 30 596 88.5 c 128,-1,29
 649 147 649 147 650 247 c 1,30,-1
 650 642 l 1,31,32
 648 671 648 671 623 684 c 0,33,34
 611 690 611 690 597 690 c 2,35,-1
 581 690 l 1,36,-1
 581 700 l 1,37,-1
 790 700 l 1,38,-1
 790 690 l 1,0,-1
EndSplineSet
EndChar

StartChar: V
Encoding: 86 86 57
Width: 727
GlyphClass: 2
Flags: W
LayerCount: 2
Fore
SplineSet
542 700 m 1,0,-1
 756 700 l 1,1,-1
 756 690 l 1,2,-1
 747 690 l 2,3,4
 724 690 724 690 701 676 c 128,-1,5
 678 662 678 662 663 634 c 1,6,-1
 426 111 l 1,7,8
 380 12 380 12 377 -20 c 1,9,-1
 368 -20 l 1,10,-1
 65 633 l 1,11,12
 50 661 50 661 27 675.5 c 128,-1,13
 4 690 4 690 -20 690 c 2,14,-1
 -28 690 l 1,15,-1
 -28 700 l 1,16,-1
 290 700 l 1,17,-1
 290 690 l 1,18,-1
 282 690 l 2,19,20
 260 690 260 690 249.5 676.5 c 128,-1,21
 239 663 239 663 239 651 c 128,-1,22
 239 639 239 639 243 627 c 2,23,-1
 413 214 l 1,24,-1
 589 627 l 2,25,26
 594 640 594 640 594 651.5 c 128,-1,27
 594 663 594 663 583.5 676.5 c 128,-1,28
 573 690 573 690 551 690 c 2,29,-1
 542 690 l 1,30,-1
 542 700 l 1,0,-1
EndSplineSet
EndChar

StartChar: W
Encoding: 87 87 58
Width: 971
GlyphClass: 2
Flags: W
LayerCount: 2
Fore
SplineSet
1000 690 m 1,0,-1
 991 690 l 2,1,2
 966 690 966 690 940.5 675 c 128,-1,3
 915 660 915 660 904 632 c 1,4,-1
 736 93 l 2,5,6
 719 38 719 38 719 -9 c 0,7,8
 719 -14 719 -14 719 -18 c 1,9,-1
 709 -18 l 1,10,-1
 491 465 l 1,11,-1
 333 93 l 1,12,13
 310 35 310 35 309 -18 c 1,14,-1
 299 -18 l 1,15,-1
 60 632 l 1,16,17
 47 661 47 661 23 675.5 c 128,-1,18
 -1 690 -1 690 -26 690 c 2,19,-1
 -34 690 l 1,20,-1
 -34 700 l 1,21,-1
 271 700 l 1,22,-1
 271 690 l 1,23,-1
 262 690 l 2,24,25
 241 690 241 690 230.5 676.5 c 128,-1,26
 220 663 220 663 220 651 c 128,-1,27
 220 639 220 639 224 628 c 2,28,-1
 347 280 l 1,29,-1
 528 716 l 1,30,-1
 537 715 l 1,31,-1
 736 276 l 1,32,-1
 836 628 l 2,33,34
 839 639 839 639 839 651 c 128,-1,35
 839 663 839 663 829.5 676.5 c 128,-1,36
 820 690 820 690 798 690 c 2,37,-1
 789 690 l 1,38,-1
 789 700 l 1,39,-1
 1000 700 l 1,40,-1
 1000 690 l 1,0,-1
EndSplineSet
EndChar

StartChar: X
Encoding: 88 88 59
Width: 729
GlyphClass: 2
Flags: W
LayerCount: 2
Fore
SplineSet
428 10 m 2,0,1
 449 10 449 10 462 30 c 0,2,3
 468 41 468 41 468 51 c 128,-1,4
 468 61 468 61 462 71 c 2,5,-1
 322 289 l 1,6,-1
 175 72 l 2,7,8
 169 62 169 62 169 51.5 c 128,-1,9
 169 41 169 41 175 31 c 0,10,11
 189 10 189 10 210 10 c 2,12,-1
 223 10 l 1,13,-1
 223 0 l 1,14,-1
 -24 0 l 1,15,-1
 -24 10 l 1,16,-1
 -10 10 l 2,17,18
 46 10 46 10 89 66 c 1,19,-1
 286 345 l 1,20,-1
 101 631 l 2,21,22
 84 656 84 656 57 673 c 128,-1,23
 30 690 30 690 0 690 c 2,24,-1
 -14 690 l 1,25,-1
 -14 700 l 1,26,-1
 326 700 l 1,27,-1
 326 690 l 1,28,-1
 313 690 l 2,29,30
 292 690 292 690 279 670 c 0,31,32
 273 659 273 659 273 648.5 c 128,-1,33
 273 638 273 638 278 629 c 2,34,-1
 403 436 l 1,35,-1
 526 628 l 2,36,37
 532 638 532 638 532 648.5 c 128,-1,38
 532 659 532 659 525 669 c 0,39,40
 512 690 512 690 491 690 c 2,41,-1
 478 690 l 1,42,-1
 478 700 l 1,43,-1
 724 700 l 1,44,-1
 724 690 l 1,45,-1
 710 690 l 2,46,47
 680 690 680 690 654 673.5 c 128,-1,48
 628 657 628 657 610 632 c 2,49,-1
 440 379 l 1,50,-1
 641 68 l 2,51,52
 658 43 658 43 685.5 26.5 c 128,-1,53
 713 10 713 10 742 10 c 2,54,-1
 756 10 l 1,55,-1
 756 0 l 1,56,-1
 415 0 l 1,57,-1
 415 10 l 1,58,-1
 428 10 l 2,0,1
EndSplineSet
EndChar

StartChar: Y
Encoding: 89 89 60
Width: 702
GlyphClass: 2
Flags: W
LayerCount: 2
Fore
SplineSet
734 690 m 1,0,-1
 720 690 l 2,1,2
 690 690 690 690 663 673 c 128,-1,3
 636 656 636 656 620 632 c 2,4,-1
 423 318 l 1,5,-1
 423 73 l 2,6,7
 423 47 423 47 442 28.5 c 128,-1,8
 461 10 461 10 487 10 c 2,9,-1
 499 10 l 1,10,-1
 500 0 l 1,11,-1
 196 0 l 1,12,-1
 196 10 l 1,13,-1
 209 10 l 2,14,15
 235 10 235 10 253.5 28 c 128,-1,16
 272 46 272 46 273 72 c 1,17,-1
 273 319 l 1,18,-1
 82 633 l 2,19,20
 67 657 67 657 39.5 673.5 c 128,-1,21
 12 690 12 690 -17 690 c 2,22,-1
 -31 690 l 1,23,-1
 -31 700 l 1,24,-1
 300 700 l 1,25,-1
 300 690 l 1,26,-1
 287 690 l 2,27,28
 265 690 265 690 253 670 c 0,29,30
 247 659 247 659 247 648.5 c 128,-1,31
 247 638 247 638 252 628 c 2,32,-1
 395 368 l 1,33,-1
 544 628 l 2,34,35
 549 638 549 638 549 648.5 c 128,-1,36
 549 659 549 659 542 669 c 1,37,38
 530 690 530 690 508 690 c 2,39,-1
 496 690 l 1,40,-1
 496 700 l 1,41,-1
 734 700 l 1,42,-1
 734 690 l 1,0,-1
EndSplineSet
EndChar

StartChar: Z
Encoding: 90 90 61
Width: 661
GlyphClass: 2
Flags: W
LayerCount: 2
Fore
SplineSet
59 719 m 1,0,1
 74 713 74 713 111.5 707 c 128,-1,2
 149 701 149 701 164.5 701 c 128,-1,3
 180 701 180 701 180 701 c 1,4,-1
 499 701 l 2,5,6
 541 701 541 701 570 706 c 128,-1,7
 599 711 599 711 604 714 c 1,8,-1
 604 705 l 1,9,-1
 234 42 l 1,10,-1
 444 42 l 2,11,12
 508 42 508 42 555.5 85 c 128,-1,13
 603 128 603 128 623 201 c 1,14,-1
 633 201 l 1,15,-1
 597 0 l 1,16,-1
 45 0 l 1,17,-1
 45 9 l 1,18,-1
 412 659 l 1,19,-1
 170 659 l 1,20,21
 107 658 107 658 81 610 c 0,22,23
 69 587 69 587 69 557 c 2,24,-1
 69 545 l 1,25,-1
 59 545 l 1,26,-1
 59 719 l 1,0,1
EndSplineSet
EndChar

StartChar: bracketleft
Encoding: 91 91 62
Width: 417
GlyphClass: 2
Flags: W
LayerCount: 2
Fore
SplineSet
120 -90 m 1,0,-1
 120 722 l 1,1,-1
 374 722 l 1,2,-1
 374 712 l 1,3,-1
 270 674 l 1,4,-1
 270 -42 l 1,5,-1
 377 -80 l 1,6,-1
 377 -90 l 1,7,-1
 120 -90 l 1,0,-1
EndSplineSet
EndChar

StartChar: backslash
Encoding: 92 92 63
Width: 426
GlyphClass: 2
Flags: W
LayerCount: 2
Fore
SplineSet
9 696 m 1,0,-1
 57 719 l 1,1,-1
 417 11 l 1,2,-1
 370 -14 l 1,3,-1
 9 696 l 1,0,-1
EndSplineSet
EndChar

StartChar: bracketright
Encoding: 93 93 64
Width: 417
GlyphClass: 2
Flags: W
LayerCount: 2
Fore
SplineSet
43 722 m 1,0,-1
 297 722 l 1,1,-1
 297 -90 l 1,2,-1
 40 -90 l 1,3,-1
 40 -80 l 1,4,-1
 147 -42 l 1,5,-1
 147 674 l 1,6,-1
 43 712 l 1,7,-1
 43 722 l 1,0,-1
EndSplineSet
EndChar

StartChar: asciicircum
Encoding: 94 94 65
Width: 552
GlyphClass: 2
Flags: W
LayerCount: 2
Fore
SplineSet
245 377 m 1,0,-1
 310 377 l 1,1,-1
 518 176 l 1,2,-1
 440 176 l 1,3,-1
 278 329 l 1,4,-1
 114 176 l 1,5,-1
 35 176 l 1,6,-1
 245 377 l 1,0,-1
EndSplineSet
EndChar

StartChar: underscore
Encoding: 95 95 66
Width: 500
GlyphClass: 2
Flags: W
LayerCount: 2
Fore
SplineSet
0 -102 m 1,0,-1
 0 -60 l 1,1,-1
 500 -60 l 1,2,-1
 500 -102 l 1,3,-1
 0 -102 l 1,0,-1
EndSplineSet
EndChar

StartChar: grave
Encoding: 96 96 67
Width: 536
GlyphClass: 2
Flags: W
LayerCount: 2
Fore
SplineSet
272 751 m 1,0,-1
 265 744 l 1,1,2
 165 768 165 768 61 834 c 1,3,4
 80 891 80 891 129 915 c 1,5,6
 230 824 230 824 272 751 c 1,0,-1
EndSplineSet
EndChar

StartChar: a
Encoding: 97 97 68
Width: 644
GlyphClass: 2
Flags: W
LayerCount: 2
Fore
SplineSet
665 10 m 2,0,-1
 673 10 l 1,1,-1
 673 0 l 1,2,-1
 379 0 l 1,3,-1
 379 10 l 1,4,-1
 387 10 l 2,5,6
 407 10 407 10 416 22 c 128,-1,7
 425 34 425 34 425 44 c 128,-1,8
 425 54 425 54 421 65 c 2,9,-1
 382 157 l 1,10,-1
 170 157 l 1,11,-1
 130 64 l 2,12,13
 126 54 126 54 126 43.5 c 128,-1,14
 126 33 126 33 135.5 21.5 c 128,-1,15
 145 10 145 10 165 10 c 2,16,-1
 173 10 l 1,17,-1
 173 0 l 1,18,-1
 -27 0 l 1,19,-1
 -27 10 l 1,20,-1
 -19 10 l 2,21,22
 2 10 2 10 23 23 c 128,-1,23
 44 36 44 36 57 62 c 2,24,-1
 264 506 l 1,25,26
 308 605 308 605 310 628 c 1,27,-1
 319 628 l 1,28,-1
 587 66 l 2,29,30
 600 37 600 37 621.5 23.5 c 128,-1,31
 643 10 643 10 665 10 c 2,0,-1
187 196 m 1,32,-1
 365 196 l 1,33,-1
 277 405 l 1,34,-1
 187 196 l 1,32,-1
EndSplineSet
EndChar

StartChar: b
Encoding: 98 98 69
Width: 604
GlyphClass: 2
Flags: W
LayerCount: 2
Fore
SplineSet
530 451 m 0,0,1
 530 414 530 414 514 386 c 0,2,3
 483 332 483 332 420 327 c 1,4,5
 487 322 487 322 532 279.5 c 128,-1,6
 577 237 577 237 577 171 c 0,7,8
 577 42 577 42 422 9 c 0,9,10
 378 0 378 0 326 0 c 2,11,-1
 36 0 l 1,12,-1
 36 10 l 1,13,-1
 47 10 l 2,14,15
 70 10 70 10 85.5 25 c 128,-1,16
 101 40 101 40 102 63 c 1,17,-1
 102 537 l 1,18,19
 101 573 101 573 68 586 c 0,20,21
 58 590 58 590 47 590 c 2,22,-1
 36 590 l 1,23,-1
 36 600 l 1,24,-1
 304 600 l 2,25,26
 530 600 530 600 530 451 c 0,0,1
415 180 m 0,27,28
 415 226 415 226 396 257 c 0,29,30
 361 317 361 317 275 317 c 0,31,32
 274 317 274 317 273 317 c 1,33,-1
 273 326 l 1,34,35
 321 326 321 326 351 354 c 128,-1,36
 381 382 381 382 381 441 c 0,37,38
 381 561 381 561 272 561 c 2,39,-1
 244 561 l 1,40,-1
 244 40 l 1,41,-1
 284 40 l 2,42,43
 342 40 342 40 378.5 74 c 128,-1,44
 415 108 415 108 415 180 c 0,27,28
EndSplineSet
EndChar

StartChar: c
Encoding: 99 99 70
Width: 682
GlyphClass: 2
Flags: W
LayerCount: 2
Fore
SplineSet
130 70.5 m 128,-1,1
 34 153 34 153 34 300 c 128,-1,2
 34 447 34 447 129.5 530 c 128,-1,3
 225 613 225 613 394 613 c 0,4,5
 526 613 526 613 619 567 c 1,6,-1
 619 408 l 1,7,-1
 612 408 l 1,8,9
 587 497 587 497 535 535 c 128,-1,10
 483 573 483 573 404 573 c 0,11,12
 298 573 298 573 242 500.5 c 128,-1,13
 186 428 186 428 186 302.5 c 128,-1,14
 186 177 186 177 241 103 c 0,15,16
 298 27 298 27 396 27 c 0,17,18
 467 27 467 27 513 49 c 128,-1,19
 559 71 559 71 586 119.5 c 128,-1,20
 613 168 613 168 626 251 c 1,21,-1
 633 251 l 1,22,-1
 645 100 l 1,23,24
 614 49 614 49 550.5 18 c 128,-1,25
 487 -13 487 -13 394 -13 c 0,26,0
 226 -12 226 -12 130 70.5 c 128,-1,1
EndSplineSet
EndChar

StartChar: d
Encoding: 100 100 71
Width: 748
GlyphClass: 2
Flags: W
LayerCount: 2
Fore
SplineSet
714 300 m 128,-1,1
 714 159 714 159 623 79.5 c 128,-1,2
 532 0 532 0 371 0 c 2,3,-1
 33 0 l 1,4,-1
 33 10 l 1,5,-1
 46 10 l 2,6,7
 69 10 69 10 85 26 c 128,-1,8
 101 42 101 42 102 64 c 1,9,-1
 102 538 l 1,10,11
 100 560 100 560 84 575 c 128,-1,12
 68 590 68 590 45 590 c 2,13,-1
 33 590 l 1,14,-1
 33 600 l 1,15,-1
 371 600 l 2,16,17
 532 600 532 600 623 520.5 c 128,-1,0
 714 441 714 441 714 300 c 128,-1,1
359 40 m 2,18,19
 453 40 453 40 507.5 109 c 128,-1,20
 562 178 562 178 562 300 c 128,-1,21
 562 422 562 422 507.5 491.5 c 128,-1,22
 453 561 453 561 359 561 c 2,23,-1
 246 561 l 1,24,-1
 246 40 l 1,25,-1
 359 40 l 2,18,19
EndSplineSet
EndChar

StartChar: e
Encoding: 101 101 72
Width: 563
GlyphClass: 2
Flags: W
LayerCount: 2
Fore
SplineSet
505 0 m 1,0,-1
 34 0 l 1,1,-1
 34 10 l 1,2,-1
 46 10 l 2,3,4
 69 10 69 10 84.5 25 c 128,-1,5
 100 40 100 40 101 62 c 1,6,-1
 101 538 l 1,7,8
 100 560 100 560 84.5 575 c 128,-1,9
 69 590 69 590 46 590 c 2,10,-1
 34 590 l 1,11,-1
 34 600 l 1,12,-1
 386 600 l 2,13,14
 413 600 413 600 445 605 c 128,-1,15
 477 610 477 610 490 615 c 1,16,-1
 490 456 l 1,17,-1
 480 456 l 1,18,-1
 480 465 l 2,19,20
 480 509 480 509 456 534 c 128,-1,21
 432 559 432 559 389 560 c 1,22,-1
 245 560 l 1,23,-1
 245 317 l 1,24,-1
 359 317 l 1,25,26
 393 318 393 318 414 340 c 128,-1,27
 435 362 435 362 435 396 c 2,28,-1
 435 403 l 1,29,-1
 445 403 l 1,30,-1
 445 191 l 1,31,-1
 435 191 l 1,32,-1
 435 198 l 2,33,34
 435 245 435 245 400 266 c 0,35,36
 382 277 382 277 360 277 c 2,37,-1
 245 277 l 1,38,-1
 245 40 l 1,39,-1
 365 40 l 1,40,41
 427 41 427 41 470.5 78.5 c 128,-1,42
 514 116 514 116 534 184 c 1,43,-1
 543 184 l 1,44,-1
 505 0 l 1,0,-1
EndSplineSet
EndChar

StartChar: f
Encoding: 102 102 73
Width: 534
GlyphClass: 2
Flags: W
LayerCount: 2
Fore
SplineSet
481 455 m 1,0,-1
 481 465 l 2,1,2
 481 508 481 508 457 533.5 c 128,-1,3
 433 559 433 559 389 560 c 1,4,-1
 245 560 l 1,5,-1
 245 317 l 1,6,-1
 360 317 l 1,7,8
 407 318 407 318 427 356 c 0,9,10
 436 374 436 374 436 396 c 2,11,-1
 436 403 l 1,12,-1
 447 403 l 1,13,-1
 447 191 l 1,14,-1
 436 191 l 1,15,-1
 436 198 l 2,16,17
 436 245 436 245 401 266 c 0,18,19
 384 277 384 277 361 277 c 2,20,-1
 245 277 l 1,21,-1
 245 63 l 1,22,23
 246 40 246 40 261.5 25 c 128,-1,24
 277 10 277 10 300 10 c 2,25,-1
 312 10 l 1,26,-1
 312 0 l 1,27,-1
 34 0 l 1,28,-1
 34 10 l 1,29,-1
 46 10 l 2,30,31
 69 10 69 10 84.5 25 c 128,-1,32
 100 40 100 40 101 62 c 1,33,-1
 101 538 l 2,34,35
 101 560 101 560 85 575 c 128,-1,36
 69 590 69 590 46 590 c 2,37,-1
 34 590 l 1,38,-1
 34 600 l 1,39,-1
 387 600 l 2,40,41
 454 600 454 600 492 615 c 1,42,-1
 492 455 l 1,43,-1
 481 455 l 1,0,-1
EndSplineSet
EndChar

StartChar: g
Encoding: 103 103 74
Width: 730
GlyphClass: 2
Flags: W
LayerCount: 2
Fore
SplineSet
34 301 m 128,-1,1
 34 447 34 447 123.5 530 c 128,-1,2
 213 613 213 613 370 613 c 0,3,4
 440 613 440 613 508 600.5 c 128,-1,5
 576 588 576 588 618 567 c 1,6,-1
 618 408 l 1,7,-1
 610 408 l 1,8,9
 566 573 566 573 400 573 c 0,10,11
 296 573 296 573 241.5 500.5 c 128,-1,12
 187 428 187 428 187 298.5 c 128,-1,13
 187 169 187 169 236.5 98 c 128,-1,14
 286 27 286 27 377 27 c 0,15,16
 427 27 427 27 467 50.5 c 128,-1,17
 507 74 507 74 520 118 c 1,18,-1
 521 238 l 2,19,20
 521 257 521 257 509.5 267.5 c 128,-1,21
 498 278 498 278 477 278 c 2,22,-1
 463 278 l 1,23,-1
 463 286 l 1,24,-1
 720 286 l 1,25,-1
 720 278 l 1,26,-1
 708 278 l 2,27,28
 664 278 664 278 664 238 c 2,29,-1
 664 104 l 1,30,31
 629 59 629 59 546 23 c 128,-1,32
 463 -13 463 -13 364 -13 c 0,33,34
 213 -12 213 -12 123.5 71.5 c 128,-1,0
 34 155 34 155 34 301 c 128,-1,1
EndSplineSet
EndChar

StartChar: h
Encoding: 104 104 75
Width: 750
GlyphClass: 2
Flags: W
LayerCount: 2
Fore
SplineSet
706 10 m 2,0,-1
 717 10 l 1,1,-1
 717 0 l 1,2,-1
 442 0 l 1,3,-1
 442 10 l 1,4,-1
 452 10 l 2,5,6
 475 10 475 10 491 25 c 128,-1,7
 507 40 507 40 507 63 c 2,8,-1
 507 279 l 1,9,-1
 244 279 l 1,10,-1
 244 63 l 1,11,12
 245 40 245 40 261 25 c 128,-1,13
 277 10 277 10 299 10 c 2,14,-1
 310 10 l 1,15,-1
 310 0 l 1,16,-1
 34 0 l 1,17,-1
 34 10 l 1,18,-1
 45 10 l 2,19,20
 68 10 68 10 84 25.5 c 128,-1,21
 100 41 100 41 100 63 c 2,22,-1
 100 537 l 2,23,24
 100 559 100 559 84 574.5 c 128,-1,25
 68 590 68 590 45 590 c 2,26,-1
 34 590 l 1,27,-1
 34 600 l 1,28,-1
 310 600 l 1,29,-1
 310 590 l 1,30,-1
 299 590 l 2,31,32
 277 590 277 590 261 575 c 128,-1,33
 245 560 245 560 244 538 c 1,34,-1
 244 319 l 1,35,-1
 507 319 l 1,36,-1
 507 537 l 2,37,38
 507 568 507 568 480 583 c 0,39,40
 467 590 467 590 452 590 c 2,41,-1
 442 590 l 1,42,-1
 442 600 l 1,43,-1
 717 600 l 1,44,-1
 717 590 l 1,45,-1
 706 590 l 2,46,47
 684 590 684 590 668 575 c 128,-1,48
 652 560 652 560 651 537 c 1,49,-1
 651 62 l 1,50,51
 652 31 652 31 678 17 c 0,52,53
 691 10 691 10 706 10 c 2,0,-1
EndSplineSet
EndChar

StartChar: i
Encoding: 105 105 76
Width: 352
GlyphClass: 2
Flags: W
LayerCount: 2
Fore
SplineSet
34 10 m 1,0,-1
 46 10 l 2,1,2
 70 10 70 10 87 25.5 c 128,-1,3
 104 41 104 41 104 63 c 2,4,-1
 104 537 l 2,5,6
 104 559 104 559 87 574.5 c 128,-1,7
 70 590 70 590 46 590 c 2,8,-1
 34 590 l 1,9,-1
 34 600 l 1,10,-1
 318 600 l 1,11,-1
 318 590 l 1,12,-1
 306 590 l 2,13,14
 283 590 283 590 266 575 c 128,-1,15
 249 560 249 560 248 538 c 1,16,-1
 248 63 l 1,17,18
 249 40 249 40 266 25 c 128,-1,19
 283 10 283 10 306 10 c 2,20,-1
 318 10 l 1,21,-1
 318 0 l 1,22,-1
 34 0 l 1,23,-1
 34 10 l 1,0,-1
EndSplineSet
EndChar

StartChar: j
Encoding: 106 106 77
Width: 340
GlyphClass: 2
Flags: W
LayerCount: 2
Fore
SplineSet
303 590 m 2,0,1
 280 590 280 590 263 574.5 c 128,-1,2
 246 559 246 559 245 536 c 1,3,-1
 245 31 l 2,4,5
 245 -33 245 -33 209.5 -83 c 128,-1,6
 174 -133 174 -133 123 -154 c 128,-1,7
 72 -175 72 -175 23 -175 c 0,8,9
 10 -175 10 -175 -3 -174 c 1,10,-1
 -3 -165 l 1,11,12
 51 -142 51 -142 76 -88 c 128,-1,13
 101 -34 101 -34 101 33 c 2,14,-1
 101 537 l 1,15,16
 100 559 100 559 83 574.5 c 128,-1,17
 66 590 66 590 42 590 c 2,18,-1
 31 590 l 1,19,-1
 31 600 l 1,20,-1
 315 600 l 1,21,-1
 315 590 l 1,22,-1
 303 590 l 2,0,1
EndSplineSet
EndChar

StartChar: k
Encoding: 107 107 78
Width: 673
GlyphClass: 2
Flags: W
LayerCount: 2
Fore
SplineSet
36 0 m 1,0,-1
 36 10 l 1,1,-1
 46 10 l 2,2,3
 78 10 78 10 94 36 c 0,4,5
 101 48 101 48 102 63 c 1,6,-1
 102 537 l 1,7,8
 101 568 101 568 74 583 c 0,9,10
 61 590 61 590 46 590 c 2,11,-1
 35 590 l 1,12,-1
 35 600 l 1,13,-1
 312 600 l 1,14,-1
 312 590 l 1,15,-1
 301 590 l 2,16,17
 279 590 279 590 262.5 575 c 128,-1,18
 246 560 246 560 245 538 c 1,19,-1
 245 63 l 1,20,21
 246 41 246 41 262 25.5 c 128,-1,22
 278 10 278 10 301 10 c 2,23,-1
 311 10 l 1,24,-1
 312 0 l 1,25,-1
 36 0 l 1,0,-1
695 0 m 1,26,-1
 618 0 l 2,27,28
 479 0 479 0 420 77 c 0,29,30
 415 85 415 85 376 138 c 0,31,32
 275 279 275 279 275 280 c 2,33,-1
 480 552 l 2,34,35
 491 566 491 566 484 578.5 c 128,-1,36
 477 591 477 591 460 591 c 2,37,-1
 451 591 l 1,38,-1
 451 600 l 1,39,-1
 655 600 l 1,40,-1
 655 591 l 1,41,-1
 651 591 l 2,42,43
 597 591 597 591 561 555 c 1,44,-1
 395 359 l 1,45,-1
 605 67 l 2,46,47
 645 10 645 10 695 9 c 1,48,-1
 695 0 l 1,26,-1
EndSplineSet
EndChar

StartChar: l
Encoding: 108 108 79
Width: 548
GlyphClass: 2
Flags: W
LayerCount: 2
Fore
SplineSet
34 0 m 1,0,-1
 34 10 l 1,1,-1
 46 10 l 2,2,3
 69 10 69 10 84.5 25 c 128,-1,4
 100 40 100 40 100 62 c 2,5,-1
 100 537 l 2,6,7
 100 559 100 559 84 574.5 c 128,-1,8
 68 590 68 590 46 590 c 2,9,-1
 34 590 l 1,10,-1
 34 600 l 1,11,-1
 312 600 l 1,12,-1
 312 590 l 1,13,-1
 300 590 l 2,14,15
 277 590 277 590 261 575 c 128,-1,16
 245 560 245 560 245 537 c 2,17,-1
 245 40 l 1,18,-1
 365 40 l 1,19,20
 427 41 427 41 470 78.5 c 128,-1,21
 513 116 513 116 533 184 c 1,22,-1
 544 184 l 1,23,-1
 505 0 l 1,24,-1
 34 0 l 1,0,-1
EndSplineSet
EndChar

StartChar: m
Encoding: 109 109 80
Width: 863
GlyphClass: 2
Flags: W
LayerCount: 2
Fore
SplineSet
858 10 m 2,0,-1
 872 10 l 1,1,-1
 872 0 l 1,2,-1
 594 0 l 1,3,-1
 594 10 l 1,4,-1
 608 10 l 2,5,6
 627 10 627 10 635.5 23 c 128,-1,7
 644 36 644 36 642 50 c 2,8,-1
 603 336 l 1,9,-1
 444 83 l 2,10,11
 408 26 408 26 408 -19 c 1,12,-1
 399 -19 l 1,13,-1
 168 331 l 1,14,-1
 134 50 l 2,15,16
 132 36 132 36 141 23 c 128,-1,17
 150 10 150 10 168 10 c 2,18,-1
 182 10 l 1,19,-1
 182 0 l 1,20,-1
 -8 0 l 1,21,-1
 -8 10 l 1,22,-1
 6 10 l 2,23,24
 31 10 31 10 49.5 24.5 c 128,-1,25
 68 39 68 39 71 64 c 2,26,-1
 149 613 l 1,27,-1
 157 613 l 1,28,-1
 440 190 l 1,29,-1
 705 613 l 1,30,-1
 714 613 l 1,31,-1
 794 59 l 1,32,33
 799 36 799 36 817 23 c 128,-1,34
 835 10 835 10 858 10 c 2,0,-1
EndSplineSet
EndChar

StartChar: n
Encoding: 110 110 81
Width: 779
GlyphClass: 2
Flags: W
LayerCount: 2
Fore
SplineSet
478 600 m 1,0,-1
 759 600 l 1,1,-1
 759 590 l 1,2,-1
 742 590 l 2,3,4
 719 590 719 590 703.5 576 c 128,-1,5
 688 562 688 562 687 540 c 1,6,-1
 687 103 l 2,7,8
 687 41 687 41 695 1 c 1,9,-1
 697 -13 l 1,10,-1
 688 -13 l 1,11,-1
 229 392 l 1,12,-1
 229 61 l 1,13,14
 230 39 230 39 245.5 24.5 c 128,-1,15
 261 10 261 10 284 10 c 2,16,-1
 301 10 l 1,17,-1
 301 0 l 1,18,-1
 21 0 l 1,19,-1
 21 10 l 1,20,-1
 37 10 l 2,21,22
 60 10 60 10 76 24.5 c 128,-1,23
 92 39 92 39 92 61 c 2,24,-1
 92 501 l 2,25,26
 92 561 92 561 84 600 c 1,27,-1
 82 614 l 1,28,-1
 91 613 l 1,29,-1
 549 210 l 1,30,-1
 549 539 l 2,31,32
 549 561 549 561 533.5 575.5 c 128,-1,33
 518 590 518 590 495 590 c 2,34,-1
 478 590 l 1,35,-1
 478 600 l 1,0,-1
EndSplineSet
EndChar

StartChar: o
Encoding: 111 111 82
Width: 777
GlyphClass: 2
Flags: W
LayerCount: 2
Fore
SplineSet
131.5 528.5 m 128,-1,1
 228 613 228 613 388.5 613 c 128,-1,2
 549 613 549 613 646 528.5 c 128,-1,3
 743 444 743 444 743 300 c 128,-1,4
 743 156 743 156 646 71.5 c 128,-1,5
 549 -13 549 -13 389 -13 c 128,-1,6
 229 -13 229 -13 132 71.5 c 128,-1,7
 35 156 35 156 35 300 c 128,-1,0
 35 444 35 444 131.5 528.5 c 128,-1,1
242.5 100.5 m 128,-1,9
 297 27 297 27 388.5 27 c 128,-1,10
 480 27 480 27 534.5 100.5 c 128,-1,11
 589 174 589 174 589 300 c 128,-1,12
 589 426 589 426 534.5 499.5 c 128,-1,13
 480 573 480 573 388.5 573 c 128,-1,14
 297 573 297 573 242.5 499.5 c 128,-1,15
 188 426 188 426 188 300 c 128,-1,8
 188 174 188 174 242.5 100.5 c 128,-1,9
EndSplineSet
EndChar

StartChar: p
Encoding: 112 112 83
Width: 585
GlyphClass: 2
Flags: W
LayerCount: 2
Fore
SplineSet
539 331 m 0,0,1
 489 244 489 244 382 244 c 0,2,3
 329 244 329 244 277 279 c 1,4,-1
 277 287 l 1,5,6
 377 287 377 287 405 389 c 0,7,8
 411 412 411 412 411 426 c 0,9,10
 411 495 411 495 378 528 c 128,-1,11
 345 561 345 561 290 561 c 2,12,-1
 245 561 l 1,13,-1
 245 63 l 1,14,15
 246 31 246 31 272 17 c 0,16,17
 284 10 284 10 299 10 c 2,18,-1
 311 10 l 1,19,-1
 311 0 l 1,20,-1
 35 0 l 1,21,-1
 35 10 l 1,22,-1
 47 10 l 2,23,24
 69 10 69 10 84.5 25 c 128,-1,25
 100 40 100 40 100 62 c 2,26,-1
 100 537 l 2,27,28
 100 560 100 560 84.5 575 c 128,-1,29
 69 590 69 590 46 590 c 2,30,-1
 34 590 l 1,31,-1
 34 600 l 1,32,-1
 330 600 l 2,33,34
 445 600 445 600 502 554 c 1,35,36
 563 507 563 507 563 425 c 0,37,38
 563 373 563 373 539 331 c 0,0,1
EndSplineSet
EndChar

StartChar: q
Encoding: 113 113 84
Width: 766
GlyphClass: 2
Flags: W
LayerCount: 2
Fore
SplineSet
768 -79 m 0,0,1
 875 -120 875 -120 979.5 -120 c 128,-1,2
 1084 -120 1084 -120 1159 -60 c 1,3,-1
 1164 -63 l 1,4,5
 1161 -139 1161 -139 1100 -191 c 0,6,7
 1033 -247 1033 -247 930.5 -247 c 128,-1,8
 828 -247 828 -247 706 -187 c 1,9,10
 661 -163 661 -163 595 -117.5 c 128,-1,11
 529 -72 529 -72 479.5 -44.5 c 128,-1,12
 430 -17 430 -17 383 -13 c 1,13,-1
 380 -13 l 2,14,15
 223 -13 223 -13 129 71.5 c 128,-1,16
 35 156 35 156 35 300 c 128,-1,17
 35 444 35 444 129 528.5 c 128,-1,18
 223 613 223 613 379.5 613 c 128,-1,19
 536 613 536 613 630.5 528.5 c 128,-1,20
 725 444 725 444 725 300 c 0,21,22
 725 150 725 150 624 65 c 0,23,24
 575 25 575 25 508 5 c 1,25,26
 578 -9 578 -9 635.5 -30 c 128,-1,27
 693 -51 693 -51 768 -79 c 0,0,1
189 300 m 0,28,29
 189 174 189 174 240.5 100.5 c 128,-1,30
 292 27 292 27 380 27 c 128,-1,31
 468 27 468 27 519.5 100 c 128,-1,32
 571 173 571 173 571 299.5 c 128,-1,33
 571 426 571 426 519.5 499.5 c 128,-1,34
 468 573 468 573 380 573 c 0,35,36
 322 573 322 573 278.5 540.5 c 128,-1,37
 235 508 235 508 212 445.5 c 128,-1,38
 189 383 189 383 189 300 c 0,28,29
EndSplineSet
EndChar

StartChar: r
Encoding: 114 114 85
Width: 657
GlyphClass: 2
Flags: W
LayerCount: 2
Fore
SplineSet
283 559 m 2,0,-1
 251 559 l 1,1,-1
 251 63 l 2,2,3
 251 39 251 39 267.5 24.5 c 128,-1,4
 284 10 284 10 305 10 c 2,5,-1
 316 10 l 1,6,-1
 316 0 l 1,7,-1
 41 0 l 1,8,-1
 41 10 l 1,9,-1
 53 10 l 2,10,11
 75 10 75 10 90.5 25 c 128,-1,12
 106 40 106 40 106 62 c 2,13,-1
 106 538 l 2,14,15
 106 560 106 560 90.5 575 c 128,-1,16
 75 590 75 590 54 590 c 2,17,-1
 41 590 l 1,18,-1
 41 600 l 1,19,-1
 348 600 l 2,20,21
 438 600 438 600 499 565 c 0,22,23
 567 526 567 526 567 436 c 0,24,25
 567 378 567 378 532 331.5 c 128,-1,26
 497 285 497 285 428 275 c 1,27,28
 455 266 455 266 481.5 241 c 128,-1,29
 508 216 508 216 524 190 c 1,30,31
 556 133 556 133 591 85.5 c 128,-1,32
 626 38 626 38 647.5 24 c 128,-1,33
 669 10 669 10 700 10 c 1,34,-1
 700 0 l 1,35,-1
 616 0 l 2,36,37
 533 0 533 0 488.5 20 c 128,-1,38
 444 40 444 40 409 96 c 0,39,40
 355 182 355 182 342 232 c 1,41,42
 330 262 330 262 313.5 277 c 128,-1,43
 297 292 297 292 282 294 c 1,44,-1
 282 302 l 1,45,-1
 307 302 l 1,46,47
 392 303 392 303 411 402 c 1,48,49
 415 417 415 417 415 428 c 128,-1,50
 415 439 415 439 414 458.5 c 128,-1,51
 413 478 413 478 401.5 502.5 c 128,-1,52
 390 527 390 527 372 538 c 0,53,54
 341 557 341 557 308 558 c 0,55,56
 297 559 297 559 283 559 c 2,0,-1
EndSplineSet
EndChar

StartChar: s
Encoding: 115 115 86
Width: 514
GlyphClass: 2
Flags: W
LayerCount: 2
Fore
SplineSet
46 82 m 0,0,1
 46 147 46 147 75 193 c 1,2,-1
 83 193 l 1,3,4
 82 186 82 186 82 180 c 0,5,6
 82 119 82 119 125.5 73 c 128,-1,7
 169 27 169 27 247 27 c 0,8,9
 303 27 303 27 333.5 53 c 128,-1,10
 364 79 364 79 364 111 c 128,-1,11
 364 143 364 143 346.5 162.5 c 128,-1,12
 329 182 329 182 289 208 c 2,13,-1
 147 298 l 2,14,15
 57 354 57 354 57 442 c 0,16,17
 57 451 57 451 58 461 c 0,18,19
 64 532 64 532 113 572.5 c 128,-1,20
 162 613 162 613 228.5 613 c 128,-1,21
 295 613 295 613 369 604 c 1,22,-1
 423 604 l 1,23,-1
 409 472 l 1,24,-1
 400 472 l 1,25,26
 400 519 400 519 367.5 546 c 128,-1,27
 335 573 335 573 281.5 573 c 128,-1,28
 228 573 228 573 197 550.5 c 128,-1,29
 166 528 166 528 166 491 c 0,30,31
 166 461 166 461 196 439 c 0,32,33
 208 430 208 430 231 416 c 2,34,-1
 390 318 l 2,35,36
 472 268 472 268 472 180 c 0,37,38
 472 87 472 87 406.5 37 c 128,-1,39
 341 -13 341 -13 237 -13 c 0,40,41
 173 -13 173 -13 124 2 c 128,-1,42
 75 17 75 17 52 40 c 1,43,44
 46 58 46 58 46 82 c 0,0,1
EndSplineSet
EndChar

StartChar: t
Encoding: 116 116 87
Width: 599
GlyphClass: 2
Flags: W
LayerCount: 2
Fore
SplineSet
579 458 m 1,0,-1
 579 467 l 2,1,2
 579 510 579 510 555 535 c 128,-1,3
 531 560 531 560 488 561 c 1,4,-1
 372 561 l 1,5,-1
 372 62 l 1,6,7
 373 40 373 40 389 25 c 128,-1,8
 405 10 405 10 427 10 c 2,9,-1
 438 10 l 1,10,-1
 438 0 l 1,11,-1
 162 0 l 1,12,-1
 162 10 l 1,13,-1
 172 10 l 2,14,15
 195 10 195 10 211 25 c 128,-1,16
 227 40 227 40 227 63 c 2,17,-1
 227 561 l 1,18,-1
 112 561 l 1,19,20
 68 560 68 560 44 535 c 128,-1,21
 20 510 20 510 20 467 c 2,22,-1
 20 458 l 1,23,-1
 10 458 l 1,24,-1
 10 616 l 1,25,26
 24 611 24 611 56.5 606 c 128,-1,27
 89 601 89 601 115 601 c 2,28,-1
 484 601 l 2,29,30
 528 601 528 601 556.5 607.5 c 128,-1,31
 585 614 585 614 589 616 c 1,32,-1
 589 458 l 1,33,-1
 579 458 l 1,0,-1
EndSplineSet
EndChar

StartChar: u
Encoding: 117 117 88
Width: 704
GlyphClass: 2
Flags: W
LayerCount: 2
Fore
SplineSet
685 590 m 1,0,-1
 671 590 l 2,1,2
 652 590 652 590 639 578.5 c 128,-1,3
 626 567 626 567 625 549 c 1,4,-1
 625 218 l 2,5,6
 625 110 625 110 559 48.5 c 128,-1,7
 493 -13 493 -13 362.5 -13 c 128,-1,8
 232 -13 232 -13 159.5 47 c 128,-1,9
 87 107 87 107 87 216 c 2,10,-1
 87 548 l 2,11,12
 87 566 87 566 73.5 578 c 128,-1,13
 60 590 60 590 41 590 c 2,14,-1
 27 590 l 1,15,-1
 27 600 l 1,16,-1
 290 600 l 1,17,-1
 290 590 l 1,18,-1
 276 590 l 2,19,20
 257 590 257 590 244 578 c 128,-1,21
 231 566 231 566 231 548 c 2,22,-1
 231 223 l 2,23,24
 231 131 231 131 273.5 79 c 128,-1,25
 316 27 316 27 393 27 c 128,-1,26
 470 27 470 27 514.5 76 c 128,-1,27
 559 125 559 125 559 212 c 2,28,-1
 559 548 l 1,29,30
 558 567 558 567 545 578.5 c 128,-1,31
 532 590 532 590 513 590 c 2,32,-1
 500 590 l 1,33,-1
 500 600 l 1,34,-1
 685 600 l 1,35,-1
 685 590 l 1,0,-1
EndSplineSet
EndChar

StartChar: v
Encoding: 118 118 89
Width: 636
GlyphClass: 2
Flags: W
LayerCount: 2
Fore
SplineSet
665 590 m 1,0,-1
 657 590 l 2,1,2
 636 590 636 590 615 577.5 c 128,-1,3
 594 565 594 565 581 539 c 2,4,-1
 377 109 l 1,5,6
 333 13 333 13 331 -13 c 1,7,-1
 322 -13 l 1,8,-1
 56 537 l 1,9,10
 29 590 29 590 -20 590 c 2,11,-1
 -27 590 l 1,12,-1
 -27 600 l 1,13,-1
 266 600 l 1,14,-1
 266 591 l 1,15,-1
 258 591 l 2,16,17
 239 591 239 591 229.5 578.5 c 128,-1,18
 220 566 220 566 220 555.5 c 128,-1,19
 220 545 220 545 224 534 c 2,20,-1
 364 209 l 1,21,-1
 507 534 l 2,22,23
 512 546 512 546 512 556 c 128,-1,24
 512 566 512 566 502.5 578.5 c 128,-1,25
 493 591 493 591 474 591 c 2,26,-1
 466 591 l 1,27,-1
 466 600 l 1,28,-1
 665 600 l 1,29,-1
 665 590 l 1,0,-1
EndSplineSet
EndChar

StartChar: w
Encoding: 119 119 90
Width: 869
GlyphClass: 2
Flags: W
LayerCount: 2
Fore
SplineSet
891 590 m 1,0,-1
 884 590 l 2,1,2
 861 590 861 590 840 578 c 128,-1,3
 819 566 819 566 809 543 c 1,4,-1
 661 90 l 2,5,6
 645 42 645 42 645 -1 c 0,7,8
 645 -6 645 -6 645 -11 c 1,9,-1
 636 -11 l 1,10,-1
 441 383 l 1,11,-1
 306 90 l 1,12,13
 283 37 283 37 283 -11 c 1,14,-1
 274 -11 l 1,15,-1
 61 539 l 1,16,17
 50 564 50 564 29.5 577 c 128,-1,18
 9 590 9 590 -15 590 c 2,19,-1
 -23 590 l 1,20,-1
 -23 600 l 1,21,-1
 258 600 l 1,22,-1
 258 590 l 1,23,-1
 250 590 l 2,24,25
 231 590 231 590 222 578.5 c 128,-1,26
 213 567 213 567 213 557 c 128,-1,27
 213 547 213 547 217 535 c 2,28,-1
 321 263 l 1,29,-1
 479 614 l 1,30,-1
 487 614 l 1,31,-1
 662 261 l 1,32,-1
 743 535 l 1,33,34
 753 575 753 575 727 587 c 0,35,36
 720 590 720 590 711 590 c 2,37,-1
 703 590 l 1,38,-1
 703 600 l 1,39,-1
 891 600 l 1,40,-1
 891 590 l 1,0,-1
EndSplineSet
EndChar

StartChar: x
Encoding: 120 120 91
Width: 650
GlyphClass: 2
Flags: W
LayerCount: 2
Fore
SplineSet
670 0 m 1,0,-1
 360 0 l 1,1,-1
 360 10 l 1,2,-1
 371 10 l 2,3,4
 390 10 390 10 398.5 23 c 128,-1,5
 407 36 407 36 407 44.5 c 128,-1,6
 407 53 407 53 402 61 c 2,7,-1
 288 237 l 1,8,-1
 160 61 l 2,9,10
 154 52 154 52 154 43.5 c 128,-1,11
 154 35 154 35 162.5 22.5 c 128,-1,12
 171 10 171 10 190 10 c 2,13,-1
 201 10 l 1,14,-1
 201 0 l 1,15,-1
 -19 0 l 1,16,-1
 -19 10 l 1,17,-1
 -7 10 l 2,18,19
 41 10 41 10 78 54 c 1,20,-1
 256 288 l 1,21,-1
 90 546 l 1,22,23
 75 566 75 566 52 578.5 c 128,-1,24
 29 591 29 591 4 591 c 2,25,-1
 -8 591 l 1,26,-1
 -8 601 l 1,27,-1
 300 601 l 1,28,-1
 300 591 l 1,29,-1
 289 591 l 2,30,31
 270 591 270 591 261.5 578 c 128,-1,32
 253 565 253 565 253 556.5 c 128,-1,33
 253 548 253 548 258 540 c 2,34,-1
 364 376 l 1,35,-1
 471 540 l 2,36,37
 476 548 476 548 476 556.5 c 128,-1,38
 476 565 476 565 468 578 c 128,-1,39
 460 591 460 591 441 591 c 2,40,-1
 430 591 l 1,41,-1
 430 601 l 1,42,-1
 649 601 l 1,43,-1
 649 591 l 1,44,-1
 636 591 l 2,45,46
 611 591 611 591 588.5 578.5 c 128,-1,47
 566 566 566 566 551 546 c 1,48,-1
 398 324 l 1,49,-1
 571 56 l 1,50,51
 591 28 591 28 616 19 c 128,-1,52
 641 10 641 10 658 10 c 2,53,-1
 670 10 l 1,54,-1
 670 0 l 1,0,-1
EndSplineSet
EndChar

StartChar: y
Encoding: 121 121 92
Width: 635
GlyphClass: 2
Flags: W
LayerCount: 2
Fore
SplineSet
669 590 m 1,0,-1
 656 590 l 2,1,2
 630 590 630 590 606.5 576 c 128,-1,3
 583 562 583 562 568 541 c 1,4,-1
 390 267 l 1,5,-1
 390 63 l 1,6,7
 391 41 391 41 407 25.5 c 128,-1,8
 423 10 423 10 447 10 c 2,9,-1
 458 10 l 1,10,-1
 458 0 l 1,11,-1
 178 0 l 1,12,-1
 178 10 l 1,13,-1
 190 10 l 2,14,15
 213 10 213 10 229 25.5 c 128,-1,16
 245 41 245 41 246 63 c 1,17,-1
 246 267 l 1,18,-1
 69 541 l 2,19,20
 55 563 55 563 31.5 576.5 c 128,-1,21
 8 590 8 590 -19 590 c 2,22,-1
 -31 590 l 1,23,-1
 -31 600 l 1,24,-1
 273 600 l 1,25,-1
 273 590 l 1,26,-1
 262 590 l 2,27,28
 243 590 243 590 234.5 577.5 c 128,-1,29
 226 565 226 565 226 556.5 c 128,-1,30
 226 548 226 548 230 541 c 2,31,-1
 363 311 l 1,32,-1
 498 541 l 2,33,34
 501 548 501 548 501 556.5 c 128,-1,35
 501 565 501 565 492.5 577.5 c 128,-1,36
 484 590 484 590 465 590 c 2,37,-1
 455 590 l 1,38,-1
 455 600 l 1,39,-1
 669 600 l 1,40,-1
 669 590 l 1,0,-1
EndSplineSet
EndChar

StartChar: z
Encoding: 122 122 93
Width: 606
GlyphClass: 2
Flags: W
LayerCount: 2
Fore
SplineSet
35 0 m 1,0,-1
 35 8 l 1,1,-1
 364 561 l 1,2,-1
 150 561 l 1,3,4
 107 560 107 560 83 535 c 128,-1,5
 59 510 59 510 59 466 c 2,6,-1
 59 458 l 1,7,-1
 49 458 l 1,8,-1
 49 616 l 1,9,10
 61 611 61 611 95.5 606 c 128,-1,11
 130 601 130 601 158 601 c 2,12,-1
 452 601 l 2,13,14
 481 601 481 601 513.5 605 c 128,-1,15
 546 609 546 609 555 613 c 1,16,-1
 555 605 l 1,17,-1
 230 39 l 1,18,-1
 403 39 l 1,19,20
 536 41 536 41 582 184 c 1,21,-1
 593 184 l 1,22,-1
 549 0 l 1,23,-1
 35 0 l 1,0,-1
EndSplineSet
EndChar

StartChar: braceleft
Encoding: 123 123 94
Width: 379
GlyphClass: 2
Flags: W
LayerCount: 2
Fore
SplineSet
132 340 m 0,0,1
 134 345 134 345 134 355 c 0,2,3
 134 368 134 368 123 429 c 128,-1,4
 112 490 112 490 112 519 c 0,5,6
 112 613 112 613 171.5 673 c 128,-1,7
 231 733 231 733 351 733 c 1,8,-1
 352 725 l 1,9,10
 306 713 306 713 289 686 c 0,11,12
 279 671 279 671 273.5 658 c 128,-1,13
 268 645 268 645 266 621 c 0,14,15
 262 588 262 588 262 559 c 0,16,17
 262 452 262 452 250.5 408.5 c 128,-1,18
 239 365 239 365 218.5 346.5 c 128,-1,19
 198 328 198 328 159 316 c 1,20,21
 215 301 215 301 238.5 255.5 c 128,-1,22
 262 210 262 210 262 111 c 0,23,24
 262 98 262 98 261.5 75 c 128,-1,25
 261 52 261 52 261 40 c 128,-1,26
 261 28 261 28 262.5 9.5 c 128,-1,27
 264 -9 264 -9 266.5 -19.5 c 128,-1,28
 269 -30 269 -30 274.5 -43.5 c 128,-1,29
 280 -57 280 -57 289 -65 c 0,30,31
 309 -84 309 -84 340 -92 c 1,32,-1
 338 -100 l 1,33,34
 167 -100 167 -100 124 31 c 0,35,36
 112 68 112 68 112 105 c 0,37,38
 112 153 112 153 121.5 206 c 128,-1,39
 131 259 131 259 131 270 c 128,-1,40
 131 281 131 281 129 292 c 1,41,42
 121 311 121 311 85 314 c 1,43,-1
 85 324 l 1,44,45
 124 325 124 325 132 340 c 0,0,1
EndSplineSet
EndChar

StartChar: bar
Encoding: 124 124 95
Width: 257
GlyphClass: 2
Flags: W
LayerCount: 2
Fore
SplineSet
100 -180 m 1,0,-1
 100 700 l 1,1,-1
 157 700 l 1,2,-1
 157 -180 l 1,3,-1
 100 -180 l 1,0,-1
EndSplineSet
EndChar

StartChar: braceright
Encoding: 125 125 96
Width: 379
GlyphClass: 2
Flags: W
LayerCount: 2
Fore
SplineSet
268 519 m 0,0,1
 268 490 268 490 261 450 c 0,2,3
 246 368 246 368 246 356.5 c 128,-1,4
 246 345 246 345 248 340 c 0,5,6
 256 325 256 325 295 324 c 1,7,-1
 295 314 l 1,8,9
 259 311 259 311 251 292 c 1,10,11
 249 281 249 281 249 270 c 128,-1,12
 249 259 249 259 252 243 c 0,13,14
 268 153 268 153 268 110.5 c 128,-1,15
 268 68 268 68 256 31 c 128,-1,16
 244 -6 244 -6 218 -36 c 0,17,18
 164 -100 164 -100 42 -100 c 1,19,-1
 40 -92 l 1,20,21
 91 -79 91 -79 106 -43 c 0,22,23
 119 -11 119 -11 119 40 c 0,24,25
 119 52 119 52 118.5 75 c 128,-1,26
 118 98 118 98 118 111 c 0,27,28
 118 210 118 210 141.5 255.5 c 128,-1,29
 165 301 165 301 221 316 c 1,30,31
 182 328 182 328 161 347 c 0,32,33
 118 386 118 386 118 536 c 0,34,35
 118 633 118 633 109.5 652 c 128,-1,36
 101 671 101 671 91 686 c 0,37,38
 74 713 74 713 28 725 c 1,39,-1
 30 733 l 1,40,41
 149 733 149 733 208.5 673 c 128,-1,42
 268 613 268 613 268 519 c 0,0,1
EndSplineSet
EndChar

StartChar: asciitilde
Encoding: 126 126 97
Width: 493
GlyphClass: 2
Flags: W
LayerCount: 2
Fore
SplineSet
464 313 m 0,0,1
 464 273 464 273 441 247 c 1,2,3
 404 208 404 208 346 208 c 0,4,5
 300 208 300 208 237 256 c 0,6,7
 171 307 171 307 140.5 307 c 128,-1,8
 110 307 110 307 97 285 c 0,9,10
 88 271 88 271 88 252 c 128,-1,11
 88 233 88 233 92 213 c 1,12,-1
 35 213 l 1,13,14
 31 234 31 234 31 253 c 0,15,16
 31 295 31 295 53 323 c 0,17,18
 87 364 87 364 142 364 c 0,19,20
 188 364 188 364 252 315 c 0,21,22
 319 265 319 265 349.5 265 c 128,-1,23
 380 265 380 265 398 290 c 0,24,25
 408 303 408 303 408 320.5 c 128,-1,26
 408 338 408 338 399 359 c 1,27,-1
 458 359 l 1,28,29
 464 334 464 334 464 313 c 0,0,1
EndSplineSet
EndChar

StartChar: exclamdown
Encoding: 161 161 98
Width: 269
GlyphClass: 2
Flags: W
LayerCount: 2
Fore
SplineSet
136 712 m 128,-1,1
 166 712 166 712 187 690.5 c 128,-1,2
 208 669 208 669 208 639 c 128,-1,3
 208 609 208 609 187 588 c 128,-1,4
 166 567 166 567 136 567 c 128,-1,5
 106 567 106 567 85 588 c 128,-1,6
 64 609 64 609 64 639 c 128,-1,7
 64 669 64 669 85 690.5 c 128,-1,0
 106 712 106 712 136 712 c 128,-1,1
76 323 m 1,8,-1
 112 494 l 1,9,-1
 159 494 l 1,10,-1
 194 323 l 1,11,-1
 212 0 l 1,12,-1
 58 0 l 1,13,-1
 76 323 l 1,8,-1
EndSplineSet
EndChar

StartChar: cent
Encoding: 162 162 99
Width: 587
GlyphClass: 2
Flags: W
LayerCount: 2
Fore
SplineSet
103.5 159 m 128,-1,1
 29 230 29 230 29 352.5 c 128,-1,2
 29 475 29 475 114.5 546 c 128,-1,3
 200 617 200 617 351 617 c 1,4,-1
 358 701 l 1,5,-1
 399 700 l 1,6,-1
 392 615 l 1,7,8
 477 607 477 607 534 578 c 1,9,-1
 534 441 l 1,10,-1
 527 441 l 1,11,12
 495 562 495 562 389 577 c 1,13,-1
 351 115 l 1,14,15
 438 116 438 116 480.5 158.5 c 128,-1,16
 523 201 523 201 539 304 c 1,17,-1
 545 304 l 1,18,-1
 556 174 l 1,19,20
 530 130 530 130 477.5 103.5 c 128,-1,21
 425 77 425 77 348 77 c 1,22,-1
 341 -9 l 1,23,-1
 301 -6 l 1,24,-1
 308 78 l 1,25,0
 178 88 178 88 103.5 159 c 128,-1,1
311 118 m 1,26,-1
 348 579 l 1,27,28
 260 577 260 577 215.5 517.5 c 128,-1,29
 171 458 171 458 171 354.5 c 128,-1,30
 171 251 171 251 207 191.5 c 128,-1,31
 243 132 243 132 311 118 c 1,26,-1
EndSplineSet
EndChar

StartChar: sterling
Encoding: 163 163 100
Width: 603
GlyphClass: 2
Flags: W
LayerCount: 2
Fore
SplineSet
148 66 m 1,0,1
 171 74 171 74 195 74 c 128,-1,2
 219 74 219 74 233.5 72 c 128,-1,3
 248 70 248 70 279 66 c 0,4,5
 331 59 331 59 361.5 59 c 128,-1,6
 392 59 392 59 430 68 c 128,-1,7
 468 77 468 77 510.5 109.5 c 128,-1,8
 553 142 553 142 579 196 c 1,9,-1
 589 196 l 1,10,-1
 544 24 l 1,11,12
 469 -10 469 -10 366 -10 c 0,13,14
 325 -10 325 -10 250 7.5 c 128,-1,15
 175 25 175 25 154 25 c 128,-1,16
 133 25 133 25 122.5 24 c 128,-1,17
 112 23 112 23 85 12.5 c 128,-1,18
 58 2 58 2 51 -6 c 1,19,-1
 41 -6 l 1,20,-1
 41 4 l 1,21,22
 75 48 75 48 102 128 c 128,-1,23
 129 208 129 208 131 323 c 1,24,-1
 38 323 l 1,25,-1
 53 371 l 1,26,-1
 130 371 l 1,27,28
 130 384 130 384 130 396 c 0,29,30
 130 697 130 697 377 714 c 0,31,32
 389 715 389 715 409.5 715 c 128,-1,33
 430 715 430 715 461 709 c 0,34,35
 525 696 525 696 556 657 c 1,36,-1
 516 535 l 1,37,-1
 506 535 l 1,38,39
 506 538 506 538 506 542 c 0,40,41
 506 672 506 672 407 672 c 0,42,43
 320 672 320 672 295 586 c 0,44,45
 280 532 280 532 280 471 c 128,-1,46
 280 410 280 410 283 371 c 1,47,-1
 464 371 l 1,48,-1
 447 323 l 1,49,-1
 284 323 l 1,50,51
 282 194 282 194 242 138 c 0,52,53
 222 110 222 110 201 94.5 c 128,-1,54
 180 79 180 79 148 66 c 1,0,1
EndSplineSet
EndChar

StartChar: currency
Encoding: 164 164 101
Width: 541
GlyphClass: 2
Flags: W
LayerCount: 2
Fore
SplineSet
410 193 m 1,0,1
 350 139 350 139 270 139 c 128,-1,2
 190 139 190 139 130 191 c 1,3,-1
 71 132 l 1,4,-1
 50 154 l 1,5,-1
 109 212 l 1,6,7
 56 272 56 272 56 352.5 c 128,-1,8
 56 433 56 433 110 493 c 1,9,-1
 50 553 l 1,10,-1
 71 574 l 1,11,-1
 131 514 l 1,12,13
 191 565 191 565 270 565 c 128,-1,14
 349 565 349 565 409 513 c 1,15,-1
 470 574 l 1,16,-1
 492 553 l 1,17,-1
 430 492 l 1,18,19
 482 432 482 432 482 352.5 c 128,-1,20
 482 273 482 273 431 214 c 1,21,-1
 492 154 l 1,22,-1
 470 132 l 1,23,-1
 410 193 l 1,0,1
269.5 169 m 128,-1,25
 345 169 345 169 398.5 222.5 c 128,-1,26
 452 276 452 276 452 352 c 128,-1,27
 452 428 452 428 398.5 481.5 c 128,-1,28
 345 535 345 535 269.5 535 c 128,-1,29
 194 535 194 535 140 481.5 c 128,-1,30
 86 428 86 428 86 352 c 128,-1,31
 86 276 86 276 140 222.5 c 128,-1,24
 194 169 194 169 269.5 169 c 128,-1,25
EndSplineSet
EndChar

StartChar: yen
Encoding: 165 165 102
Width: 702
GlyphClass: 2
Flags: W
LayerCount: 2
Fore
SplineSet
734 690 m 1,0,-1
 720 690 l 2,1,2
 680 690 680 690 645 660 c 0,3,4
 630 648 630 648 620 632 c 2,5,-1
 487 421 l 1,6,-1
 594 421 l 1,7,-1
 594 379 l 1,8,-1
 461 379 l 1,9,-1
 423 318 l 1,10,-1
 423 307 l 1,11,-1
 594 307 l 1,12,-1
 594 265 l 1,13,-1
 423 265 l 1,14,-1
 423 73 l 2,15,16
 423 36 423 36 455 18 c 0,17,18
 470 10 470 10 487 10 c 2,19,-1
 499 10 l 1,20,-1
 500 0 l 1,21,-1
 196 0 l 1,22,-1
 196 10 l 1,23,-1
 209 10 l 2,24,25
 235 10 235 10 253.5 28.5 c 128,-1,26
 272 47 272 47 273 73 c 1,27,-1
 273 265 l 1,28,-1
 100 265 l 1,29,-1
 100 307 l 1,30,-1
 273 307 l 1,31,-1
 273 319 l 1,32,-1
 236 379 l 1,33,-1
 100 379 l 1,34,-1
 100 421 l 1,35,-1
 211 421 l 1,36,-1
 82 633 l 2,37,38
 67 657 67 657 39.5 673.5 c 128,-1,39
 12 690 12 690 -17 690 c 2,40,-1
 -31 690 l 1,41,-1
 -31 700 l 1,42,-1
 300 700 l 1,43,-1
 300 690 l 1,44,-1
 287 690 l 2,45,46
 265 690 265 690 253 670 c 0,47,48
 247 659 247 659 247 648.5 c 128,-1,49
 247 638 247 638 252 628 c 2,50,-1
 395 368 l 1,51,-1
 544 628 l 2,52,53
 549 638 549 638 549 648.5 c 128,-1,54
 549 659 549 659 542 669 c 1,55,56
 530 690 530 690 508 690 c 2,57,-1
 496 690 l 1,58,-1
 496 700 l 1,59,-1
 734 700 l 1,60,-1
 734 690 l 1,0,-1
EndSplineSet
EndChar

StartChar: brokenbar
Encoding: 166 166 103
Width: 257
GlyphClass: 2
Flags: W
LayerCount: 2
Fore
SplineSet
100 350 m 1,0,-1
 100 700 l 1,1,-1
 157 700 l 1,2,-1
 157 350 l 1,3,-1
 100 350 l 1,0,-1
100 -180 m 1,4,-1
 100 170 l 1,5,-1
 157 170 l 1,6,-1
 157 -180 l 1,7,-1
 100 -180 l 1,4,-1
EndSplineSet
EndChar

StartChar: section
Encoding: 167 167 104
Width: 526
GlyphClass: 2
Flags: W
LayerCount: 2
Fore
SplineSet
82 566 m 0,0,1
 172 713 172 713 335 713 c 0,2,3
 385 713 385 713 421 691 c 1,4,5
 461 665 461 665 461 633 c 0,6,7
 461 616 461 616 447 599 c 1,8,9
 433 580 433 580 415.5 580 c 128,-1,10
 398 580 398 580 382.5 591 c 128,-1,11
 367 602 367 602 348 617 c 128,-1,12
 329 632 329 632 311 646 c 0,13,14
 290 662 290 662 270 662 c 128,-1,15
 250 662 250 662 234 651 c 0,16,17
 213 635 213 635 213 619 c 128,-1,18
 213 603 213 603 220 586 c 128,-1,19
 227 569 227 569 237 552 c 128,-1,20
 247 535 247 535 272 506 c 0,21,22
 307 466 307 466 335.5 435.5 c 128,-1,23
 364 405 364 405 366 403 c 0,24,25
 420 344 420 344 451 277 c 0,26,27
 486 199 486 199 486 126 c 0,28,29
 486 15 486 15 424 -61 c 0,30,31
 390 -102 390 -102 340 -128 c 0,32,33
 283 -157 283 -157 211 -157 c 0,34,35
 122 -157 122 -157 79 -107 c 0,36,37
 66 -92 66 -92 66 -75 c 128,-1,38
 66 -58 66 -58 79 -40 c 0,39,40
 93 -19 93 -19 111 -19 c 128,-1,41
 129 -19 129 -19 145.5 -30 c 128,-1,42
 162 -41 162 -41 183 -56.5 c 128,-1,43
 204 -72 204 -72 223 -86 c 0,44,45
 246 -103 246 -103 266.5 -103 c 128,-1,46
 287 -103 287 -103 302 -91 c 1,47,48
 324 -76 324 -76 324 -55 c 0,49,50
 324 -18 324 -18 268 46 c 0,51,52
 229 91 229 91 169 150 c 0,53,54
 57 260 57 260 44 372 c 0,55,56
 42 392 42 392 42 418 c 0,57,58
 42 501 42 501 82 566 c 0,0,1
143 583 m 1,59,60
 115 525 115 525 115 484 c 128,-1,61
 115 443 115 443 127 408 c 0,62,63
 150 338 150 338 235.5 255.5 c 128,-1,64
 321 173 321 173 354.5 116.5 c 128,-1,65
 388 60 388 60 388 12 c 0,66,67
 388 -3 388 -3 385 -19 c 1,68,69
 412 31 412 31 412 71.5 c 128,-1,70
 412 112 412 112 399 149 c 0,71,72
 373 222 373 222 285 311.5 c 128,-1,73
 197 401 197 401 170 450.5 c 128,-1,74
 143 500 143 500 143 570 c 0,75,76
 143 576 143 576 143 583 c 1,59,60
EndSplineSet
EndChar

StartChar: dieresis
Encoding: 168 168 105
Width: 600
GlyphClass: 2
Flags: W
LayerCount: 2
Fore
SplineSet
164 679 m 128,-1,1
 139 679 139 679 121.5 696.5 c 128,-1,2
 104 714 104 714 104 739 c 128,-1,3
 104 764 104 764 121.5 781.5 c 128,-1,4
 139 799 139 799 164 799 c 128,-1,5
 189 799 189 799 206.5 781.5 c 128,-1,6
 224 764 224 764 224 739 c 128,-1,7
 224 714 224 714 206.5 696.5 c 128,-1,0
 189 679 189 679 164 679 c 128,-1,1
397 679 m 128,-1,9
 372 679 372 679 354.5 696.5 c 128,-1,10
 337 714 337 714 337 739 c 128,-1,11
 337 764 337 764 354.5 781.5 c 128,-1,12
 372 799 372 799 397 799 c 128,-1,13
 422 799 422 799 439.5 781.5 c 128,-1,14
 457 764 457 764 457 739 c 128,-1,15
 457 714 457 714 439.5 696.5 c 128,-1,8
 422 679 422 679 397 679 c 128,-1,9
EndSplineSet
EndChar

StartChar: copyright
Encoding: 169 169 106
Width: 848
GlyphClass: 2
Flags: W
LayerCount: 2
Fore
SplineSet
424 714 m 128,-1,1
 575 714 575 714 681.5 607.5 c 128,-1,2
 788 501 788 501 788 350 c 128,-1,3
 788 199 788 199 681.5 92.5 c 128,-1,4
 575 -14 575 -14 424 -14 c 128,-1,5
 273 -14 273 -14 166.5 92.5 c 128,-1,6
 60 199 60 199 60 350 c 128,-1,7
 60 501 60 501 166.5 607.5 c 128,-1,0
 273 714 273 714 424 714 c 128,-1,1
424 668 m 128,-1,9
 338 668 338 668 264.5 625.5 c 128,-1,10
 191 583 191 583 148.5 509.5 c 128,-1,11
 106 436 106 436 106 350 c 128,-1,12
 106 264 106 264 148.5 190.5 c 128,-1,13
 191 117 191 117 264.5 74.5 c 128,-1,14
 338 32 338 32 424 32 c 128,-1,15
 510 32 510 32 583.5 74.5 c 128,-1,16
 657 117 657 117 699.5 190.5 c 128,-1,17
 742 264 742 264 742 350 c 128,-1,18
 742 436 742 436 699.5 509.5 c 128,-1,19
 657 583 657 583 583.5 625.5 c 128,-1,8
 510 668 510 668 424 668 c 128,-1,9
259.5 191.5 m 128,-1,21
 191 255 191 255 191 350.5 c 128,-1,22
 191 446 191 446 260 509.5 c 128,-1,23
 329 573 329 573 434 573 c 0,24,25
 478 573 478 573 525 561.5 c 128,-1,26
 572 550 572 550 606 530 c 1,27,-1
 608 418 l 1,28,-1
 602 418 l 1,29,30
 581 475 581 475 539.5 506.5 c 128,-1,31
 498 538 498 538 436.5 538 c 128,-1,32
 375 538 375 538 337.5 486.5 c 128,-1,33
 300 435 300 435 300 350.5 c 128,-1,34
 300 266 300 266 338 214.5 c 128,-1,35
 376 163 376 163 443.5 163 c 128,-1,36
 511 163 511 163 557 203 c 128,-1,37
 603 243 603 243 612 322 c 1,38,-1
 618 322 l 1,39,-1
 630 219 l 1,40,41
 597 175 597 175 546 151 c 128,-1,42
 495 127 495 127 432 127 c 0,43,20
 328 128 328 128 259.5 191.5 c 128,-1,21
EndSplineSet
EndChar

StartChar: ordfeminine
Encoding: 170 170 107
Width: 381
GlyphClass: 2
Flags: W
LayerCount: 2
Fore
SplineSet
380 382 m 2,0,-1
 385 382 l 1,1,-1
 385 377 l 1,2,-1
 212 377 l 1,3,-1
 212 382 l 1,4,-1
 216 382 l 2,5,6
 227 382 227 382 234 390 c 128,-1,7
 241 398 241 398 236 411 c 2,8,-1
 216 457 l 1,9,-1
 107 457 l 1,10,-1
 87 413 l 2,11,12
 81 399 81 399 88 390.5 c 128,-1,13
 95 382 95 382 106 382 c 2,14,-1
 110 382 l 1,15,-1
 110 377 l 1,16,-1
 -3 377 l 1,17,-1
 -3 382 l 1,18,-1
 1 382 l 2,19,20
 27 382 27 382 43 409 c 1,21,-1
 157 643 l 1,22,23
 182 699 182 699 183 711 c 1,24,-1
 188 711 l 1,25,-1
 338 411 l 1,26,27
 355 382 355 382 380 382 c 2,0,-1
119 483 m 1,28,-1
 205 483 l 1,29,-1
 163 578 l 1,30,-1
 119 483 l 1,28,-1
EndSplineSet
EndChar

StartChar: guillemotleft
Encoding: 171 171 108
Width: 506
GlyphClass: 2
Flags: W
LayerCount: 2
Fore
SplineSet
245 490 m 1,0,-1
 253 485 l 1,1,-1
 160 292 l 1,2,-1
 254 95 l 1,3,-1
 245 88 l 1,4,-1
 40 292 l 1,5,-1
 245 490 l 1,0,-1
438 490 m 1,6,-1
 446 485 l 1,7,-1
 353 292 l 1,8,-1
 447 95 l 1,9,-1
 438 89 l 1,10,-1
 233 292 l 1,11,-1
 438 490 l 1,6,-1
EndSplineSet
EndChar

StartChar: logicalnot
Encoding: 172 172 109
Width: 600
GlyphClass: 2
Flags: W
LayerCount: 2
Fore
SplineSet
562 403 m 1,0,-1
 562 195 l 1,1,-1
 505 195 l 1,2,-1
 505 346 l 1,3,-1
 40 346 l 1,4,-1
 40 403 l 1,5,-1
 562 403 l 1,0,-1
EndSplineSet
EndChar

StartChar: softhyphen
Encoding: 173 173 110
Width: 380
GlyphClass: 2
Flags: W
LayerCount: 2
Fore
SplineSet
32 292 m 1,0,-1
 40 325 l 1,1,-1
 340 325 l 1,2,-1
 348 292 l 1,3,-1
 340 258 l 1,4,-1
 40 258 l 1,5,-1
 32 292 l 1,0,-1
EndSplineSet
EndChar

StartChar: registered
Encoding: 174 174 111
Width: 245
GlyphClass: 2
Flags: W
LayerCount: 2
Fore
SplineSet
123 701 m 128,-1,1
 170 701 170 701 203 668 c 128,-1,2
 236 635 236 635 236 588 c 128,-1,3
 236 541 236 541 203 508 c 128,-1,4
 170 475 170 475 123 475 c 128,-1,5
 76 475 76 475 43 508 c 128,-1,6
 10 541 10 541 10 588 c 128,-1,7
 10 635 10 635 43 668 c 128,-1,0
 76 701 76 701 123 701 c 128,-1,1
122.5 497 m 128,-1,9
 161 497 161 497 187.5 523.5 c 128,-1,10
 214 550 214 550 214 588 c 128,-1,11
 214 626 214 626 187.5 652.5 c 128,-1,12
 161 679 161 679 122.5 679 c 128,-1,13
 84 679 84 679 58 652.5 c 128,-1,14
 32 626 32 626 32 588 c 128,-1,15
 32 550 32 550 58 523.5 c 128,-1,8
 84 497 84 497 122.5 497 c 128,-1,9
169 618 m 0,16,17
 169 588 169 588 139 585 c 1,18,19
 148 583 148 583 163.5 559.5 c 128,-1,20
 179 536 179 536 189 533 c 1,21,-1
 189 531 l 1,22,-1
 173 531 l 2,23,24
 147 531 147 531 132 555 c 0,25,26
 130 557 130 557 126 566 c 0,27,28
 115 589 115 589 112 589 c 1,29,-1
 112 591 l 1,30,-1
 122 591 l 1,31,32
 140 592 140 592 139 616.5 c 128,-1,33
 138 641 138 641 117 641 c 2,34,-1
 106 641 l 1,35,-1
 106 543 l 2,36,37
 106 533 106 533 117 533 c 2,38,-1
 119 533 l 1,39,-1
 119 531 l 1,40,-1
 65 531 l 1,41,-1
 65 533 l 1,42,-1
 67 533 l 2,43,44
 77 533 77 533 78 543 c 1,45,-1
 78 638 l 1,46,47
 77 648 77 648 67 648 c 2,48,-1
 65 648 l 1,49,-1
 65 650 l 1,50,-1
 126 651 l 2,51,52
 145 651 145 651 157 642 c 128,-1,53
 169 633 169 633 169 618 c 0,16,17
EndSplineSet
EndChar

StartChar: macron
Encoding: 175 175 112
Width: 600
GlyphClass: 2
Flags: W
LayerCount: 2
Fore
SplineSet
158 703 m 1,0,-1
 158 768 l 1,1,-1
 432 768 l 1,2,-1
 432 703 l 1,3,-1
 158 703 l 1,0,-1
EndSplineSet
EndChar

StartChar: degree
Encoding: 176 176 113
Width: 244
GlyphClass: 2
Flags: W
LayerCount: 2
Fore
SplineSet
122.5 664 m 128,-1,1
 163 664 163 664 192 635.5 c 128,-1,2
 221 607 221 607 221 566 c 128,-1,3
 221 525 221 525 192 496 c 128,-1,4
 163 467 163 467 122.5 467 c 128,-1,5
 82 467 82 467 53 496 c 128,-1,6
 24 525 24 525 24 566 c 128,-1,7
 24 607 24 607 53 635.5 c 128,-1,0
 82 664 82 664 122.5 664 c 128,-1,1
122 613 m 128,-1,9
 102 613 102 613 88.5 599.5 c 128,-1,10
 75 586 75 586 75 566 c 128,-1,11
 75 546 75 546 88.5 532 c 128,-1,12
 102 518 102 518 122 518 c 128,-1,13
 142 518 142 518 156 532 c 128,-1,14
 170 546 170 546 170 566 c 128,-1,15
 170 586 170 586 156 599.5 c 128,-1,8
 142 613 142 613 122 613 c 128,-1,9
EndSplineSet
EndChar

StartChar: plusminus
Encoding: 177 177 114
Width: 481
GlyphClass: 2
Flags: W
LayerCount: 2
Fore
SplineSet
269 408 m 1,0,-1
 442 408 l 1,1,-1
 442 351 l 1,2,-1
 269 351 l 1,3,-1
 269 179 l 1,4,-1
 212 179 l 1,5,-1
 212 351 l 1,6,-1
 40 351 l 1,7,-1
 40 408 l 1,8,-1
 212 408 l 1,9,-1
 212 581 l 1,10,-1
 269 581 l 1,11,-1
 269 408 l 1,0,-1
40 54 m 1,12,-1
 40 111 l 1,13,-1
 442 111 l 1,14,-1
 442 54 l 1,15,-1
 40 54 l 1,12,-1
EndSplineSet
EndChar

StartChar: twosuperior
Encoding: 178 178 115
Width: 401
GlyphClass: 2
Flags: W
LayerCount: 2
Fore
SplineSet
177 717 m 0,0,1
 247 717 247 717 293.5 685.5 c 128,-1,2
 340 654 340 654 340 601 c 0,3,4
 340 497 340 497 173 401 c 1,5,-1
 284 401 l 2,6,7
 318 401 318 401 340 426 c 0,8,9
 352 439 352 439 362 460 c 1,10,-1
 368 460 l 1,11,-1
 330 308 l 1,12,-1
 35 308 l 1,13,-1
 35 314 l 1,14,15
 50 331 50 331 85 371 c 128,-1,16
 120 411 120 411 138.5 434 c 128,-1,17
 157 457 157 457 181 491 c 0,18,19
 226 555 226 555 226 611 c 0,20,21
 226 648 226 648 206 668 c 128,-1,22
 186 688 186 688 157 688 c 0,23,24
 116 688 116 688 95 657 c 128,-1,25
 74 626 74 626 74 573 c 1,26,-1
 68 573 l 1,27,-1
 34 672 l 1,28,29
 66 701 66 701 124 712 c 0,30,31
 150 717 150 717 177 717 c 0,0,1
EndSplineSet
EndChar

StartChar: threesuperior
Encoding: 179 179 116
Width: 348
GlyphClass: 2
Flags: W
LayerCount: 2
Fore
SplineSet
282 669 m 0,0,1
 299 648 299 648 299 616.5 c 128,-1,2
 299 585 299 585 276 563.5 c 128,-1,3
 253 542 253 542 222 538 c 1,4,5
 260 532 260 532 287.5 506.5 c 128,-1,6
 315 481 315 481 315 434.5 c 128,-1,7
 315 388 315 388 288 353 c 0,8,9
 239 288 239 288 134 288 c 0,10,11
 79 288 79 288 28 309 c 1,12,-1
 29 314 l 1,13,14
 33 314 33 314 37 314 c 0,15,16
 135 314 135 314 181 371 c 0,17,18
 205 401 205 401 205 437.5 c 128,-1,19
 205 474 205 474 189 495 c 0,20,21
 160 531 160 531 96 532 c 1,22,-1
 97 538 l 1,23,24
 99 538 99 538 100 538 c 0,25,26
 140 538 140 538 166.5 563 c 128,-1,27
 193 588 193 588 193 623 c 256,28,29
 193 658 193 658 174 671.5 c 128,-1,30
 155 685 155 685 132 685 c 0,31,32
 81 685 81 685 68 640 c 0,33,34
 62 621 62 621 62 604.5 c 128,-1,35
 62 588 62 588 62 584 c 1,36,-1
 56 584 l 1,37,-1
 28 676 l 1,38,39
 71 713 71 713 158.5 713 c 128,-1,40
 246 713 246 713 282 669 c 0,0,1
EndSplineSet
EndChar

StartChar: acute
Encoding: 180 180 117
Width: 536
GlyphClass: 2
Flags: W
LayerCount: 2
Fore
SplineSet
209 744 m 1,0,-1
 202 751 l 1,1,2
 246 825 246 825 346 915 c 1,3,4
 395 890 395 890 414 834 c 1,5,6
 311 769 311 769 209 744 c 1,0,-1
EndSplineSet
EndChar

StartChar: paragraph
Encoding: 182 182 118
Width: 532
GlyphClass: 2
Flags: W
LayerCount: 2
Fore
SplineSet
416 147 m 2,0,1
 416 42 416 42 356 -13 c 1,2,-1
 347 -5 l 1,3,4
 372 37 372 37 374 85 c 0,5,6
 374 100 374 100 374 145 c 2,7,-1
 374 658 l 1,8,-1
 291 658 l 1,9,-1
 291 0 l 2,10,11
 291 -154 291 -154 193 -199 c 1,12,-1
 186 -190 l 1,13,14
 227 -148 227 -148 237 -114.5 c 128,-1,15
 247 -81 247 -81 247 -47 c 128,-1,16
 247 -13 247 -13 246 0 c 1,17,-1
 246 333 l 1,18,19
 161 333 161 333 105.5 383 c 128,-1,20
 50 433 50 433 50 516 c 128,-1,21
 50 599 50 599 106.5 649.5 c 128,-1,22
 163 700 163 700 246 700 c 2,23,-1
 420 700 l 2,24,25
 421 700 421 700 427.5 700 c 128,-1,26
 434 700 434 700 436 700 c 128,-1,27
 438 700 438 700 445 700.5 c 128,-1,28
 452 701 452 701 455.5 702.5 c 128,-1,29
 459 704 459 704 465.5 705.5 c 128,-1,30
 472 707 472 707 477.5 710.5 c 128,-1,31
 483 714 483 714 489 718 c 0,32,33
 501 726 501 726 516 743 c 1,34,-1
 523 737 l 1,35,36
 514 706 514 706 486 682.5 c 128,-1,37
 458 659 458 659 416 658 c 1,38,-1
 416 147 l 2,0,1
EndSplineSet
EndChar

StartChar: periodcentered
Encoding: 183 183 119
Width: 218
GlyphClass: 2
Flags: W
LayerCount: 2
Fore
SplineSet
109 281 m 128,-1,1
 79 281 79 281 58 302 c 128,-1,2
 37 323 37 323 37 353 c 128,-1,3
 37 383 37 383 58 404 c 128,-1,4
 79 425 79 425 109 425 c 128,-1,5
 139 425 139 425 160.5 404 c 128,-1,6
 182 383 182 383 182 353 c 128,-1,7
 182 323 182 323 160.5 302 c 128,-1,0
 139 281 139 281 109 281 c 128,-1,1
EndSplineSet
EndChar

StartChar: cedilla
Encoding: 184 184 120
Width: 600
GlyphClass: 2
Flags: W
LayerCount: 2
Fore
SplineSet
283 -48 m 1,0,1
 315 -37 315 -37 344 -45 c 0,2,3
 397 -59 397 -59 397 -108.5 c 128,-1,4
 397 -158 397 -158 340 -184 c 0,5,6
 309 -198 309 -198 280.5 -198 c 128,-1,7
 252 -198 252 -198 227 -189 c 1,8,-1
 228 -179 l 1,9,10
 264 -179 264 -179 295 -160.5 c 128,-1,11
 326 -142 326 -142 326 -105 c 0,12,13
 326 -87 326 -87 311 -76 c 128,-1,14
 296 -65 296 -65 275 -65 c 128,-1,15
 254 -65 254 -65 234 -72 c 1,16,-1
 229 -62 l 1,17,-1
 277 1 l 1,18,-1
 325 1 l 1,19,-1
 283 -48 l 1,0,1
EndSplineSet
EndChar

StartChar: onesuperior
Encoding: 185 185 121
Width: 260
GlyphClass: 2
Flags: W
LayerCount: 2
Fore
SplineSet
184 715 m 1,0,-1
 190 715 l 1,1,-1
 190 346 l 2,2,3
 190 333 190 333 199.5 323.5 c 128,-1,4
 209 314 209 314 222 314 c 2,5,-1
 234 314 l 1,6,-1
 234 308 l 1,7,-1
 38 308 l 1,8,-1
 38 314 l 1,9,-1
 51 314 l 2,10,11
 64 314 64 314 73.5 323.5 c 128,-1,12
 83 333 83 333 83 346 c 2,13,-1
 83 632 l 2,14,15
 83 671 83 671 46 671 c 2,16,-1
 34 671 l 1,17,-1
 34 677 l 1,18,19
 137 684 137 684 184 715 c 1,0,-1
EndSplineSet
EndChar

StartChar: ordmasculine
Encoding: 186 186 122
Width: 404
GlyphClass: 2
Flags: W
LayerCount: 2
Fore
SplineSet
72 665.5 m 128,-1,1
 120 711 120 711 202 711 c 128,-1,2
 284 711 284 711 332.5 665.5 c 128,-1,3
 381 620 381 620 381 542.5 c 128,-1,4
 381 465 381 465 332.5 419.5 c 128,-1,5
 284 374 284 374 202 374 c 128,-1,6
 120 374 120 374 72 419.5 c 128,-1,7
 24 465 24 465 24 542.5 c 128,-1,0
 24 620 24 620 72 665.5 c 128,-1,1
140.5 436.5 m 128,-1,9
 162 398 162 398 202 398 c 128,-1,10
 242 398 242 398 264 436.5 c 128,-1,11
 286 475 286 475 286 542.5 c 128,-1,12
 286 610 286 610 264 649 c 128,-1,13
 242 688 242 688 202 688 c 128,-1,14
 162 688 162 688 140.5 649 c 128,-1,15
 119 610 119 610 119 542.5 c 128,-1,8
 119 475 119 475 140.5 436.5 c 128,-1,9
EndSplineSet
EndChar

StartChar: guillemotright
Encoding: 187 187 123
Width: 506
GlyphClass: 2
Flags: W
LayerCount: 2
Fore
SplineSet
69 88 m 1,0,-1
 60 95 l 1,1,-1
 155 292 l 1,2,-1
 61 485 l 1,3,-1
 69 490 l 1,4,-1
 274 292 l 1,5,-1
 69 88 l 1,0,-1
262 88 m 1,6,-1
 253 95 l 1,7,-1
 348 292 l 1,8,-1
 254 485 l 1,9,-1
 262 490 l 1,10,-1
 467 292 l 1,11,-1
 262 88 l 1,6,-1
EndSplineSet
EndChar

StartChar: onequarter
Encoding: 188 188 124
Width: 747
GlyphClass: 2
Flags: W
LayerCount: 2
Fore
SplineSet
590 719 m 1,0,-1
 628 694 l 1,1,-1
 150 -18 l 1,2,-1
 112 8 l 1,3,-1
 590 719 l 1,0,-1
36 677 m 1,4,5
 139 684 139 684 186 715 c 1,6,-1
 191 715 l 1,7,-1
 191 346 l 2,8,9
 191 333 191 333 201 323.5 c 128,-1,10
 211 314 211 314 224 314 c 2,11,-1
 236 314 l 1,12,-1
 236 308 l 1,13,-1
 40 308 l 1,14,-1
 40 314 l 1,15,-1
 53 314 l 2,16,17
 66 314 66 314 75.5 323.5 c 128,-1,18
 85 333 85 333 85 346 c 2,19,-1
 85 632 l 2,20,21
 85 671 85 671 48 671 c 2,22,-1
 36 671 l 1,23,-1
 36 677 l 1,4,5
682 6 m 2,24,-1
 689 6 l 1,25,-1
 689 0 l 1,26,-1
 501 0 l 1,27,-1
 501 6 l 1,28,-1
 508 6 l 2,29,30
 522 6 522 6 532 15 c 128,-1,31
 542 24 542 24 543 38 c 1,32,-1
 543 107 l 1,33,-1
 353 107 l 1,34,-1
 353 113 l 1,35,-1
 642 407 l 1,36,-1
 647 407 l 1,37,-1
 647 164 l 1,38,-1
 675 164 l 2,39,40
 702 164 702 164 714 186 c 1,41,-1
 720 186 l 1,42,-1
 702 107 l 1,43,-1
 648 107 l 1,44,-1
 648 39 l 2,45,46
 648 25 648 25 658 15.5 c 128,-1,47
 668 6 668 6 682 6 c 2,24,-1
543 164 m 1,48,-1
 543 261 l 1,49,-1
 447 164 l 1,50,-1
 543 164 l 1,48,-1
EndSplineSet
EndChar

StartChar: onehalf
Encoding: 189 189 125
Width: 832
GlyphClass: 2
Flags: W
LayerCount: 2
Fore
SplineSet
576 719 m 1,0,-1
 614 694 l 1,1,-1
 136 -18 l 1,2,-1
 98 8 l 1,3,-1
 576 719 l 1,0,-1
185 715 m 1,4,-1
 191 715 l 1,5,-1
 191 346 l 2,6,7
 191 333 191 333 201 323.5 c 128,-1,8
 211 314 211 314 224 314 c 2,9,-1
 236 314 l 1,10,-1
 236 308 l 1,11,-1
 40 308 l 1,12,-1
 40 314 l 1,13,-1
 52 314 l 2,14,15
 66 314 66 314 75.5 323.5 c 128,-1,16
 85 333 85 333 85 346 c 2,17,-1
 85 632 l 2,18,19
 85 671 85 671 48 671 c 2,20,-1
 36 671 l 1,21,-1
 36 677 l 1,22,23
 139 684 139 684 185 715 c 1,4,-1
521 397.5 m 128,-1,25
 560 409 560 409 603.5 409 c 128,-1,26
 647 409 647 409 684 395.5 c 128,-1,27
 721 382 721 382 742.5 355 c 128,-1,28
 764 328 764 328 764 293 c 0,29,30
 764 189 764 189 598 93 c 1,31,-1
 708 93 l 2,32,33
 742 93 742 93 765 118 c 0,34,35
 776 131 776 131 787 153 c 1,36,-1
 793 153 l 1,37,-1
 755 0 l 1,38,-1
 459 0 l 1,39,-1
 459 6 l 1,40,41
 474 23 474 23 501 54 c 128,-1,42
 528 85 528 85 545.5 105 c 128,-1,43
 563 125 563 125 585 154 c 128,-1,44
 607 183 607 183 620 205 c 0,45,46
 651 259 651 259 651 299.5 c 128,-1,47
 651 340 651 340 631 360 c 128,-1,48
 611 380 611 380 581 380 c 0,49,50
 540 380 540 380 519 349 c 128,-1,51
 498 318 498 318 498 265 c 1,52,-1
 493 265 l 1,53,-1
 458 365 l 1,54,24
 482 386 482 386 521 397.5 c 128,-1,25
EndSplineSet
EndChar

StartChar: threequarters
Encoding: 190 190 126
Width: 789
GlyphClass: 2
Flags: W
LayerCount: 2
Fore
SplineSet
649 719 m 1,0,-1
 687 694 l 1,1,-1
 209 -18 l 1,2,-1
 170 8 l 1,3,-1
 649 719 l 1,0,-1
277 678 m 1,4,5
 301 654 301 654 301 619.5 c 128,-1,6
 301 585 301 585 278.5 563.5 c 128,-1,7
 256 542 256 542 225 539 c 1,8,9
 263 532 263 532 290.5 506.5 c 128,-1,10
 318 481 318 481 318 434.5 c 128,-1,11
 318 388 318 388 291 353 c 0,12,13
 241 288 241 288 137 288 c 0,14,15
 82 288 82 288 31 309 c 1,16,-1
 32 314 l 1,17,18
 36 314 36 314 40 314 c 0,19,20
 110 314 110 314 159 347 c 128,-1,21
 208 380 208 380 208 443 c 0,22,23
 208 474 208 474 191 495 c 0,24,25
 162 531 162 531 99 532 c 1,26,-1
 100 538 l 2,27,28
 101 538 101 538 103 538 c 0,29,30
 143 538 143 538 169.5 563 c 128,-1,31
 196 588 196 588 196 623 c 256,32,33
 196 658 196 658 176.5 671.5 c 128,-1,34
 157 685 157 685 135 685 c 0,35,36
 95 685 95 685 80 661 c 128,-1,37
 65 637 65 637 65 592 c 0,38,39
 65 588 65 588 65 584 c 1,40,-1
 59 584 l 1,41,-1
 31 676 l 1,42,43
 73 713 73 713 156 713 c 128,-1,44
 239 713 239 713 277 678 c 1,4,5
733 6 m 2,45,-1
 739 6 l 1,46,-1
 739 0 l 1,47,-1
 552 0 l 1,48,-1
 552 6 l 1,49,-1
 558 6 l 2,50,51
 572 6 572 6 582 15 c 128,-1,52
 592 24 592 24 593 38 c 1,53,-1
 593 107 l 1,54,-1
 404 107 l 1,55,-1
 404 113 l 1,56,-1
 692 407 l 1,57,-1
 698 407 l 1,58,-1
 698 164 l 1,59,-1
 725 164 l 2,60,61
 752 164 752 164 764 186 c 1,62,-1
 770 186 l 1,63,-1
 752 107 l 1,64,-1
 698 107 l 1,65,-1
 698 39 l 2,66,67
 698 25 698 25 708.5 15.5 c 128,-1,68
 719 6 719 6 733 6 c 2,45,-1
593 164 m 1,69,-1
 593 261 l 1,70,-1
 497 164 l 1,71,-1
 593 164 l 1,69,-1
EndSplineSet
EndChar

StartChar: questiondown
Encoding: 191 191 127
Width: 487
GlyphClass: 2
Flags: W
LayerCount: 2
Fore
SplineSet
203 689 m 128,-1,1
 224 710 224 710 248.5 710 c 128,-1,2
 273 710 273 710 290 700 c 0,3,4
 327 680 327 680 326 638 c 1,5,6
 327 608 327 608 305.5 586.5 c 128,-1,7
 284 565 284 565 254 565 c 128,-1,8
 224 565 224 565 203 586.5 c 128,-1,9
 182 608 182 608 182 638 c 256,10,0
 182 668 182 668 203 689 c 128,-1,1
262 -14 m 0,11,12
 155 -14 155 -14 96.5 32 c 128,-1,13
 38 78 38 78 38 160 c 0,14,15
 38 196 38 196 54 229 c 128,-1,16
 70 262 70 262 89 282 c 128,-1,17
 108 302 108 302 143 335.5 c 128,-1,18
 178 369 178 369 194.5 387.5 c 128,-1,19
 211 406 211 406 217.5 414 c 128,-1,20
 224 422 224 422 231 437 c 0,21,22
 244 463 244 463 224 497 c 1,23,-1
 231 503 l 1,24,25
 310 468 310 468 310 399 c 0,26,27
 310 352 310 352 268 305 c 0,28,29
 251 287 251 287 235 267 c 0,30,31
 198 221 198 221 198 158 c 128,-1,32
 198 95 198 95 225 61.5 c 128,-1,33
 252 28 252 28 302.5 28 c 128,-1,34
 353 28 353 28 381.5 67 c 128,-1,35
 410 106 410 106 410 182 c 1,36,-1
 420 182 l 1,37,-1
 454 75 l 1,38,39
 431 34 431 34 380 10 c 128,-1,40
 329 -14 329 -14 262 -14 c 0,11,12
EndSplineSet
EndChar

StartChar: Agrave
Encoding: 192 192 128
Width: 716
GlyphClass: 2
Flags: W
LayerCount: 2
Fore
SplineSet
371 771 m 1,0,-1
 364 764 l 1,1,2
 264 788 264 788 159 854 c 1,3,4
 179 911 179 911 227 935 c 1,5,6
 329 844 329 844 371 771 c 1,0,-1
737 10 m 2,7,-1
 746 10 l 1,8,-1
 746 0 l 1,9,-1
 427 0 l 1,10,-1
 427 10 l 1,11,-1
 436 10 l 2,12,13
 458 10 458 10 468.5 23.5 c 128,-1,14
 479 37 479 37 479 49 c 128,-1,15
 479 61 479 61 474 73 c 2,16,-1
 425 196 l 1,17,-1
 191 196 l 1,18,-1
 139 73 l 2,19,20
 134 60 134 60 134 52 c 128,-1,21
 134 44 134 44 137.5 34.5 c 128,-1,22
 141 25 141 25 152.5 17.5 c 128,-1,23
 164 10 164 10 178 10 c 2,24,-1
 186 10 l 1,25,-1
 186 0 l 1,26,-1
 -28 0 l 1,27,-1
 -28 10 l 1,28,-1
 -19 10 l 2,29,30
 4 10 4 10 27 24 c 128,-1,31
 50 38 50 38 65 66 c 1,32,-1
 296 589 l 1,33,34
 343 688 343 688 346 720 c 1,35,-1
 355 720 l 1,36,-1
 652 68 l 1,37,38
 667 39 667 39 690 24.5 c 128,-1,39
 713 10 713 10 737 10 c 2,7,-1
208 238 m 1,40,-1
 408 238 l 1,41,-1
 311 484 l 1,42,-1
 208 238 l 1,40,-1
EndSplineSet
EndChar

StartChar: Aacute
Encoding: 193 193 129
Width: 716
GlyphClass: 2
Flags: W
LayerCount: 2
Fore
SplineSet
342 762 m 1,0,-1
 335 769 l 1,1,2
 378 843 378 843 478 933 c 1,3,4
 527 908 527 908 546 852 c 1,5,6
 443 787 443 787 342 762 c 1,0,-1
737 10 m 2,7,-1
 746 10 l 1,8,-1
 746 0 l 1,9,-1
 427 0 l 1,10,-1
 427 10 l 1,11,-1
 436 10 l 2,12,13
 458 10 458 10 468.5 23.5 c 128,-1,14
 479 37 479 37 479 49 c 128,-1,15
 479 61 479 61 474 73 c 2,16,-1
 425 196 l 1,17,-1
 191 196 l 1,18,-1
 139 73 l 2,19,20
 134 60 134 60 134 48.5 c 128,-1,21
 134 37 134 37 145 23.5 c 128,-1,22
 156 10 156 10 178 10 c 2,23,-1
 186 10 l 1,24,-1
 186 0 l 1,25,-1
 -28 0 l 1,26,-1
 -28 10 l 1,27,-1
 -19 10 l 2,28,29
 4 10 4 10 27 24 c 128,-1,30
 50 38 50 38 65 66 c 1,31,-1
 296 589 l 1,32,33
 343 688 343 688 346 720 c 1,34,-1
 355 720 l 1,35,-1
 652 68 l 1,36,37
 667 39 667 39 690 24.5 c 128,-1,38
 713 10 713 10 737 10 c 2,7,-1
208 238 m 1,39,-1
 408 238 l 1,40,-1
 311 484 l 1,41,-1
 208 238 l 1,39,-1
EndSplineSet
EndChar

StartChar: Acircumflex
Encoding: 194 194 130
Width: 716
GlyphClass: 2
Flags: W
LayerCount: 2
Fore
SplineSet
345 915 m 1,0,-1
 357 915 l 1,1,-1
 510 762 l 1,2,-1
 503 754 l 1,3,-1
 351 819 l 1,4,-1
 208 754 l 1,5,-1
 201 762 l 1,6,-1
 345 915 l 1,0,-1
737 10 m 2,7,-1
 746 10 l 1,8,-1
 746 0 l 1,9,-1
 427 0 l 1,10,-1
 427 10 l 1,11,-1
 436 10 l 2,12,13
 458 10 458 10 468.5 23.5 c 128,-1,14
 479 37 479 37 479 49 c 128,-1,15
 479 61 479 61 474 73 c 2,16,-1
 425 196 l 1,17,-1
 191 196 l 1,18,-1
 139 73 l 2,19,20
 134 60 134 60 134 52 c 128,-1,21
 134 44 134 44 137.5 34.5 c 128,-1,22
 141 25 141 25 152.5 17.5 c 128,-1,23
 164 10 164 10 178 10 c 2,24,-1
 186 10 l 1,25,-1
 186 0 l 1,26,-1
 -28 0 l 1,27,-1
 -28 10 l 1,28,-1
 -19 10 l 2,29,30
 4 10 4 10 27 24 c 128,-1,31
 50 38 50 38 65 66 c 1,32,-1
 296 589 l 1,33,34
 343 688 343 688 346 720 c 1,35,-1
 355 720 l 1,36,-1
 652 68 l 1,37,38
 667 39 667 39 690 24.5 c 128,-1,39
 713 10 713 10 737 10 c 2,7,-1
208 238 m 1,40,-1
 408 238 l 1,41,-1
 311 484 l 1,42,-1
 208 238 l 1,40,-1
EndSplineSet
EndChar

StartChar: Atilde
Encoding: 195 195 131
Width: 716
GlyphClass: 2
Flags: W
LayerCount: 2
Fore
SplineSet
520 889 m 1,0,-1
 531 889 l 1,1,2
 534 878 534 878 534 868 c 0,3,4
 534 837 534 837 514 806 c 0,5,6
 487 764 487 764 435 764 c 0,7,8
 405 764 405 764 359 787.5 c 128,-1,9
 313 811 313 811 299 813 c 128,-1,10
 285 815 285 815 272.5 815 c 128,-1,11
 260 815 260 815 240 801 c 128,-1,12
 220 787 220 787 212 767 c 1,13,-1
 201 767 l 1,14,15
 200 775 200 775 200 782 c 0,16,17
 200 820 200 820 223.5 859.5 c 128,-1,18
 247 899 247 899 297 899 c 0,19,20
 325 899 325 899 373.5 874 c 128,-1,21
 422 849 422 849 460 849 c 0,22,23
 473 849 473 849 493 861 c 128,-1,24
 513 873 513 873 520 889 c 1,0,-1
737 10 m 2,25,-1
 746 10 l 1,26,-1
 746 0 l 1,27,-1
 427 0 l 1,28,-1
 427 10 l 1,29,-1
 436 10 l 2,30,31
 458 10 458 10 468.5 23.5 c 128,-1,32
 479 37 479 37 479 49 c 128,-1,33
 479 61 479 61 474 73 c 2,34,-1
 425 196 l 1,35,-1
 191 196 l 1,36,-1
 139 73 l 2,37,38
 134 60 134 60 134 48.5 c 128,-1,39
 134 37 134 37 145 23.5 c 128,-1,40
 156 10 156 10 178 10 c 2,41,-1
 186 10 l 1,42,-1
 186 0 l 1,43,-1
 -28 0 l 1,44,-1
 -28 10 l 1,45,-1
 -19 10 l 2,46,47
 4 10 4 10 27 24 c 128,-1,48
 50 38 50 38 65 66 c 1,49,-1
 296 589 l 1,50,51
 343 688 343 688 346 720 c 1,52,-1
 355 720 l 1,53,-1
 652 68 l 1,54,55
 667 39 667 39 690 24.5 c 128,-1,56
 713 10 713 10 737 10 c 2,25,-1
208 238 m 1,57,-1
 408 238 l 1,58,-1
 311 484 l 1,59,-1
 208 238 l 1,57,-1
EndSplineSet
EndChar

StartChar: Adieresis
Encoding: 196 196 132
Width: 716
GlyphClass: 2
Flags: W
LayerCount: 2
Fore
SplineSet
233 759 m 128,-1,1
 208 759 208 759 190.5 776.5 c 128,-1,2
 173 794 173 794 173 819 c 128,-1,3
 173 844 173 844 190.5 861.5 c 128,-1,4
 208 879 208 879 233 879 c 128,-1,5
 258 879 258 879 275.5 861.5 c 128,-1,6
 293 844 293 844 293 819 c 128,-1,7
 293 794 293 794 275.5 776.5 c 128,-1,0
 258 759 258 759 233 759 c 128,-1,1
466.5 759 m 128,-1,9
 442 759 442 759 424 776.5 c 128,-1,10
 406 794 406 794 406 819 c 128,-1,11
 406 844 406 844 424 861.5 c 128,-1,12
 442 879 442 879 466.5 879 c 128,-1,13
 491 879 491 879 509 861.5 c 128,-1,14
 527 844 527 844 527 819 c 128,-1,15
 527 794 527 794 509 776.5 c 128,-1,8
 491 759 491 759 466.5 759 c 128,-1,9
737 10 m 2,16,-1
 746 10 l 1,17,-1
 746 0 l 1,18,-1
 427 0 l 1,19,-1
 427 10 l 1,20,-1
 436 10 l 2,21,22
 458 10 458 10 468.5 23.5 c 128,-1,23
 479 37 479 37 479 49 c 128,-1,24
 479 61 479 61 474 73 c 2,25,-1
 425 196 l 1,26,-1
 191 196 l 1,27,-1
 139 73 l 2,28,29
 134 60 134 60 134 48.5 c 128,-1,30
 134 37 134 37 144.5 23.5 c 128,-1,31
 155 10 155 10 178 10 c 2,32,-1
 186 10 l 1,33,-1
 186 0 l 1,34,-1
 -28 0 l 1,35,-1
 -28 10 l 1,36,-1
 -19 10 l 2,37,38
 4 10 4 10 27 24 c 128,-1,39
 50 38 50 38 65 66 c 1,40,-1
 296 589 l 1,41,42
 343 688 343 688 346 720 c 1,43,-1
 355 720 l 1,44,-1
 652 68 l 1,45,46
 667 39 667 39 690 24.5 c 128,-1,47
 713 10 713 10 737 10 c 2,16,-1
208 238 m 1,48,-1
 408 238 l 1,49,-1
 311 484 l 1,50,-1
 208 238 l 1,48,-1
EndSplineSet
EndChar

StartChar: Aring
Encoding: 197 197 133
Width: 716
GlyphClass: 2
Flags: W
LayerCount: 2
Fore
SplineSet
737 10 m 2,0,-1
 746 10 l 1,1,-1
 746 0 l 1,2,-1
 427 0 l 1,3,-1
 427 10 l 1,4,-1
 436 10 l 2,5,6
 458 10 458 10 468.5 23.5 c 128,-1,7
 479 37 479 37 479 48.5 c 128,-1,8
 479 60 479 60 474 73 c 2,9,-1
 424 196 l 1,10,-1
 191 196 l 1,11,-1
 139 73 l 2,12,13
 134 60 134 60 134 48.5 c 128,-1,14
 134 37 134 37 145 23.5 c 128,-1,15
 156 10 156 10 178 10 c 2,16,-1
 186 10 l 1,17,-1
 186 0 l 1,18,-1
 -28 0 l 1,19,-1
 -28 10 l 1,20,-1
 -19 10 l 2,21,22
 5 10 5 10 29 25.5 c 128,-1,23
 53 41 53 41 67 71 c 2,24,-1
 296 583 l 1,25,26
 331 656 331 656 342 697 c 1,27,28
 306 699 306 699 281.5 719 c 128,-1,29
 257 739 257 739 257 769.5 c 128,-1,30
 257 800 257 800 284 820.5 c 128,-1,31
 311 841 311 841 351 841 c 128,-1,32
 391 841 391 841 417.5 821.5 c 128,-1,33
 444 802 444 802 444 771 c 128,-1,34
 444 740 444 740 420.5 720 c 128,-1,35
 397 700 397 700 362 697 c 1,36,-1
 649 73 l 1,37,38
 665 41 665 41 688.5 25.5 c 128,-1,39
 712 10 712 10 737 10 c 2,0,-1
319.5 806.5 m 128,-1,41
 307 792 307 792 307 769 c 128,-1,42
 307 746 307 746 319.5 731 c 128,-1,43
 332 716 332 716 350.5 716 c 128,-1,44
 369 716 369 716 381.5 731 c 128,-1,45
 394 746 394 746 394 765 c 128,-1,46
 394 784 394 784 389 796 c 0,47,48
 377 821 377 821 354.5 821 c 128,-1,40
 332 821 332 821 319.5 806.5 c 128,-1,41
209 238 m 1,49,-1
 407 238 l 1,50,-1
 310 479 l 1,51,-1
 209 238 l 1,49,-1
EndSplineSet
EndChar

StartChar: AE
Encoding: 198 198 134
Width: 971
GlyphClass: 2
Flags: W
LayerCount: 2
Fore
SplineSet
416 10 m 2,0,1
 436 10 436 10 450.5 24 c 128,-1,2
 465 38 465 38 466 58 c 1,3,-1
 466 318 l 1,4,-1
 306 318 l 1,5,-1
 156 71 l 2,6,7
 148 56 148 56 148 45.5 c 128,-1,8
 148 35 148 35 154 27 c 0,9,10
 166 10 166 10 188 10 c 0,11,12
 189 10 189 10 189 10 c 1,13,-1
 199 10 l 1,14,-1
 199 0 l 1,15,-1
 -24 0 l 1,16,-1
 -24 10 l 1,17,-1
 -16 10 l 2,18,19
 31 10 31 10 72 70 c 2,20,-1
 457 647 l 2,21,22
 463 657 463 657 463 664.5 c 128,-1,23
 463 672 463 672 460 677 c 0,24,25
 453 690 453 690 435 690 c 2,26,-1
 431 690 l 1,27,-1
 431 700 l 1,28,-1
 766 700 l 2,29,30
 797 700 797 700 834 706 c 128,-1,31
 871 712 871 712 885 718 c 1,32,-1
 885 549 l 1,33,-1
 875 549 l 1,34,-1
 875 559 l 2,35,36
 875 603 875 603 849.5 629.5 c 128,-1,37
 824 656 824 656 780 657 c 1,38,-1
 616 657 l 1,39,-1
 616 361 l 1,40,-1
 744 361 l 1,41,42
 780 362 780 362 803.5 386 c 128,-1,43
 827 410 827 410 827 446 c 2,44,-1
 827 455 l 1,45,-1
 837 455 l 1,46,-1
 837 224 l 1,47,-1
 827 224 l 1,48,-1
 827 233 l 2,49,50
 827 282 827 282 787 306 c 0,51,52
 769 317 769 317 746 318 c 1,53,-1
 616 318 l 1,54,-1
 616 43 l 1,55,-1
 749 43 l 2,56,57
 839 43 839 43 894 114 c 0,58,59
 920 148 920 148 935 195 c 1,60,-1
 945 195 l 1,61,-1
 900 0 l 1,62,-1
 406 0 l 1,63,-1
 407 10 l 1,64,-1
 416 10 l 2,0,1
466 360 m 1,65,-1
 466 581 l 1,66,-1
 332 360 l 1,67,-1
 466 360 l 1,65,-1
EndSplineSet
EndChar

StartChar: Ccedilla
Encoding: 199 199 135
Width: 780
GlyphClass: 2
Flags: W
LayerCount: 2
Fore
SplineSet
411 -57 m 1,0,1
 426 -52 426 -52 445 -52 c 0,2,3
 493 -52 493 -52 513 -78 c 0,4,5
 525 -92 525 -92 525 -114 c 0,6,7
 525 -167 525 -167 468 -194 c 0,8,9
 437 -208 437 -208 409 -208 c 128,-1,10
 381 -208 381 -208 355 -199 c 1,11,-1
 356 -189 l 1,12,13
 392 -189 392 -189 423 -170.5 c 128,-1,14
 454 -152 454 -152 454 -114 c 0,15,16
 454 -96 454 -96 439 -85 c 128,-1,17
 424 -74 424 -74 403 -74 c 128,-1,18
 382 -74 382 -74 362 -81 c 1,19,-1
 357 -71 l 1,20,-1
 403 -12 l 1,21,22
 237 1 237 1 141 97 c 128,-1,23
 45 193 45 193 45 356 c 128,-1,24
 45 519 45 519 154 616.5 c 128,-1,25
 263 714 263 714 453 714 c 0,26,27
 598 714 598 714 702 660 c 1,28,-1
 704 488 l 1,29,-1
 696 488 l 1,30,31
 645 672 645 672 463 672 c 0,32,33
 345 672 345 672 276.5 586.5 c 128,-1,34
 208 501 208 501 208 353 c 128,-1,35
 208 205 208 205 273.5 118 c 128,-1,36
 339 31 339 31 451 28 c 1,37,38
 567 28 567 28 628 86 c 0,39,40
 690 146 690 146 714 292 c 1,41,-1
 722 292 l 1,42,-1
 732 120 l 1,43,44
 651 -14 651 -14 449 -14 c 1,45,-1
 411 -57 l 1,0,1
EndSplineSet
EndChar

StartChar: Egrave
Encoding: 200 200 136
Width: 631
GlyphClass: 2
Flags: W
LayerCount: 2
Fore
SplineSet
342 771 m 1,0,-1
 335 764 l 1,1,2
 235 788 235 788 131 854 c 1,3,4
 150 911 150 911 198 935 c 1,5,6
 300 844 300 844 342 771 c 1,0,-1
55 10 m 2,7,8
 81 10 81 10 99.5 28.5 c 128,-1,9
 118 47 118 47 119 73 c 1,10,-1
 119 630 l 1,11,12
 117 655 117 655 104 668 c 0,13,14
 80 690 80 690 55 690 c 2,15,-1
 42 690 l 1,16,-1
 42 700 l 1,17,-1
 425 700 l 2,18,19
 456 700 456 700 493 706 c 128,-1,20
 530 712 530 712 545 718 c 1,21,-1
 545 543 l 1,22,-1
 535 543 l 1,23,-1
 535 555 l 2,24,25
 535 617 535 617 489 643 c 0,26,27
 467 656 467 656 437 657 c 1,28,-1
 269 657 l 1,29,-1
 269 366 l 1,30,-1
 401 366 l 1,31,32
 438 367 438 367 462 391.5 c 128,-1,33
 486 416 486 416 486 452 c 2,34,-1
 486 461 l 1,35,-1
 496 461 l 1,36,-1
 496 230 l 1,37,-1
 486 230 l 1,38,-1
 486 238 l 2,39,40
 486 288 486 288 446 312 c 0,41,42
 426 323 426 323 403 324 c 1,43,-1
 269 324 l 1,44,-1
 269 43 l 1,45,-1
 400 43 l 2,46,47
 473 43 473 43 522.5 85 c 128,-1,48
 572 127 572 127 596 204 c 1,49,-1
 606 204 l 1,50,-1
 560 0 l 1,51,-1
 42 0 l 1,52,-1
 42 10 l 1,53,-1
 55 10 l 2,7,8
EndSplineSet
EndChar

StartChar: Eacute
Encoding: 201 201 137
Width: 631
GlyphClass: 2
Flags: W
LayerCount: 2
Fore
SplineSet
313 762 m 1,0,-1
 306 769 l 1,1,2
 349 843 349 843 450 933 c 1,3,4
 498 908 498 908 517 852 c 1,5,6
 415 787 415 787 313 762 c 1,0,-1
55 10 m 2,7,8
 81 10 81 10 99.5 28.5 c 128,-1,9
 118 47 118 47 119 73 c 1,10,-1
 119 630 l 1,11,12
 117 656 117 656 104 668 c 0,13,14
 80 690 80 690 55 690 c 2,15,-1
 42 690 l 1,16,-1
 42 700 l 1,17,-1
 425 700 l 2,18,19
 456 700 456 700 493 706 c 128,-1,20
 530 712 530 712 545 718 c 1,21,-1
 545 543 l 1,22,-1
 535 544 l 1,23,-1
 535 555 l 2,24,25
 535 617 535 617 489 643 c 0,26,27
 467 656 467 656 437 657 c 1,28,-1
 269 657 l 1,29,-1
 269 366 l 1,30,-1
 401 366 l 1,31,32
 438 367 438 367 462 391.5 c 128,-1,33
 486 416 486 416 486 452 c 2,34,-1
 486 461 l 1,35,-1
 496 461 l 1,36,-1
 496 230 l 1,37,-1
 486 230 l 1,38,-1
 486 238 l 2,39,40
 486 275 486 275 462.5 299 c 128,-1,41
 439 323 439 323 403 324 c 1,42,-1
 269 324 l 1,43,-1
 269 43 l 1,44,-1
 400 43 l 2,45,46
 473 43 473 43 522.5 85 c 128,-1,47
 572 127 572 127 596 204 c 1,48,-1
 606 204 l 1,49,-1
 560 0 l 1,50,-1
 42 0 l 1,51,-1
 42 10 l 1,52,-1
 55 10 l 2,7,8
EndSplineSet
EndChar

StartChar: Ecircumflex
Encoding: 202 202 138
Width: 631
GlyphClass: 2
Flags: W
LayerCount: 2
Fore
SplineSet
317 915 m 1,0,-1
 328 915 l 1,1,-1
 481 762 l 1,2,-1
 474 754 l 1,3,-1
 322 819 l 1,4,-1
 179 754 l 1,5,-1
 172 762 l 1,6,-1
 317 915 l 1,0,-1
55 10 m 2,7,8
 81 10 81 10 99.5 28.5 c 128,-1,9
 118 47 118 47 119 73 c 1,10,-1
 119 630 l 1,11,12
 117 655 117 655 104 668 c 0,13,14
 80 690 80 690 55 690 c 2,15,-1
 42 690 l 1,16,-1
 42 700 l 1,17,-1
 425 700 l 2,18,19
 456 700 456 700 493 706 c 128,-1,20
 530 712 530 712 545 718 c 1,21,-1
 545 543 l 1,22,-1
 535 544 l 1,23,-1
 535 555 l 2,24,25
 535 600 535 600 508.5 627.5 c 128,-1,26
 482 655 482 655 437 657 c 1,27,-1
 269 657 l 1,28,-1
 269 366 l 1,29,-1
 401 366 l 1,30,31
 438 367 438 367 462 391.5 c 128,-1,32
 486 416 486 416 486 452 c 2,33,-1
 486 461 l 1,34,-1
 496 461 l 1,35,-1
 496 230 l 1,36,-1
 486 230 l 1,37,-1
 486 238 l 2,38,39
 486 275 486 275 462.5 299 c 128,-1,40
 439 323 439 323 403 324 c 1,41,-1
 269 324 l 1,42,-1
 269 43 l 1,43,-1
 400 43 l 2,44,45
 473 43 473 43 522.5 85 c 128,-1,46
 572 127 572 127 596 204 c 1,47,-1
 606 204 l 1,48,-1
 560 0 l 1,49,-1
 42 0 l 1,50,-1
 42 10 l 1,51,-1
 55 10 l 2,7,8
EndSplineSet
EndChar

StartChar: Edieresis
Encoding: 203 203 139
Width: 631
GlyphClass: 2
Flags: W
LayerCount: 2
Fore
SplineSet
204 759 m 128,-1,1
 179 759 179 759 161.5 776.5 c 128,-1,2
 144 794 144 794 144 819 c 128,-1,3
 144 844 144 844 161.5 861.5 c 128,-1,4
 179 879 179 879 204 879 c 128,-1,5
 229 879 229 879 246.5 861.5 c 128,-1,6
 264 844 264 844 264 819 c 128,-1,7
 264 794 264 794 246.5 776.5 c 128,-1,0
 229 759 229 759 204 759 c 128,-1,1
437.5 759 m 128,-1,9
 413 759 413 759 395.5 776.5 c 128,-1,10
 378 794 378 794 378 819 c 128,-1,11
 378 844 378 844 395.5 861.5 c 128,-1,12
 413 879 413 879 437.5 879 c 128,-1,13
 462 879 462 879 480 861.5 c 128,-1,14
 498 844 498 844 498 819 c 128,-1,15
 498 794 498 794 480 776.5 c 128,-1,8
 462 759 462 759 437.5 759 c 128,-1,9
55 10 m 2,16,17
 81 10 81 10 99.5 28.5 c 128,-1,18
 118 47 118 47 119 73 c 1,19,-1
 119 630 l 1,20,21
 117 656 117 656 104 668 c 0,22,23
 80 690 80 690 55 690 c 2,24,-1
 42 690 l 1,25,-1
 42 700 l 1,26,-1
 425 700 l 2,27,28
 474 700 474 700 506 707.5 c 128,-1,29
 538 715 538 715 545 718 c 1,30,-1
 545 543 l 1,31,-1
 535 544 l 1,32,-1
 535 555 l 2,33,34
 535 617 535 617 489 643 c 0,35,36
 467 656 467 656 437 657 c 1,37,-1
 269 657 l 1,38,-1
 269 366 l 1,39,-1
 401 366 l 1,40,41
 438 367 438 367 462 391.5 c 128,-1,42
 486 416 486 416 486 452 c 2,43,-1
 486 461 l 1,44,-1
 496 461 l 1,45,-1
 496 230 l 1,46,-1
 486 230 l 1,47,-1
 486 238 l 2,48,49
 486 288 486 288 446 312 c 0,50,51
 426 323 426 323 403 324 c 1,52,-1
 269 324 l 1,53,-1
 269 43 l 1,54,-1
 400 43 l 2,55,56
 473 43 473 43 522.5 85 c 128,-1,57
 572 127 572 127 596 204 c 1,58,-1
 606 204 l 1,59,-1
 560 0 l 1,60,-1
 42 0 l 1,61,-1
 42 10 l 1,62,-1
 55 10 l 2,16,17
EndSplineSet
EndChar

StartChar: Igrave
Encoding: 204 204 140
Width: 386
GlyphClass: 2
Flags: W
LayerCount: 2
Fore
SplineSet
218 771 m 1,0,-1
 211 764 l 1,1,2
 111 788 111 788 7 854 c 1,3,4
 26 911 26 911 74 935 c 1,5,6
 176 844 176 844 218 771 c 1,0,-1
55 10 m 2,7,8
 81 10 81 10 99.5 28.5 c 128,-1,9
 118 47 118 47 119 73 c 1,10,-1
 119 628 l 1,11,12
 118 654 118 654 99.5 672 c 128,-1,13
 81 690 81 690 55 690 c 2,14,-1
 42 690 l 1,15,-1
 42 700 l 1,16,-1
 346 700 l 1,17,-1
 345 690 l 1,18,-1
 333 690 l 2,19,20
 307 690 307 690 288 672 c 128,-1,21
 269 654 269 654 269 628 c 2,22,-1
 269 73 l 2,23,24
 269 47 269 47 288 28.5 c 128,-1,25
 307 10 307 10 333 10 c 2,26,-1
 345 10 l 1,27,-1
 346 0 l 1,28,-1
 42 0 l 1,29,-1
 42 10 l 1,30,-1
 55 10 l 2,7,8
EndSplineSet
EndChar

StartChar: Iacute
Encoding: 205 205 141
Width: 386
GlyphClass: 2
Flags: W
LayerCount: 2
Fore
SplineSet
183 762 m 1,0,-1
 176 769 l 1,1,2
 219 843 219 843 319 933 c 1,3,4
 368 908 368 908 387 852 c 1,5,6
 285 787 285 787 183 762 c 1,0,-1
55 10 m 2,7,8
 81 10 81 10 99.5 28.5 c 128,-1,9
 118 47 118 47 119 73 c 1,10,-1
 119 628 l 1,11,12
 118 654 118 654 99.5 672 c 128,-1,13
 81 690 81 690 55 690 c 2,14,-1
 42 690 l 1,15,-1
 42 700 l 1,16,-1
 346 700 l 1,17,-1
 345 690 l 1,18,-1
 333 690 l 2,19,20
 307 690 307 690 288 672 c 128,-1,21
 269 654 269 654 269 628 c 2,22,-1
 269 73 l 2,23,24
 269 47 269 47 288 28.5 c 128,-1,25
 307 10 307 10 333 10 c 2,26,-1
 345 10 l 1,27,-1
 346 0 l 1,28,-1
 42 0 l 1,29,-1
 42 10 l 1,30,-1
 55 10 l 2,7,8
EndSplineSet
EndChar

StartChar: Icircumflex
Encoding: 206 206 142
Width: 386
GlyphClass: 2
Flags: W
LayerCount: 2
Fore
SplineSet
187 915 m 1,0,-1
 198 915 l 1,1,-1
 351 762 l 1,2,-1
 344 754 l 1,3,-1
 192 819 l 1,4,-1
 49 754 l 1,5,-1
 42 762 l 1,6,-1
 187 915 l 1,0,-1
55 10 m 2,7,8
 81 10 81 10 99.5 28.5 c 128,-1,9
 118 47 118 47 119 73 c 1,10,-1
 119 628 l 1,11,12
 118 654 118 654 99.5 672 c 128,-1,13
 81 690 81 690 55 690 c 2,14,-1
 42 690 l 1,15,-1
 42 700 l 1,16,-1
 346 700 l 1,17,-1
 345 690 l 1,18,-1
 333 690 l 2,19,20
 307 690 307 690 288 672 c 128,-1,21
 269 654 269 654 269 628 c 2,22,-1
 269 73 l 2,23,24
 269 47 269 47 288 28.5 c 128,-1,25
 307 10 307 10 333 10 c 2,26,-1
 345 10 l 1,27,-1
 346 0 l 1,28,-1
 42 0 l 1,29,-1
 42 10 l 1,30,-1
 55 10 l 2,7,8
EndSplineSet
EndChar

StartChar: Idieresis
Encoding: 207 207 143
Width: 386
GlyphClass: 2
Flags: W
LayerCount: 2
Fore
SplineSet
74 759 m 128,-1,1
 49 759 49 759 31.5 776.5 c 128,-1,2
 14 794 14 794 14 819 c 128,-1,3
 14 844 14 844 31.5 861.5 c 128,-1,4
 49 879 49 879 74 879 c 128,-1,5
 99 879 99 879 116.5 861.5 c 128,-1,6
 134 844 134 844 134 819 c 128,-1,7
 134 794 134 794 116.5 776.5 c 128,-1,0
 99 759 99 759 74 759 c 128,-1,1
307.5 759 m 128,-1,9
 283 759 283 759 265 776.5 c 128,-1,10
 247 794 247 794 247 819 c 128,-1,11
 247 844 247 844 265 861.5 c 128,-1,12
 283 879 283 879 307.5 879 c 128,-1,13
 332 879 332 879 350 861.5 c 128,-1,14
 368 844 368 844 368 819 c 128,-1,15
 368 794 368 794 350 776.5 c 128,-1,8
 332 759 332 759 307.5 759 c 128,-1,9
55 10 m 2,16,17
 81 10 81 10 99.5 28.5 c 128,-1,18
 118 47 118 47 119 73 c 1,19,-1
 119 628 l 1,20,21
 118 654 118 654 99.5 672 c 128,-1,22
 81 690 81 690 55 690 c 2,23,-1
 42 690 l 1,24,-1
 42 700 l 1,25,-1
 346 700 l 1,26,-1
 345 690 l 1,27,-1
 333 690 l 2,28,29
 307 690 307 690 288 672 c 128,-1,30
 269 654 269 654 269 628 c 2,31,-1
 269 73 l 2,32,33
 269 47 269 47 288 28.5 c 128,-1,34
 307 10 307 10 333 10 c 2,35,-1
 345 10 l 1,36,-1
 346 0 l 1,37,-1
 42 0 l 1,38,-1
 42 10 l 1,39,-1
 55 10 l 2,16,17
EndSplineSet
EndChar

StartChar: Eth
Encoding: 208 208 144
Width: 828
GlyphClass: 2
Flags: W
LayerCount: 2
Fore
SplineSet
686 606 m 128,-1,1
 788 512 788 512 788 350 c 128,-1,2
 788 188 788 188 686 94 c 128,-1,3
 584 0 584 0 407 0 c 2,4,-1
 44 0 l 1,5,-1
 44 10 l 1,6,-1
 57 10 l 2,7,8
 83 10 83 10 101.5 28.5 c 128,-1,9
 120 47 120 47 121 73 c 1,10,-1
 121 329 l 1,11,-1
 42 329 l 1,12,-1
 42 371 l 1,13,-1
 121 371 l 1,14,-1
 121 633 l 2,15,16
 121 657 121 657 101.5 673.5 c 128,-1,17
 82 690 82 690 57 690 c 2,18,-1
 44 690 l 1,19,-1
 44 700 l 1,20,-1
 407 700 l 2,21,0
 584 700 584 700 686 606 c 128,-1,1
271 329 m 1,22,-1
 271 42 l 1,23,-1
 394 42 l 2,24,25
 502 42 502 42 566 125 c 128,-1,26
 630 208 630 208 630 350 c 128,-1,27
 630 492 630 492 566 575 c 128,-1,28
 502 658 502 658 394 658 c 2,29,-1
 271 658 l 1,30,-1
 271 371 l 1,31,-1
 400 371 l 1,32,-1
 400 329 l 1,33,-1
 271 329 l 1,22,-1
EndSplineSet
EndChar

StartChar: Ntilde
Encoding: 209 209 145
Width: 865
GlyphClass: 2
Flags: W
LayerCount: 2
Fore
SplineSet
585 889 m 1,0,-1
 597 889 l 1,1,2
 599 878 599 878 599 868 c 0,3,4
 599 837 599 837 579 806 c 0,5,6
 552 764 552 764 500 764 c 0,7,8
 477 764 477 764 452 775 c 128,-1,9
 427 786 427 786 401.5 799 c 128,-1,10
 376 812 376 812 363 813.5 c 128,-1,11
 350 815 350 815 337.5 815 c 128,-1,12
 325 815 325 815 305.5 801 c 128,-1,13
 286 787 286 787 278 767 c 1,14,-1
 266 767 l 1,15,16
 265 775 265 775 265 782 c 0,17,18
 265 820 265 820 289 859.5 c 128,-1,19
 313 899 313 899 363 899 c 0,20,21
 390 899 390 899 438.5 874 c 128,-1,22
 487 849 487 849 521 849 c 0,23,24
 530 849 530 849 545 855 c 0,25,26
 576 866 576 866 585 889 c 1,0,-1
817 690 m 2,27,28
 792 690 792 690 774 672.5 c 128,-1,29
 756 655 756 655 755 630 c 1,30,-1
 755 114 l 2,31,32
 755 47 755 47 764 1 c 2,33,-1
 767 -14 l 1,34,-1
 758 -14 l 1,35,-1
 253 467 l 1,36,-1
 253 70 l 2,37,38
 253 35 253 35 284 18 c 0,39,40
 298 10 298 10 314 10 c 2,41,-1
 333 10 l 1,42,-1
 333 0 l 1,43,-1
 30 0 l 1,44,-1
 30 10 l 1,45,-1
 48 10 l 2,46,47
 74 10 74 10 92 27.5 c 128,-1,48
 110 45 110 45 110 71 c 2,49,-1
 110 590 l 2,50,51
 110 656 110 656 101 700 c 1,52,-1
 99 715 l 1,53,-1
 108 715 l 1,54,-1
 613 234 l 1,55,-1
 613 629 l 1,56,57
 612 655 612 655 594 672.5 c 128,-1,58
 576 690 576 690 551 690 c 2,59,-1
 533 690 l 1,60,-1
 533 700 l 1,61,-1
 836 700 l 1,62,-1
 836 690 l 1,63,-1
 817 690 l 2,27,28
EndSplineSet
EndChar

StartChar: Ograve
Encoding: 210 210 146
Width: 878
GlyphClass: 2
Flags: W
LayerCount: 2
Fore
SplineSet
457 779 m 1,0,-1
 450 772 l 1,1,2
 350 796 350 796 246 862 c 1,3,4
 265 919 265 919 313 944 c 1,5,6
 415 853 415 853 457 779 c 1,0,-1
438.5 714 m 128,-1,8
 619 714 619 714 725.5 616 c 128,-1,9
 832 518 832 518 832 350 c 128,-1,10
 832 182 832 182 725.5 84 c 128,-1,11
 619 -14 619 -14 438.5 -14 c 128,-1,12
 258 -14 258 -14 151.5 84 c 128,-1,13
 45 182 45 182 45 350 c 128,-1,14
 45 518 45 518 151.5 616 c 128,-1,7
 258 714 258 714 438.5 714 c 128,-1,8
438.5 28 m 128,-1,16
 547 28 547 28 609 114.5 c 128,-1,17
 671 201 671 201 671 350 c 0,18,19
 671 449 671 449 643 521.5 c 128,-1,20
 615 594 615 594 562.5 633 c 128,-1,21
 510 672 510 672 438 672 c 0,22,23
 330 672 330 672 268 585.5 c 128,-1,24
 206 499 206 499 206 350 c 128,-1,25
 206 201 206 201 268 114.5 c 128,-1,15
 330 28 330 28 438.5 28 c 128,-1,16
EndSplineSet
EndChar

StartChar: Oacute
Encoding: 211 211 147
Width: 878
GlyphClass: 2
Flags: W
LayerCount: 2
Fore
SplineSet
432 771 m 1,0,-1
 425 778 l 1,1,2
 468 852 468 852 569 942 c 1,3,4
 617 917 617 917 636 861 c 1,5,6
 534 795 534 795 432 771 c 1,0,-1
442.5 714 m 128,-1,8
 623 714 623 714 729.5 616 c 128,-1,9
 836 518 836 518 836 350 c 128,-1,10
 836 182 836 182 729.5 84 c 128,-1,11
 623 -14 623 -14 442.5 -14 c 128,-1,12
 262 -14 262 -14 155.5 84 c 128,-1,13
 49 182 49 182 49 350 c 128,-1,14
 49 518 49 518 155.5 616 c 128,-1,7
 262 714 262 714 442.5 714 c 128,-1,8
442 28 m 128,-1,16
 548 28 548 28 610 114.5 c 128,-1,17
 672 201 672 201 672 350 c 128,-1,18
 672 499 672 499 610 585.5 c 128,-1,19
 548 672 548 672 442 672 c 128,-1,20
 336 672 336 672 274.5 585.5 c 128,-1,21
 213 499 213 499 213 350 c 128,-1,22
 213 201 213 201 274.5 114.5 c 128,-1,15
 336 28 336 28 442 28 c 128,-1,16
EndSplineSet
EndChar

StartChar: Ocircumflex
Encoding: 212 212 148
Width: 878
GlyphClass: 2
Flags: W
LayerCount: 2
Fore
SplineSet
436 924 m 1,0,-1
 447 924 l 1,1,-1
 600 770 l 1,2,-1
 593 762 l 1,3,-1
 441 828 l 1,4,-1
 298 763 l 1,5,-1
 291 771 l 1,6,-1
 436 924 l 1,0,-1
442 714 m 0,7,8
 562 714 562 714 650.5 670 c 128,-1,9
 739 626 739 626 787.5 543.5 c 128,-1,10
 836 461 836 461 836 350 c 0,11,12
 836 182 836 182 729.5 84 c 128,-1,13
 623 -14 623 -14 442.5 -14 c 128,-1,14
 262 -14 262 -14 155.5 84 c 128,-1,15
 49 182 49 182 49 350 c 128,-1,16
 49 518 49 518 155.5 616 c 128,-1,17
 262 714 262 714 442 714 c 0,7,8
442 28 m 128,-1,19
 548 28 548 28 610 114.5 c 128,-1,20
 672 201 672 201 672 350 c 128,-1,21
 672 499 672 499 610 585.5 c 128,-1,22
 548 672 548 672 442 672 c 128,-1,23
 336 672 336 672 274.5 585.5 c 128,-1,24
 213 499 213 499 213 350 c 128,-1,25
 213 201 213 201 274.5 114.5 c 128,-1,18
 336 28 336 28 442 28 c 128,-1,19
EndSplineSet
EndChar

StartChar: Otilde
Encoding: 213 213 149
Width: 878
GlyphClass: 2
Flags: W
LayerCount: 2
Fore
SplineSet
290 791 m 0,0,1
 290 829 290 829 313.5 868 c 128,-1,2
 337 907 337 907 387 907 c 0,3,4
 415 907 415 907 460 884 c 128,-1,5
 505 861 505 861 526 859 c 128,-1,6
 547 857 547 857 560 860 c 0,7,8
 598 869 598 869 610 898 c 1,9,-1
 621 898 l 1,10,11
 624 887 624 887 624 876 c 0,12,13
 624 846 624 846 604 814 c 0,14,15
 577 773 577 773 525 773 c 0,16,17
 496 773 496 773 449.5 796.5 c 128,-1,18
 403 820 403 820 389 821.5 c 128,-1,19
 375 823 375 823 362.5 823 c 128,-1,20
 350 823 350 823 330.5 809.5 c 128,-1,21
 311 796 311 796 302 776 c 1,22,-1
 291 776 l 1,23,24
 290 783 290 783 290 791 c 0,0,1
442.5 714 m 128,-1,26
 623 714 623 714 729.5 616 c 128,-1,27
 836 518 836 518 836 350 c 128,-1,28
 836 182 836 182 729.5 84 c 128,-1,29
 623 -14 623 -14 442.5 -14 c 128,-1,30
 262 -14 262 -14 155.5 84 c 128,-1,31
 49 182 49 182 49 350 c 128,-1,32
 49 518 49 518 155.5 616 c 128,-1,25
 262 714 262 714 442.5 714 c 128,-1,26
442 28 m 128,-1,34
 548 28 548 28 610 114.5 c 128,-1,35
 672 201 672 201 672 350 c 128,-1,36
 672 499 672 499 610 585.5 c 128,-1,37
 548 672 548 672 442 672 c 128,-1,38
 336 672 336 672 274.5 585.5 c 128,-1,39
 213 499 213 499 213 350 c 128,-1,40
 213 201 213 201 274.5 114.5 c 128,-1,33
 336 28 336 28 442 28 c 128,-1,34
EndSplineSet
EndChar

StartChar: Odieresis
Encoding: 214 214 150
Width: 878
GlyphClass: 2
Flags: W
LayerCount: 2
Fore
SplineSet
323 767 m 128,-1,1
 298 767 298 767 280.5 785 c 128,-1,2
 263 803 263 803 263 827.5 c 128,-1,3
 263 852 263 852 280.5 870 c 128,-1,4
 298 888 298 888 323 888 c 128,-1,5
 348 888 348 888 365.5 870 c 128,-1,6
 383 852 383 852 383 827.5 c 128,-1,7
 383 803 383 803 365.5 785 c 128,-1,0
 348 767 348 767 323 767 c 128,-1,1
556.5 767 m 128,-1,9
 532 767 532 767 514 785 c 128,-1,10
 496 803 496 803 496 827.5 c 128,-1,11
 496 852 496 852 514 870 c 128,-1,12
 532 888 532 888 556.5 888 c 128,-1,13
 581 888 581 888 599 870 c 128,-1,14
 617 852 617 852 617 827.5 c 128,-1,15
 617 803 617 803 599 785 c 128,-1,8
 581 767 581 767 556.5 767 c 128,-1,9
442.5 714 m 128,-1,17
 623 714 623 714 729.5 616 c 128,-1,18
 836 518 836 518 836 350 c 128,-1,19
 836 182 836 182 729.5 84 c 128,-1,20
 623 -14 623 -14 442.5 -14 c 128,-1,21
 262 -14 262 -14 155.5 84 c 128,-1,22
 49 182 49 182 49 350 c 128,-1,23
 49 518 49 518 155.5 616 c 128,-1,16
 262 714 262 714 442.5 714 c 128,-1,17
442 28 m 128,-1,25
 548 28 548 28 610 114.5 c 128,-1,26
 672 201 672 201 672 350 c 128,-1,27
 672 499 672 499 610 585.5 c 128,-1,28
 548 672 548 672 442 672 c 128,-1,29
 336 672 336 672 274.5 585.5 c 128,-1,30
 213 499 213 499 213 350 c 128,-1,31
 213 201 213 201 274.5 114.5 c 128,-1,24
 336 28 336 28 442 28 c 128,-1,25
EndSplineSet
EndChar

StartChar: multiply
Encoding: 215 215 151
Width: 411
GlyphClass: 2
Flags: W
LayerCount: 2
Fore
SplineSet
368 432 m 1,0,-1
 247 310 l 1,1,-1
 368 188 l 1,2,-1
 328 148 l 1,3,-1
 206 269 l 1,4,-1
 84 148 l 1,5,-1
 44 188 l 1,6,-1
 166 310 l 1,7,-1
 44 432 l 1,8,-1
 84 472 l 1,9,-1
 206 350 l 1,10,-1
 328 472 l 1,11,-1
 368 432 l 1,0,-1
EndSplineSet
EndChar

StartChar: Oslash
Encoding: 216 216 152
Width: 874
GlyphClass: 2
Flags: W
LayerCount: 2
Fore
SplineSet
828 350 m 0,0,1
 828 182 828 182 722.5 84 c 128,-1,2
 617 -14 617 -14 436 -14 c 0,3,4
 297 -14 297 -14 200 46 c 1,5,-1
 141 -23 l 1,6,-1
 105 8 l 1,7,-1
 161 74 l 1,8,9
 45 173 45 173 45 350 c 0,10,11
 45 461 45 461 92.5 543.5 c 128,-1,12
 140 626 140 626 228.5 670 c 128,-1,13
 317 714 317 714 441.5 714 c 128,-1,14
 566 714 566 714 660 662 c 1,15,-1
 713 725 l 1,16,-1
 750 695 l 1,17,-1
 699 635 l 1,18,19
 828 537 828 537 828 350 c 0,0,1
601 593 m 1,20,21
 540 672 540 672 434 672 c 128,-1,22
 328 672 328 672 266 585.5 c 128,-1,23
 204 499 204 499 204 350 c 0,24,25
 204 241 204 241 238 164 c 1,26,-1
 601 593 l 1,20,21
262 120 m 1,27,28
 324 28 324 28 434.5 28 c 128,-1,29
 545 28 545 28 607 114.5 c 128,-1,30
 669 201 669 201 669 350 c 0,31,32
 669 470 669 470 628 551 c 1,33,-1
 262 120 l 1,27,28
EndSplineSet
EndChar

StartChar: Ugrave
Encoding: 217 217 153
Width: 821
GlyphClass: 2
Flags: W
LayerCount: 2
Fore
SplineSet
470 771 m 1,0,-1
 463 764 l 1,1,2
 363 788 363 788 259 854 c 1,3,4
 278 911 278 911 326 935 c 1,5,6
 428 844 428 844 470 771 c 1,0,-1
790 690 m 1,7,-1
 774 690 l 2,8,9
 752 690 752 690 737 676.5 c 128,-1,10
 722 663 722 663 721 643 c 1,11,-1
 721 253 l 2,12,13
 721 130 721 130 644 58 c 128,-1,14
 567 -14 567 -14 433 -14 c 0,15,16
 275 -14 275 -14 191 56.5 c 128,-1,17
 107 127 107 127 107 252 c 2,18,-1
 107 640 l 2,19,20
 107 662 107 662 91.5 676 c 128,-1,21
 76 690 76 690 54 690 c 2,22,-1
 38 690 l 1,23,-1
 38 700 l 1,24,-1
 326 700 l 1,25,-1
 326 690 l 1,26,-1
 310 690 l 2,27,28
 288 690 288 690 273 676.5 c 128,-1,29
 258 663 258 663 257 642 c 1,30,-1
 257 260 l 2,31,32
 257 154 257 154 309 92 c 128,-1,33
 361 30 361 30 451 30 c 0,34,35
 512 30 512 30 556.5 56 c 128,-1,36
 601 82 601 82 625.5 131.5 c 128,-1,37
 650 181 650 181 650 247 c 2,38,-1
 650 642 l 1,39,40
 648 671 648 671 623 684 c 0,41,42
 611 690 611 690 597 690 c 2,43,-1
 581 690 l 1,44,-1
 581 700 l 1,45,-1
 790 700 l 1,46,-1
 790 690 l 1,7,-1
EndSplineSet
EndChar

StartChar: Uacute
Encoding: 218 218 154
Width: 821
GlyphClass: 2
Flags: W
LayerCount: 2
Fore
SplineSet
441 762 m 1,0,-1
 434 769 l 1,1,2
 477 843 477 843 578 933 c 1,3,4
 626 908 626 908 645 852 c 1,5,6
 543 787 543 787 441 762 c 1,0,-1
790 690 m 1,7,-1
 773 690 l 2,8,9
 752 690 752 690 737 676.5 c 128,-1,10
 722 663 722 663 721 643 c 1,11,-1
 721 253 l 2,12,13
 721 130 721 130 644 58 c 128,-1,14
 567 -14 567 -14 433 -14 c 0,15,16
 275 -14 275 -14 191 56.5 c 128,-1,17
 107 127 107 127 107 252 c 2,18,-1
 107 641 l 2,19,20
 107 662 107 662 91.5 676 c 128,-1,21
 76 690 76 690 54 690 c 2,22,-1
 38 690 l 1,23,-1
 38 700 l 1,24,-1
 326 700 l 1,25,-1
 326 690 l 1,26,-1
 310 690 l 2,27,28
 288 690 288 690 273 676.5 c 128,-1,29
 258 663 258 663 257 642 c 1,30,-1
 257 260 l 2,31,32
 257 154 257 154 309 92 c 128,-1,33
 361 30 361 30 452 30 c 128,-1,34
 543 30 543 30 596 88.5 c 128,-1,35
 649 147 649 147 650 247 c 1,36,-1
 650 642 l 1,37,38
 648 671 648 671 623 684 c 0,39,40
 611 690 611 690 597 690 c 2,41,-1
 581 690 l 1,42,-1
 581 700 l 1,43,-1
 790 700 l 1,44,-1
 790 690 l 1,7,-1
EndSplineSet
EndChar

StartChar: Ucircumflex
Encoding: 219 219 155
Width: 821
GlyphClass: 2
Flags: W
LayerCount: 2
Fore
SplineSet
445 915 m 1,0,-1
 456 915 l 1,1,-1
 609 762 l 1,2,-1
 602 754 l 1,3,-1
 450 819 l 1,4,-1
 307 754 l 1,5,-1
 300 762 l 1,6,-1
 445 915 l 1,0,-1
790 690 m 1,7,-1
 774 690 l 2,8,9
 752 690 752 690 737 676.5 c 128,-1,10
 722 663 722 663 721 643 c 1,11,-1
 721 253 l 2,12,13
 721 130 721 130 644 58 c 128,-1,14
 567 -14 567 -14 433 -14 c 0,15,16
 275 -14 275 -14 191 56.5 c 128,-1,17
 107 127 107 127 107 252 c 2,18,-1
 107 640 l 2,19,20
 107 662 107 662 91.5 676 c 128,-1,21
 76 690 76 690 54 690 c 2,22,-1
 38 690 l 1,23,-1
 38 700 l 1,24,-1
 326 700 l 1,25,-1
 326 690 l 1,26,-1
 310 690 l 2,27,28
 288 690 288 690 273 676.5 c 128,-1,29
 258 663 258 663 257 642 c 1,30,-1
 257 260 l 2,31,32
 257 154 257 154 309 92 c 128,-1,33
 361 30 361 30 451 30 c 0,34,35
 512 30 512 30 556.5 56 c 128,-1,36
 601 82 601 82 625.5 131.5 c 128,-1,37
 650 181 650 181 650 247 c 2,38,-1
 650 642 l 1,39,40
 648 671 648 671 623 684 c 0,41,42
 611 690 611 690 597 690 c 2,43,-1
 581 690 l 1,44,-1
 581 700 l 1,45,-1
 790 700 l 1,46,-1
 790 690 l 1,7,-1
EndSplineSet
EndChar

StartChar: Udieresis
Encoding: 220 220 156
Width: 821
GlyphClass: 2
Flags: W
LayerCount: 2
Fore
SplineSet
332 759 m 128,-1,1
 307 759 307 759 289.5 776.5 c 128,-1,2
 272 794 272 794 272 819 c 128,-1,3
 272 844 272 844 289.5 861.5 c 128,-1,4
 307 879 307 879 332 879 c 128,-1,5
 357 879 357 879 374.5 861.5 c 128,-1,6
 392 844 392 844 392 819 c 128,-1,7
 392 794 392 794 374.5 776.5 c 128,-1,0
 357 759 357 759 332 759 c 128,-1,1
565.5 759 m 128,-1,9
 541 759 541 759 523.5 776.5 c 128,-1,10
 506 794 506 794 506 819 c 128,-1,11
 506 844 506 844 523.5 861.5 c 128,-1,12
 541 879 541 879 565.5 879 c 128,-1,13
 590 879 590 879 608 861.5 c 128,-1,14
 626 844 626 844 626 819 c 128,-1,15
 626 794 626 794 608 776.5 c 128,-1,8
 590 759 590 759 565.5 759 c 128,-1,9
790 690 m 1,16,-1
 773 690 l 2,17,18
 735 690 735 690 723 656 c 0,19,20
 721 650 721 650 721 643 c 2,21,-1
 721 253 l 2,22,23
 721 130 721 130 644 58 c 128,-1,24
 567 -14 567 -14 433 -14 c 0,25,26
 275 -14 275 -14 191 56.5 c 128,-1,27
 107 127 107 127 107 252 c 2,28,-1
 107 640 l 1,29,30
 106 670 106 670 80 684 c 0,31,32
 68 690 68 690 54 690 c 2,33,-1
 38 690 l 1,34,-1
 38 700 l 1,35,-1
 326 700 l 1,36,-1
 326 690 l 1,37,-1
 310 690 l 2,38,39
 288 690 288 690 273 676.5 c 128,-1,40
 258 663 258 663 257 642 c 1,41,-1
 257 260 l 2,42,43
 257 154 257 154 309 92 c 128,-1,44
 361 30 361 30 452 30 c 128,-1,45
 543 30 543 30 596 88.5 c 128,-1,46
 649 147 649 147 650 247 c 1,47,-1
 650 642 l 1,48,49
 648 671 648 671 623 684 c 0,50,51
 611 690 611 690 597 690 c 2,52,-1
 581 690 l 1,53,-1
 581 700 l 1,54,-1
 790 700 l 1,55,-1
 790 690 l 1,16,-1
EndSplineSet
EndChar

StartChar: Yacute
Encoding: 221 221 157
Width: 702
GlyphClass: 2
Flags: W
LayerCount: 2
Fore
SplineSet
387 762 m 1,0,-1
 380 769 l 1,1,2
 423 843 423 843 524 933 c 1,3,4
 573 908 573 908 592 852 c 1,5,6
 489 787 489 787 387 762 c 1,0,-1
734 690 m 1,7,-1
 720 690 l 2,8,9
 690 690 690 690 663 673 c 128,-1,10
 636 656 636 656 620 632 c 2,11,-1
 423 318 l 1,12,-1
 423 73 l 2,13,14
 423 47 423 47 442 28.5 c 128,-1,15
 461 10 461 10 487 10 c 2,16,-1
 499 10 l 1,17,-1
 500 0 l 1,18,-1
 196 0 l 1,19,-1
 196 10 l 1,20,-1
 209 10 l 2,21,22
 235 10 235 10 253.5 28 c 128,-1,23
 272 46 272 46 273 72 c 1,24,-1
 273 319 l 1,25,-1
 82 633 l 2,26,27
 67 657 67 657 39.5 673.5 c 128,-1,28
 12 690 12 690 -17 690 c 2,29,-1
 -31 690 l 1,30,-1
 -31 700 l 1,31,-1
 300 700 l 1,32,-1
 300 690 l 1,33,-1
 287 690 l 2,34,35
 265 690 265 690 253 670 c 0,36,37
 247 659 247 659 247 648.5 c 128,-1,38
 247 638 247 638 252 628 c 2,39,-1
 395 368 l 1,40,-1
 544 628 l 2,41,42
 549 638 549 638 549 648.5 c 128,-1,43
 549 659 549 659 542 669 c 1,44,45
 530 690 530 690 508 690 c 2,46,-1
 496 690 l 1,47,-1
 496 700 l 1,48,-1
 734 700 l 1,49,-1
 734 690 l 1,7,-1
EndSplineSet
EndChar

StartChar: Thorn
Encoding: 222 222 158
Width: 646
GlyphClass: 2
Flags: W
LayerCount: 2
Fore
SplineSet
619 354 m 0,0,1
 619 308 619 308 601 267 c 0,2,3
 567 189 567 189 475 159 c 0,4,5
 449 150 449 150 426 150 c 0,6,7
 356 150 356 150 299 187 c 1,8,-1
 299 197 l 1,9,10
 306 196 306 196 312 196 c 0,11,12
 360 196 360 196 399.5 225.5 c 128,-1,13
 439 255 439 255 454 311 c 0,14,15
 461 335 461 335 461 350.5 c 128,-1,16
 461 366 461 366 460 384.5 c 128,-1,17
 459 403 459 403 450 429 c 128,-1,18
 441 455 441 455 425 473 c 0,19,20
 391 512 391 512 332 512 c 2,21,-1
 270 512 l 1,22,-1
 270 73 l 2,23,24
 270 47 270 47 288.5 28.5 c 128,-1,25
 307 10 307 10 334 10 c 2,26,-1
 346 10 l 1,27,-1
 346 0 l 1,28,-1
 43 0 l 1,29,-1
 43 10 l 1,30,-1
 55 10 l 2,31,32
 82 10 82 10 100.5 28.5 c 128,-1,33
 119 47 119 47 120 73 c 1,34,-1
 120 628 l 1,35,36
 119 654 119 654 100.5 672 c 128,-1,37
 82 690 82 690 56 690 c 2,38,-1
 43 690 l 1,39,-1
 43 700 l 1,40,-1
 346 700 l 1,41,-1
 346 690 l 1,42,-1
 334 690 l 2,43,44
 308 690 308 690 289 672 c 128,-1,45
 270 654 270 654 270 628 c 2,46,-1
 270 554 l 1,47,-1
 372 554 l 2,48,49
 495 554 495 554 555 502 c 0,50,51
 619 447 619 447 619 354 c 0,0,1
EndSplineSet
EndChar

StartChar: germandbls
Encoding: 223 223 159
Width: 1029
GlyphClass: 2
Flags: W
LayerCount: 2
Fore
SplineSet
46 82 m 0,0,1
 46 147 46 147 75 193 c 1,2,-1
 83 193 l 1,3,4
 82 186 82 186 82 180 c 0,5,6
 82 119 82 119 125.5 73 c 128,-1,7
 169 27 169 27 247 27 c 0,8,9
 303 27 303 27 333.5 53 c 128,-1,10
 364 79 364 79 364 111 c 128,-1,11
 364 143 364 143 346.5 162.5 c 128,-1,12
 329 182 329 182 289 208 c 2,13,-1
 147 298 l 2,14,15
 57 354 57 354 57 442 c 0,16,17
 57 451 57 451 58 461 c 0,18,19
 64 532 64 532 113 572.5 c 128,-1,20
 162 613 162 613 228.5 613 c 128,-1,21
 295 613 295 613 369 604 c 1,22,-1
 423 604 l 1,23,-1
 409 472 l 1,24,-1
 400 472 l 1,25,26
 400 519 400 519 367.5 546 c 128,-1,27
 335 573 335 573 281.5 573 c 128,-1,28
 228 573 228 573 197 550.5 c 128,-1,29
 166 528 166 528 166 491 c 0,30,31
 166 461 166 461 196 439 c 0,32,33
 208 430 208 430 231 416 c 2,34,-1
 390 318 l 2,35,36
 472 268 472 268 472 180 c 0,37,38
 472 87 472 87 406.5 37 c 128,-1,39
 341 -13 341 -13 237 -13 c 0,40,41
 173 -13 173 -13 124 2 c 128,-1,42
 75 17 75 17 52 40 c 1,43,44
 46 58 46 58 46 82 c 0,0,1
561 82 m 0,45,46
 561 147 561 147 590 193 c 1,47,-1
 598 193 l 1,48,49
 597 186 597 186 597 180 c 0,50,51
 597 119 597 119 640.5 73 c 128,-1,52
 684 27 684 27 762 27 c 0,53,54
 818 27 818 27 848.5 53 c 128,-1,55
 879 79 879 79 879 118 c 0,56,57
 879 143 879 143 865 159 c 0,58,59
 843 183 843 183 804 208 c 2,60,-1
 661 298 l 2,61,62
 572 354 572 354 572 442 c 0,63,64
 572 451 572 451 573 461 c 0,65,66
 579 532 579 532 627.5 572.5 c 128,-1,67
 676 613 676 613 743 613 c 128,-1,68
 810 613 810 613 883 604 c 1,69,-1
 938 604 l 1,70,-1
 924 472 l 1,71,-1
 915 472 l 1,72,73
 915 519 915 519 882.5 546 c 128,-1,74
 850 573 850 573 796.5 573 c 128,-1,75
 743 573 743 573 713 551.5 c 128,-1,76
 683 530 683 530 681 495 c 0,77,78
 679 468 679 468 695 454 c 0,79,80
 715 435 715 435 746 416 c 2,81,-1
 904 318 l 1,82,83
 987 268 987 268 987 180 c 0,84,85
 987 87 987 87 921.5 37 c 128,-1,86
 856 -13 856 -13 752 -13 c 0,87,88
 688 -13 688 -13 638.5 2 c 128,-1,89
 589 17 589 17 567 40 c 1,90,91
 561 58 561 58 561 82 c 0,45,46
EndSplineSet
EndChar

StartChar: agrave
Encoding: 224 224 160
Width: 644
GlyphClass: 2
Flags: W
LayerCount: 2
Fore
SplineSet
334 671 m 1,0,-1
 327 664 l 1,1,2
 227 688 227 688 123 754 c 1,3,4
 142 811 142 811 191 835 c 1,5,6
 292 744 292 744 334 671 c 1,0,-1
665 10 m 2,7,-1
 673 10 l 1,8,-1
 673 0 l 1,9,-1
 379 0 l 1,10,-1
 379 10 l 1,11,-1
 387 10 l 2,12,13
 407 10 407 10 416 22 c 128,-1,14
 425 34 425 34 425 44 c 128,-1,15
 425 54 425 54 421 65 c 2,16,-1
 382 157 l 1,17,-1
 170 157 l 1,18,-1
 130 64 l 2,19,20
 126 54 126 54 126 43.5 c 128,-1,21
 126 33 126 33 135.5 21.5 c 128,-1,22
 145 10 145 10 165 10 c 2,23,-1
 173 10 l 1,24,-1
 173 0 l 1,25,-1
 -27 0 l 1,26,-1
 -27 10 l 1,27,-1
 -19 10 l 2,28,29
 2 10 2 10 23 23 c 128,-1,30
 44 36 44 36 57 62 c 2,31,-1
 264 506 l 1,32,33
 308 605 308 605 310 628 c 1,34,-1
 319 628 l 1,35,-1
 587 66 l 2,36,37
 600 37 600 37 621.5 23.5 c 128,-1,38
 643 10 643 10 665 10 c 2,7,-1
187 196 m 1,39,-1
 365 196 l 1,40,-1
 277 405 l 1,41,-1
 187 196 l 1,39,-1
EndSplineSet
EndChar

StartChar: aacute
Encoding: 225 225 161
Width: 644
GlyphClass: 2
Flags: W
LayerCount: 2
Fore
SplineSet
305 662 m 1,0,-1
 298 669 l 1,1,2
 341 743 341 743 442 833 c 1,3,4
 490 808 490 808 510 752 c 1,5,6
 407 687 407 687 305 662 c 1,0,-1
665 10 m 2,7,-1
 673 10 l 1,8,-1
 673 0 l 1,9,-1
 379 0 l 1,10,-1
 379 10 l 1,11,-1
 387 10 l 2,12,13
 407 10 407 10 416 22 c 128,-1,14
 425 34 425 34 425 44 c 128,-1,15
 425 54 425 54 421 66 c 1,16,-1
 382 157 l 1,17,-1
 170 157 l 1,18,-1
 130 64 l 2,19,20
 126 54 126 54 126 43.5 c 128,-1,21
 126 33 126 33 135.5 21.5 c 128,-1,22
 145 10 145 10 165 10 c 2,23,-1
 173 10 l 1,24,-1
 173 0 l 1,25,-1
 -27 0 l 1,26,-1
 -27 10 l 1,27,-1
 -19 10 l 2,28,29
 2 10 2 10 23 23 c 128,-1,30
 44 36 44 36 57 62 c 2,31,-1
 264 506 l 1,32,33
 308 605 308 605 310 628 c 1,34,-1
 319 628 l 1,35,-1
 587 66 l 2,36,37
 614 10 614 10 665 10 c 2,7,-1
187 196 m 1,38,-1
 365 196 l 1,39,-1
 277 405 l 1,40,-1
 187 196 l 1,38,-1
EndSplineSet
EndChar

StartChar: acircumflex
Encoding: 226 226 162
Width: 644
GlyphClass: 2
Flags: W
LayerCount: 2
Fore
SplineSet
309 815 m 1,0,-1
 320 815 l 1,1,-1
 473 662 l 1,2,-1
 467 654 l 1,3,-1
 314 719 l 1,4,-1
 171 654 l 1,5,-1
 165 662 l 1,6,-1
 309 815 l 1,0,-1
665 10 m 2,7,-1
 673 10 l 1,8,-1
 673 0 l 1,9,-1
 379 0 l 1,10,-1
 379 10 l 1,11,-1
 387 10 l 2,12,13
 407 10 407 10 416 22 c 128,-1,14
 425 34 425 34 425 44 c 128,-1,15
 425 54 425 54 421 65 c 2,16,-1
 382 157 l 1,17,-1
 170 157 l 1,18,-1
 130 64 l 2,19,20
 126 54 126 54 126 43.5 c 128,-1,21
 126 33 126 33 135.5 21.5 c 128,-1,22
 145 10 145 10 165 10 c 2,23,-1
 173 10 l 1,24,-1
 173 0 l 1,25,-1
 -27 0 l 1,26,-1
 -27 10 l 1,27,-1
 -19 10 l 2,28,29
 2 10 2 10 23 23 c 128,-1,30
 44 36 44 36 57 62 c 2,31,-1
 264 506 l 1,32,33
 308 605 308 605 310 628 c 1,34,-1
 319 628 l 1,35,-1
 587 66 l 2,36,37
 600 37 600 37 621.5 23.5 c 128,-1,38
 643 10 643 10 665 10 c 2,7,-1
187 196 m 1,39,-1
 365 196 l 1,40,-1
 277 405 l 1,41,-1
 187 196 l 1,39,-1
EndSplineSet
EndChar

StartChar: atilde
Encoding: 227 227 163
Width: 644
GlyphClass: 2
Flags: W
LayerCount: 2
Fore
SplineSet
483 789 m 1,0,-1
 495 789 l 1,1,2
 497 778 497 778 497 768 c 0,3,4
 497 737 497 737 477 706 c 0,5,6
 450 664 450 664 398 664 c 0,7,8
 369 664 369 664 322.5 687.5 c 128,-1,9
 276 711 276 711 262 713 c 128,-1,10
 248 715 248 715 235.5 715 c 128,-1,11
 223 715 223 715 203.5 701 c 128,-1,12
 184 687 184 687 176 667 c 1,13,-1
 164 667 l 1,14,15
 163 675 163 675 163 682 c 0,16,17
 163 720 163 720 187 759.5 c 128,-1,18
 211 799 211 799 261 799 c 0,19,20
 288 799 288 799 336.5 774 c 128,-1,21
 385 749 385 749 424 749 c 0,22,23
 436 749 436 749 456.5 761 c 128,-1,24
 477 773 477 773 483 789 c 1,0,-1
665 10 m 2,25,-1
 673 10 l 1,26,-1
 673 0 l 1,27,-1
 379 0 l 1,28,-1
 379 10 l 1,29,-1
 387 10 l 2,30,31
 407 10 407 10 416 22 c 128,-1,32
 425 34 425 34 425 44 c 128,-1,33
 425 54 425 54 421 66 c 1,34,-1
 382 157 l 1,35,-1
 170 157 l 1,36,-1
 130 64 l 2,37,38
 126 54 126 54 126 43.5 c 128,-1,39
 126 33 126 33 135.5 21.5 c 128,-1,40
 145 10 145 10 165 10 c 2,41,-1
 173 10 l 1,42,-1
 173 0 l 1,43,-1
 -27 0 l 1,44,-1
 -27 10 l 1,45,-1
 -19 10 l 2,46,47
 2 10 2 10 23 23 c 128,-1,48
 44 36 44 36 57 62 c 2,49,-1
 264 506 l 1,50,51
 308 605 308 605 310 628 c 1,52,-1
 319 628 l 1,53,-1
 587 66 l 2,54,55
 600 37 600 37 621.5 23.5 c 128,-1,56
 643 10 643 10 665 10 c 2,25,-1
187 196 m 1,57,-1
 365 196 l 1,58,-1
 277 405 l 1,59,-1
 187 196 l 1,57,-1
EndSplineSet
EndChar

StartChar: adieresis
Encoding: 228 228 164
Width: 644
GlyphClass: 2
Flags: W
LayerCount: 2
Fore
SplineSet
196.5 659 m 128,-1,1
 172 659 172 659 154 676.5 c 128,-1,2
 136 694 136 694 136 719 c 128,-1,3
 136 744 136 744 154 761.5 c 128,-1,4
 172 779 172 779 196.5 779 c 128,-1,5
 221 779 221 779 239 761.5 c 128,-1,6
 257 744 257 744 257 719 c 128,-1,7
 257 694 257 694 239 676.5 c 128,-1,0
 221 659 221 659 196.5 659 c 128,-1,1
430 659 m 128,-1,9
 405 659 405 659 387.5 676.5 c 128,-1,10
 370 694 370 694 370 719 c 128,-1,11
 370 744 370 744 387.5 761.5 c 128,-1,12
 405 779 405 779 430 779 c 128,-1,13
 455 779 455 779 472.5 761.5 c 128,-1,14
 490 744 490 744 490 719 c 128,-1,15
 490 694 490 694 472.5 676.5 c 128,-1,8
 455 659 455 659 430 659 c 128,-1,9
665 10 m 2,16,-1
 673 10 l 1,17,-1
 673 0 l 1,18,-1
 379 0 l 1,19,-1
 379 10 l 1,20,-1
 387 10 l 2,21,22
 407 10 407 10 416 22 c 128,-1,23
 425 34 425 34 425 44 c 128,-1,24
 425 54 425 54 421 66 c 1,25,-1
 382 157 l 1,26,-1
 170 157 l 1,27,-1
 130 64 l 1,28,29
 116 27 116 27 148 13 c 0,30,31
 156 10 156 10 165 10 c 2,32,-1
 173 10 l 1,33,-1
 173 0 l 1,34,-1
 -27 0 l 1,35,-1
 -27 10 l 1,36,-1
 -19 10 l 2,37,38
 2 10 2 10 23 23 c 128,-1,39
 44 36 44 36 57 62 c 2,40,-1
 264 506 l 1,41,42
 308 605 308 605 310 628 c 1,43,-1
 319 628 l 1,44,-1
 587 66 l 2,45,46
 600 37 600 37 621.5 23.5 c 128,-1,47
 643 10 643 10 665 10 c 2,16,-1
187 196 m 1,48,-1
 365 196 l 1,49,-1
 277 405 l 1,50,-1
 187 196 l 1,48,-1
EndSplineSet
EndChar

StartChar: aring
Encoding: 229 229 165
Width: 644
GlyphClass: 2
Flags: W
LayerCount: 2
Fore
SplineSet
237.5 807 m 128,-1,1
 269 831 269 831 315.5 831 c 128,-1,2
 362 831 362 831 392.5 808 c 128,-1,3
 423 785 423 785 423 748.5 c 128,-1,4
 423 712 423 712 392 688 c 128,-1,5
 361 664 361 664 314.5 664 c 128,-1,6
 268 664 268 664 237 687.5 c 128,-1,7
 206 711 206 711 206 747 c 128,-1,0
 206 783 206 783 237.5 807 c 128,-1,1
351 789.5 m 128,-1,9
 337 806 337 806 315 806 c 128,-1,10
 293 806 293 806 279 789.5 c 128,-1,11
 265 773 265 773 265 747 c 128,-1,12
 265 721 265 721 279 705 c 128,-1,13
 293 689 293 689 315 689 c 128,-1,14
 337 689 337 689 351 705 c 128,-1,15
 365 721 365 721 365 747 c 128,-1,8
 365 773 365 773 351 789.5 c 128,-1,9
665 10 m 2,16,-1
 673 10 l 1,17,-1
 673 0 l 1,18,-1
 379 0 l 1,19,-1
 379 10 l 1,20,-1
 387 10 l 2,21,22
 406 10 406 10 415.5 22 c 128,-1,23
 425 34 425 34 425 44 c 128,-1,24
 425 54 425 54 421 66 c 1,25,-1
 382 157 l 1,26,-1
 170 157 l 1,27,-1
 130 64 l 1,28,29
 116 27 116 27 148 13 c 0,30,31
 156 10 156 10 165 10 c 2,32,-1
 173 10 l 1,33,-1
 173 0 l 1,34,-1
 -27 0 l 1,35,-1
 -27 10 l 1,36,-1
 -19 10 l 2,37,38
 2 10 2 10 23 23 c 128,-1,39
 44 36 44 36 57 62 c 2,40,-1
 264 506 l 1,41,42
 308 605 308 605 310 628 c 1,43,-1
 319 628 l 1,44,-1
 587 66 l 2,45,46
 600 37 600 37 621.5 23.5 c 128,-1,47
 643 10 643 10 665 10 c 2,16,-1
187 196 m 1,48,-1
 365 196 l 1,49,-1
 277 405 l 1,50,-1
 187 196 l 1,48,-1
EndSplineSet
EndChar

StartChar: ae
Encoding: 230 230 166
Width: 864
GlyphClass: 2
Flags: W
LayerCount: 2
Fore
SplineSet
371 10 m 2,0,1
 388 10 388 10 400.5 21.5 c 128,-1,2
 413 33 413 33 413 50 c 2,3,-1
 413 271 l 1,4,-1
 272 271 l 1,5,-1
 136 56 l 1,6,7
 122 25 122 25 153 13 c 0,8,9
 160 10 160 10 169 10 c 2,10,-1
 177 10 l 1,11,-1
 177 0 l 1,12,-1
 -21 0 l 1,13,-1
 -21 10 l 1,14,-1
 -14 10 l 2,15,16
 27 10 27 10 64 62 c 2,17,-1
 405 553 l 1,18,19
 414 568 414 568 408 579.5 c 128,-1,20
 402 591 402 591 386 591 c 2,21,-1
 382 591 l 1,22,-1
 382 600 l 1,23,-1
 692 600 l 2,24,25
 719 600 719 600 750.5 605 c 128,-1,26
 782 610 782 610 795 615 c 1,27,-1
 795 461 l 1,28,-1
 786 461 l 1,29,-1
 786 470 l 2,30,31
 786 524 786 524 745 547 c 0,32,33
 725 558 725 558 699 559 c 1,34,-1
 555 559 l 1,35,-1
 555 310 l 1,36,-1
 669 310 l 1,37,38
 702 312 702 312 723 333.5 c 128,-1,39
 744 355 744 355 744 388 c 2,40,-1
 744 395 l 1,41,-1
 753 395 l 1,42,-1
 753 188 l 1,43,-1
 744 188 l 1,44,-1
 744 193 l 2,45,46
 744 226 744 226 723 247.5 c 128,-1,47
 702 269 702 269 670 271 c 1,48,-1
 555 271 l 1,49,-1
 555 40 l 1,50,-1
 674 40 l 2,51,52
 753 40 753 40 801 103 c 0,53,54
 824 133 824 133 837 175 c 1,55,-1
 846 175 l 1,56,-1
 809 0 l 1,57,-1
 362 0 l 1,58,-1
 362 10 l 1,59,-1
 371 10 l 2,0,1
413 310 m 1,60,-1
 413 495 l 1,61,-1
 297 310 l 1,62,-1
 413 310 l 1,60,-1
EndSplineSet
EndChar

StartChar: ccedilla
Encoding: 231 231 167
Width: 682
GlyphClass: 2
Flags: W
LayerCount: 2
Fore
SplineSet
475 -116 m 0,0,1
 475 -169 475 -169 418 -195 c 0,2,3
 387 -209 387 -209 359 -209 c 128,-1,4
 331 -209 331 -209 305 -200 c 1,5,-1
 306 -190 l 1,6,7
 342 -190 342 -190 373 -171.5 c 128,-1,8
 404 -153 404 -153 404 -116 c 0,9,10
 404 -98 404 -98 389 -87 c 128,-1,11
 374 -76 374 -76 353 -76 c 128,-1,12
 332 -76 332 -76 312 -82 c 1,13,-1
 307 -72 l 1,14,-1
 354 -11 l 1,15,16
 204 -1 204 -1 119 80.5 c 128,-1,17
 34 162 34 162 34 304.5 c 128,-1,18
 34 447 34 447 129.5 530 c 128,-1,19
 225 613 225 613 394 613 c 0,20,21
 526 613 526 613 619 567 c 1,22,-1
 619 408 l 1,23,-1
 612 408 l 1,24,25
 587 497 587 497 535 535 c 128,-1,26
 483 573 483 573 404 573 c 0,27,28
 298 573 298 573 242 500.5 c 128,-1,29
 186 428 186 428 186 302.5 c 128,-1,30
 186 177 186 177 241 103 c 0,31,32
 298 27 298 27 396 27 c 0,33,34
 467 27 467 27 513 49 c 128,-1,35
 559 71 559 71 586 119.5 c 128,-1,36
 613 168 613 168 626 251 c 1,37,-1
 633 251 l 1,38,-1
 645 100 l 1,39,40
 614 50 614 50 552.5 19 c 128,-1,41
 491 -12 491 -12 401 -13 c 1,42,-1
 361 -58 l 1,43,44
 376 -53 376 -53 395 -53 c 0,45,46
 443 -53 443 -53 464 -80 c 0,47,48
 475 -94 475 -94 475 -116 c 0,0,1
EndSplineSet
EndChar

StartChar: egrave
Encoding: 232 232 168
Width: 563
GlyphClass: 2
Flags: W
LayerCount: 2
Fore
SplineSet
310 671 m 1,0,-1
 303 664 l 1,1,2
 203 688 203 688 99 754 c 1,3,4
 118 811 118 811 167 835 c 1,5,6
 268 745 268 745 310 671 c 1,0,-1
505 0 m 1,7,-1
 34 0 l 1,8,-1
 34 10 l 1,9,-1
 46 10 l 2,10,11
 69 10 69 10 84.5 25 c 128,-1,12
 100 40 100 40 101 62 c 1,13,-1
 101 538 l 1,14,15
 100 560 100 560 84.5 575 c 128,-1,16
 69 590 69 590 46 590 c 2,17,-1
 34 590 l 1,18,-1
 34 600 l 1,19,-1
 386 600 l 2,20,21
 413 600 413 600 445 605 c 128,-1,22
 477 610 477 610 490 615 c 1,23,-1
 490 456 l 1,24,-1
 480 456 l 1,25,-1
 480 465 l 2,26,27
 480 509 480 509 456 534 c 128,-1,28
 432 559 432 559 389 560 c 1,29,-1
 245 560 l 1,30,-1
 245 317 l 1,31,-1
 359 317 l 1,32,33
 393 318 393 318 414 340 c 128,-1,34
 435 362 435 362 435 396 c 2,35,-1
 435 403 l 1,36,-1
 445 403 l 1,37,-1
 445 191 l 1,38,-1
 435 191 l 1,39,-1
 435 198 l 2,40,41
 435 245 435 245 400 266 c 0,42,43
 382 277 382 277 360 277 c 2,44,-1
 245 277 l 1,45,-1
 245 40 l 1,46,-1
 365 40 l 1,47,48
 427 41 427 41 470.5 78.5 c 128,-1,49
 514 116 514 116 534 184 c 1,50,-1
 543 184 l 1,51,-1
 505 0 l 1,7,-1
EndSplineSet
EndChar

StartChar: eacute
Encoding: 233 233 169
Width: 563
GlyphClass: 2
Flags: W
LayerCount: 2
Fore
SplineSet
281 662 m 1,0,-1
 274 669 l 1,1,2
 317 743 317 743 418 834 c 1,3,4
 466 808 466 808 486 752 c 1,5,6
 383 687 383 687 281 662 c 1,0,-1
505 0 m 1,7,-1
 34 0 l 1,8,-1
 34 10 l 1,9,-1
 46 10 l 2,10,11
 69 10 69 10 84.5 25 c 128,-1,12
 100 40 100 40 101 62 c 1,13,-1
 101 538 l 1,14,15
 100 560 100 560 84.5 575 c 128,-1,16
 69 590 69 590 46 590 c 2,17,-1
 34 590 l 1,18,-1
 34 600 l 1,19,-1
 386 600 l 2,20,21
 413 600 413 600 445 605 c 128,-1,22
 477 610 477 610 490 615 c 1,23,-1
 490 456 l 1,24,-1
 480 456 l 1,25,-1
 480 465 l 2,26,27
 480 509 480 509 456 534 c 128,-1,28
 432 559 432 559 389 560 c 1,29,-1
 245 560 l 1,30,-1
 245 317 l 1,31,-1
 359 317 l 1,32,33
 393 318 393 318 414 340 c 128,-1,34
 435 362 435 362 435 397 c 2,35,-1
 435 403 l 1,36,-1
 445 403 l 1,37,-1
 445 191 l 1,38,-1
 435 191 l 1,39,-1
 435 198 l 2,40,41
 435 245 435 245 400 266 c 0,42,43
 382 277 382 277 360 277 c 2,44,-1
 245 277 l 1,45,-1
 245 40 l 1,46,-1
 365 40 l 1,47,48
 427 41 427 41 470.5 78.5 c 128,-1,49
 514 116 514 116 534 184 c 1,50,-1
 543 184 l 1,51,-1
 505 0 l 1,7,-1
EndSplineSet
EndChar

StartChar: ecircumflex
Encoding: 234 234 170
Width: 563
GlyphClass: 2
Flags: W
LayerCount: 2
Fore
SplineSet
285 816 m 1,0,-1
 296 816 l 1,1,-1
 449 662 l 1,2,-1
 443 654 l 1,3,-1
 290 719 l 1,4,-1
 147 654 l 1,5,-1
 141 662 l 1,6,-1
 285 816 l 1,0,-1
505 0 m 1,7,-1
 34 0 l 1,8,-1
 34 10 l 1,9,-1
 46 10 l 2,10,11
 69 10 69 10 84.5 25 c 128,-1,12
 100 40 100 40 101 62 c 1,13,-1
 101 538 l 1,14,15
 100 560 100 560 84.5 575 c 128,-1,16
 69 590 69 590 46 590 c 2,17,-1
 34 590 l 1,18,-1
 34 600 l 1,19,-1
 386 600 l 2,20,21
 413 600 413 600 445 605 c 128,-1,22
 477 610 477 610 490 615 c 1,23,-1
 490 456 l 1,24,-1
 480 456 l 1,25,-1
 480 465 l 2,26,27
 480 509 480 509 456 534 c 128,-1,28
 432 559 432 559 389 560 c 1,29,-1
 245 560 l 1,30,-1
 245 317 l 1,31,-1
 359 317 l 1,32,33
 393 318 393 318 414 340 c 128,-1,34
 435 362 435 362 435 396 c 2,35,-1
 435 403 l 1,36,-1
 445 403 l 1,37,-1
 445 191 l 1,38,-1
 435 191 l 1,39,-1
 435 198 l 2,40,41
 435 245 435 245 400 266 c 0,42,43
 382 277 382 277 360 277 c 2,44,-1
 245 277 l 1,45,-1
 245 40 l 1,46,-1
 365 40 l 1,47,48
 427 41 427 41 470.5 78.5 c 128,-1,49
 514 116 514 116 534 184 c 1,50,-1
 543 184 l 1,51,-1
 505 0 l 1,7,-1
EndSplineSet
EndChar

StartChar: edieresis
Encoding: 235 235 171
Width: 563
GlyphClass: 2
Flags: W
LayerCount: 2
Fore
SplineSet
172.5 659 m 128,-1,1
 148 659 148 659 130 676.5 c 128,-1,2
 112 694 112 694 112 719 c 128,-1,3
 112 744 112 744 130 761.5 c 128,-1,4
 148 779 148 779 172.5 779 c 128,-1,5
 197 779 197 779 215 761.5 c 128,-1,6
 233 744 233 744 233 719 c 128,-1,7
 233 694 233 694 215 676.5 c 128,-1,0
 197 659 197 659 172.5 659 c 128,-1,1
406 659 m 128,-1,9
 381 659 381 659 363.5 676.5 c 128,-1,10
 346 694 346 694 346 719 c 128,-1,11
 346 744 346 744 363.5 761.5 c 128,-1,12
 381 779 381 779 406 779 c 128,-1,13
 431 779 431 779 448.5 761.5 c 128,-1,14
 466 744 466 744 466 719 c 128,-1,15
 466 694 466 694 448.5 676.5 c 128,-1,8
 431 659 431 659 406 659 c 128,-1,9
505 0 m 1,16,-1
 34 0 l 1,17,-1
 34 10 l 1,18,-1
 46 10 l 2,19,20
 69 10 69 10 84.5 25 c 128,-1,21
 100 40 100 40 101 62 c 1,22,-1
 101 538 l 1,23,24
 100 560 100 560 84.5 575 c 128,-1,25
 69 590 69 590 46 590 c 2,26,-1
 34 590 l 1,27,-1
 34 600 l 1,28,-1
 386 600 l 2,29,30
 413 600 413 600 445 605 c 128,-1,31
 477 610 477 610 490 615 c 1,32,-1
 490 456 l 1,33,-1
 480 456 l 1,34,-1
 480 465 l 2,35,36
 480 509 480 509 456 534 c 128,-1,37
 432 559 432 559 389 560 c 1,38,-1
 245 560 l 1,39,-1
 245 317 l 1,40,-1
 359 317 l 1,41,42
 393 318 393 318 414 340 c 128,-1,43
 435 362 435 362 435 396 c 2,44,-1
 435 403 l 1,45,-1
 445 403 l 1,46,-1
 445 191 l 1,47,-1
 435 191 l 1,48,-1
 435 198 l 2,49,50
 435 245 435 245 400 266 c 0,51,52
 382 277 382 277 360 277 c 2,53,-1
 245 277 l 1,54,-1
 245 40 l 1,55,-1
 365 40 l 1,56,57
 427 41 427 41 470.5 78.5 c 128,-1,58
 514 116 514 116 534 184 c 1,59,-1
 543 184 l 1,60,-1
 505 0 l 1,16,-1
EndSplineSet
EndChar

StartChar: igrave
Encoding: 236 236 172
Width: 340
GlyphClass: 2
Flags: W
LayerCount: 2
Fore
SplineSet
188 671 m 1,0,-1
 181 664 l 1,1,2
 81 688 81 688 -24 754 c 1,3,4
 -3 811 -3 811 44 835 c 1,5,6
 146 745 146 745 188 671 c 1,0,-1
306 0 m 1,7,-1
 34 0 l 1,8,-1
 34 10 l 1,9,-1
 45 10 l 2,10,11
 67 10 67 10 82.5 25.5 c 128,-1,12
 98 41 98 41 98 63 c 2,13,-1
 98 537 l 2,14,15
 98 559 98 559 82.5 574.5 c 128,-1,16
 67 590 67 590 45 590 c 2,17,-1
 34 590 l 1,18,-1
 34 600 l 1,19,-1
 306 600 l 1,20,-1
 306 590 l 1,21,-1
 296 590 l 2,22,23
 274 590 274 590 258.5 575 c 128,-1,24
 243 560 243 560 242 537 c 1,25,-1
 242 63 l 1,26,27
 243 40 243 40 258.5 25 c 128,-1,28
 274 10 274 10 296 10 c 2,29,-1
 306 10 l 1,30,-1
 306 0 l 1,7,-1
EndSplineSet
EndChar

StartChar: iacute
Encoding: 237 237 173
Width: 340
GlyphClass: 2
Flags: W
LayerCount: 2
Fore
SplineSet
159 662 m 1,0,-1
 152 669 l 1,1,2
 195 743 195 743 295 834 c 1,3,4
 344 809 344 809 363 752 c 1,5,6
 261 687 261 687 159 662 c 1,0,-1
306 0 m 1,7,-1
 34 0 l 1,8,-1
 34 10 l 1,9,-1
 45 10 l 2,10,11
 67 10 67 10 82.5 25.5 c 128,-1,12
 98 41 98 41 98 63 c 2,13,-1
 98 537 l 2,14,15
 98 559 98 559 82.5 574.5 c 128,-1,16
 67 590 67 590 45 590 c 2,17,-1
 34 590 l 1,18,-1
 34 600 l 1,19,-1
 306 600 l 1,20,-1
 306 590 l 1,21,-1
 296 590 l 2,22,23
 274 590 274 590 258.5 575 c 128,-1,24
 243 560 243 560 242 537 c 1,25,-1
 242 63 l 1,26,27
 243 40 243 40 258.5 25 c 128,-1,28
 274 10 274 10 296 10 c 2,29,-1
 306 10 l 1,30,-1
 306 0 l 1,7,-1
EndSplineSet
EndChar

StartChar: icircumflex
Encoding: 238 238 174
Width: 340
GlyphClass: 2
Flags: W
LayerCount: 2
Fore
SplineSet
163 816 m 1,0,-1
 174 816 l 1,1,-1
 327 662 l 1,2,-1
 320 654 l 1,3,-1
 168 719 l 1,4,-1
 25 654 l 1,5,-1
 18 662 l 1,6,-1
 163 816 l 1,0,-1
306 0 m 1,7,-1
 34 0 l 1,8,-1
 34 10 l 1,9,-1
 45 10 l 2,10,11
 67 10 67 10 82.5 25.5 c 128,-1,12
 98 41 98 41 98 63 c 2,13,-1
 98 537 l 2,14,15
 98 559 98 559 82.5 574.5 c 128,-1,16
 67 590 67 590 45 590 c 2,17,-1
 34 590 l 1,18,-1
 34 600 l 1,19,-1
 306 600 l 1,20,-1
 306 590 l 1,21,-1
 296 590 l 2,22,23
 274 590 274 590 258.5 575 c 128,-1,24
 243 560 243 560 242 537 c 1,25,-1
 242 63 l 1,26,27
 243 40 243 40 258.5 25 c 128,-1,28
 274 10 274 10 296 10 c 2,29,-1
 306 10 l 1,30,-1
 306 0 l 1,7,-1
EndSplineSet
EndChar

StartChar: idieresis
Encoding: 239 239 175
Width: 340
GlyphClass: 2
Flags: W
LayerCount: 2
Fore
SplineSet
92.5 676.5 m 128,-1,1
 75 659 75 659 54.5 659 c 128,-1,2
 34 659 34 659 20 667 c 0,3,4
 -10 685 -10 685 -10 714.5 c 128,-1,5
 -10 744 -10 744 7.5 761.5 c 128,-1,6
 25 779 25 779 50 779 c 128,-1,7
 75 779 75 779 92.5 761.5 c 128,-1,8
 110 744 110 744 110 719 c 128,-1,0
 110 694 110 694 92.5 676.5 c 128,-1,1
283.5 659 m 128,-1,10
 259 659 259 659 241 676.5 c 128,-1,11
 223 694 223 694 223 719 c 128,-1,12
 223 744 223 744 241 761.5 c 128,-1,13
 259 779 259 779 283.5 779 c 128,-1,14
 308 779 308 779 326 761.5 c 128,-1,15
 344 744 344 744 344 719 c 128,-1,16
 344 694 344 694 326 676.5 c 128,-1,9
 308 659 308 659 283.5 659 c 128,-1,10
306 0 m 1,17,-1
 34 0 l 1,18,-1
 34 10 l 1,19,-1
 45 10 l 2,20,21
 67 10 67 10 82.5 25.5 c 128,-1,22
 98 41 98 41 98 63 c 2,23,-1
 98 537 l 2,24,25
 98 559 98 559 82.5 574.5 c 128,-1,26
 67 590 67 590 45 590 c 2,27,-1
 34 590 l 1,28,-1
 34 600 l 1,29,-1
 306 600 l 1,30,-1
 306 590 l 1,31,-1
 296 590 l 2,32,33
 274 590 274 590 258.5 575 c 128,-1,34
 243 560 243 560 242 537 c 1,35,-1
 242 63 l 1,36,37
 243 40 243 40 258.5 25 c 128,-1,38
 274 10 274 10 296 10 c 2,39,-1
 306 10 l 1,40,-1
 306 0 l 1,17,-1
EndSplineSet
EndChar

StartChar: eth
Encoding: 240 240 176
Width: 748
GlyphClass: 2
Flags: W
LayerCount: 2
Fore
SplineSet
714 300 m 128,-1,1
 714 159 714 159 623 79.5 c 128,-1,2
 532 0 532 0 371 0 c 2,3,-1
 33 0 l 1,4,-1
 33 10 l 1,5,-1
 46 10 l 2,6,7
 69 10 69 10 85 25.5 c 128,-1,8
 101 41 101 41 102 63 c 1,9,-1
 102 281 l 1,10,-1
 36 281 l 1,11,-1
 36 320 l 1,12,-1
 102 320 l 1,13,-1
 102 538 l 1,14,15
 101 569 101 569 73 583 c 0,16,17
 60 590 60 590 45 590 c 2,18,-1
 33 590 l 1,19,-1
 33 600 l 1,20,-1
 371 600 l 2,21,22
 532 600 532 600 623 520.5 c 128,-1,0
 714 441 714 441 714 300 c 128,-1,1
359 40 m 2,23,24
 453 40 453 40 507.5 109 c 128,-1,25
 562 178 562 178 562 300 c 128,-1,26
 562 422 562 422 507.5 491.5 c 128,-1,27
 453 561 453 561 359 561 c 2,28,-1
 246 561 l 1,29,-1
 246 320 l 1,30,-1
 372 320 l 1,31,-1
 372 281 l 1,32,-1
 246 281 l 1,33,-1
 246 40 l 1,34,-1
 359 40 l 2,23,24
EndSplineSet
EndChar

StartChar: ntilde
Encoding: 241 241 177
Width: 779
GlyphClass: 2
Flags: W
LayerCount: 2
Fore
SplineSet
540 789 m 1,0,-1
 552 789 l 1,1,2
 554 778 554 778 554 768 c 0,3,4
 554 737 554 737 534 706 c 0,5,6
 507 664 507 664 455 664 c 0,7,8
 426 664 426 664 379.5 687.5 c 128,-1,9
 333 711 333 711 319 713 c 128,-1,10
 305 715 305 715 292.5 715 c 128,-1,11
 280 715 280 715 260.5 701 c 128,-1,12
 241 687 241 687 233 667 c 1,13,-1
 221 667 l 1,14,15
 220 675 220 675 220 682 c 0,16,17
 220 720 220 720 244 759.5 c 128,-1,18
 268 799 268 799 318 799 c 0,19,20
 345 799 345 799 393.5 774 c 128,-1,21
 442 749 442 749 480 749 c 0,22,23
 493 749 493 749 513 761 c 128,-1,24
 533 773 533 773 540 789 c 1,0,-1
478 600 m 1,25,-1
 759 600 l 1,26,-1
 759 590 l 1,27,-1
 742 590 l 2,28,29
 719 590 719 590 703.5 576 c 128,-1,30
 688 562 688 562 687 540 c 1,31,-1
 687 103 l 2,32,33
 687 41 687 41 695 1 c 1,34,-1
 697 -13 l 1,35,-1
 689 -13 l 1,36,-1
 229 392 l 1,37,-1
 229 61 l 1,38,39
 230 31 230 31 257 17 c 0,40,41
 269 10 269 10 284 10 c 2,42,-1
 301 10 l 1,43,-1
 301 0 l 1,44,-1
 21 0 l 1,45,-1
 21 10 l 1,46,-1
 37 10 l 2,47,48
 60 10 60 10 76 24.5 c 128,-1,49
 92 39 92 39 92 61 c 2,50,-1
 92 501 l 2,51,52
 92 561 92 561 84 600 c 1,53,-1
 82 614 l 1,54,-1
 91 613 l 1,55,-1
 549 210 l 1,56,-1
 549 539 l 2,57,58
 549 569 549 569 522 583 c 0,59,60
 510 590 510 590 495 590 c 2,61,-1
 478 590 l 1,62,-1
 478 600 l 1,25,-1
EndSplineSet
EndChar

StartChar: ograve
Encoding: 242 242 178
Width: 777
GlyphClass: 2
Flags: W
LayerCount: 2
Fore
SplineSet
408 672 m 1,0,-1
 401 664 l 1,1,2
 301 688 301 688 196 754 c 1,3,4
 216 811 216 811 264 836 c 1,5,6
 366 745 366 745 408 672 c 1,0,-1
131.5 528.5 m 128,-1,8
 228 613 228 613 388.5 613 c 128,-1,9
 549 613 549 613 646 528.5 c 128,-1,10
 743 444 743 444 743 300 c 128,-1,11
 743 156 743 156 646 71.5 c 128,-1,12
 549 -13 549 -13 389 -13 c 128,-1,13
 229 -13 229 -13 132 71.5 c 128,-1,14
 35 156 35 156 35 300 c 128,-1,7
 35 444 35 444 131.5 528.5 c 128,-1,8
242.5 100.5 m 128,-1,16
 297 27 297 27 388.5 27 c 128,-1,17
 480 27 480 27 534.5 100.5 c 128,-1,18
 589 174 589 174 589 300 c 128,-1,19
 589 426 589 426 534.5 499.5 c 128,-1,20
 480 573 480 573 388.5 573 c 128,-1,21
 297 573 297 573 242.5 499.5 c 128,-1,22
 188 426 188 426 188 300 c 128,-1,15
 188 174 188 174 242.5 100.5 c 128,-1,16
EndSplineSet
EndChar

StartChar: oacute
Encoding: 243 243 179
Width: 777
GlyphClass: 2
Flags: W
LayerCount: 2
Fore
SplineSet
379 663 m 1,0,-1
 372 670 l 1,1,2
 415 744 415 744 515 834 c 1,3,4
 564 809 564 809 583 753 c 1,5,6
 480 687 480 687 379 663 c 1,0,-1
131.5 528.5 m 128,-1,8
 228 613 228 613 388.5 613 c 128,-1,9
 549 613 549 613 646 528.5 c 128,-1,10
 743 444 743 444 743 300 c 128,-1,11
 743 156 743 156 646 71.5 c 128,-1,12
 549 -13 549 -13 389 -13 c 128,-1,13
 229 -13 229 -13 132 71.5 c 128,-1,14
 35 156 35 156 35 300 c 128,-1,7
 35 444 35 444 131.5 528.5 c 128,-1,8
242.5 100.5 m 128,-1,16
 297 27 297 27 388.5 27 c 128,-1,17
 480 27 480 27 534.5 100.5 c 128,-1,18
 589 174 589 174 589 300 c 128,-1,19
 589 426 589 426 534.5 499.5 c 128,-1,20
 480 573 480 573 388.5 573 c 128,-1,21
 297 573 297 573 242.5 499.5 c 128,-1,22
 188 426 188 426 188 300 c 128,-1,15
 188 174 188 174 242.5 100.5 c 128,-1,16
EndSplineSet
EndChar

StartChar: ocircumflex
Encoding: 244 244 180
Width: 777
GlyphClass: 2
Flags: W
LayerCount: 2
Fore
SplineSet
383 816 m 1,0,-1
 394 816 l 1,1,-1
 547 663 l 1,2,-1
 540 655 l 1,3,-1
 388 720 l 1,4,-1
 245 655 l 1,5,-1
 238 663 l 1,6,-1
 383 816 l 1,0,-1
131.5 528.5 m 128,-1,8
 228 613 228 613 388.5 613 c 128,-1,9
 549 613 549 613 646 528.5 c 128,-1,10
 743 444 743 444 743 300 c 128,-1,11
 743 156 743 156 646 71.5 c 128,-1,12
 549 -13 549 -13 389 -13 c 128,-1,13
 229 -13 229 -13 132 71.5 c 128,-1,14
 35 156 35 156 35 300 c 128,-1,7
 35 444 35 444 131.5 528.5 c 128,-1,8
242.5 100.5 m 128,-1,16
 297 27 297 27 388.5 27 c 128,-1,17
 480 27 480 27 534.5 100.5 c 128,-1,18
 589 174 589 174 589 300 c 128,-1,19
 589 426 589 426 534.5 499.5 c 128,-1,20
 480 573 480 573 388.5 573 c 128,-1,21
 297 573 297 573 242.5 499.5 c 128,-1,22
 188 426 188 426 188 300 c 128,-1,15
 188 174 188 174 242.5 100.5 c 128,-1,16
EndSplineSet
EndChar

StartChar: otilde
Encoding: 245 245 181
Width: 777
GlyphClass: 2
Flags: W
LayerCount: 2
Fore
SplineSet
557 790 m 1,0,-1
 568 790 l 1,1,2
 571 779 571 779 571 768 c 0,3,4
 571 738 571 738 551 707 c 0,5,6
 524 665 524 665 472 665 c 0,7,8
 442 665 442 665 396 688.5 c 128,-1,9
 350 712 350 712 336 713.5 c 128,-1,10
 322 715 322 715 309.5 715 c 128,-1,11
 297 715 297 715 277.5 701.5 c 128,-1,12
 258 688 258 688 249 668 c 1,13,-1
 238 668 l 1,14,15
 237 675 237 675 237 683 c 0,16,17
 237 721 237 721 260.5 760 c 128,-1,18
 284 799 284 799 334 799 c 0,19,20
 362 799 362 799 410.5 774.5 c 128,-1,21
 459 750 459 750 497 750 c 0,22,23
 510 750 510 750 530 761.5 c 128,-1,24
 550 773 550 773 557 790 c 1,0,-1
131.5 528.5 m 128,-1,26
 228 613 228 613 388.5 613 c 128,-1,27
 549 613 549 613 646 528.5 c 128,-1,28
 743 444 743 444 743 300 c 128,-1,29
 743 156 743 156 646 71.5 c 128,-1,30
 549 -13 549 -13 389 -13 c 128,-1,31
 229 -13 229 -13 132 71.5 c 128,-1,32
 35 156 35 156 35 300 c 128,-1,25
 35 444 35 444 131.5 528.5 c 128,-1,26
242.5 100.5 m 128,-1,34
 297 27 297 27 388.5 27 c 128,-1,35
 480 27 480 27 534.5 100.5 c 128,-1,36
 589 174 589 174 589 300 c 128,-1,37
 589 426 589 426 534.5 499.5 c 128,-1,38
 480 573 480 573 388.5 573 c 128,-1,39
 297 573 297 573 242.5 499.5 c 128,-1,40
 188 426 188 426 188 300 c 128,-1,33
 188 174 188 174 242.5 100.5 c 128,-1,34
EndSplineSet
EndChar

StartChar: odieresis
Encoding: 246 246 182
Width: 777
GlyphClass: 2
Flags: W
LayerCount: 2
Fore
SplineSet
270 659 m 128,-1,1
 245 659 245 659 227.5 677 c 128,-1,2
 210 695 210 695 210 719.5 c 128,-1,3
 210 744 210 744 227.5 762 c 128,-1,4
 245 780 245 780 270 780 c 128,-1,5
 295 780 295 780 312.5 762 c 128,-1,6
 330 744 330 744 330 719.5 c 128,-1,7
 330 695 330 695 312.5 677 c 128,-1,0
 295 659 295 659 270 659 c 128,-1,1
503.5 659 m 128,-1,9
 479 659 479 659 461 677 c 128,-1,10
 443 695 443 695 443 719.5 c 128,-1,11
 443 744 443 744 461 762 c 128,-1,12
 479 780 479 780 503.5 780 c 128,-1,13
 528 780 528 780 546 762 c 128,-1,14
 564 744 564 744 564 719.5 c 128,-1,15
 564 695 564 695 546 677 c 128,-1,8
 528 659 528 659 503.5 659 c 128,-1,9
131.5 528.5 m 128,-1,17
 228 613 228 613 388.5 613 c 128,-1,18
 549 613 549 613 646 528.5 c 128,-1,19
 743 444 743 444 743 300 c 128,-1,20
 743 156 743 156 646 71.5 c 128,-1,21
 549 -13 549 -13 389 -13 c 128,-1,22
 229 -13 229 -13 132 71.5 c 128,-1,23
 35 156 35 156 35 300 c 128,-1,16
 35 444 35 444 131.5 528.5 c 128,-1,17
242.5 100.5 m 128,-1,25
 297 27 297 27 388.5 27 c 128,-1,26
 480 27 480 27 534.5 100.5 c 128,-1,27
 589 174 589 174 589 300 c 128,-1,28
 589 426 589 426 534.5 499.5 c 128,-1,29
 480 573 480 573 388.5 573 c 128,-1,30
 297 573 297 573 242.5 499.5 c 128,-1,31
 188 426 188 426 188 300 c 128,-1,24
 188 174 188 174 242.5 100.5 c 128,-1,25
EndSplineSet
EndChar

StartChar: divide
Encoding: 247 247 183
Width: 481
GlyphClass: 2
Flags: W
LayerCount: 2
Fore
SplineSet
240.5 423 m 128,-1,1
 222 423 222 423 208.5 436 c 128,-1,2
 195 449 195 449 195 468 c 128,-1,3
 195 487 195 487 208.5 500.5 c 128,-1,4
 222 514 222 514 240.5 514 c 128,-1,5
 259 514 259 514 272.5 500.5 c 128,-1,6
 286 487 286 487 286 468 c 128,-1,7
 286 449 286 449 272.5 436 c 128,-1,0
 259 423 259 423 240.5 423 c 128,-1,1
40 281 m 1,8,-1
 40 338 l 1,9,-1
 442 338 l 1,10,-1
 442 281 l 1,11,-1
 40 281 l 1,8,-1
240.5 107 m 128,-1,13
 222 107 222 107 208.5 120 c 128,-1,14
 195 133 195 133 195 152 c 128,-1,15
 195 171 195 171 208.5 184.5 c 128,-1,16
 222 198 222 198 240.5 198 c 128,-1,17
 259 198 259 198 272.5 184.5 c 128,-1,18
 286 171 286 171 286 152 c 128,-1,19
 286 133 286 133 272.5 120 c 128,-1,12
 259 107 259 107 240.5 107 c 128,-1,13
EndSplineSet
EndChar

StartChar: oslash
Encoding: 248 248 184
Width: 777
GlyphClass: 2
Flags: W
LayerCount: 2
Fore
SplineSet
743 300 m 0,0,1
 743 156 743 156 646 71.5 c 128,-1,2
 549 -13 549 -13 388 -13 c 0,3,4
 271 -13 271 -13 185 35 c 1,5,-1
 131 -29 l 1,6,-1
 95 1 l 1,7,-1
 145 61 l 1,8,9
 35 146 35 146 35 295 c 128,-1,10
 35 444 35 444 131.5 528.5 c 128,-1,11
 228 613 228 613 388 613 c 0,12,13
 494 613 494 613 575 573 c 1,14,-1
 630 638 l 1,15,-1
 666 608 l 1,16,-1
 617 549 l 1,17,18
 677 508 677 508 710 444 c 128,-1,19
 743 380 743 380 743 300 c 0,0,1
524 512 m 1,20,21
 471 573 471 573 384 573 c 128,-1,22
 297 573 297 573 242.5 499.5 c 128,-1,23
 188 426 188 426 188 300 c 0,24,25
 188 211 188 211 216 146 c 1,26,-1
 524 512 l 1,20,21
241 102 m 1,27,28
 296 27 296 27 388 27 c 128,-1,29
 480 27 480 27 534.5 100.5 c 128,-1,30
 589 174 589 174 589 288 c 128,-1,31
 589 402 589 402 552 472 c 1,32,-1
 241 102 l 1,27,28
EndSplineSet
EndChar

StartChar: ugrave
Encoding: 249 249 185
Width: 704
GlyphClass: 2
Flags: W
LayerCount: 2
Fore
SplineSet
398 671 m 1,0,-1
 391 664 l 1,1,2
 291 688 291 688 187 754 c 1,3,4
 206 811 206 811 254 835 c 1,5,6
 356 744 356 744 398 671 c 1,0,-1
685 590 m 1,7,-1
 671 590 l 2,8,9
 652 590 652 590 639 578.5 c 128,-1,10
 626 567 626 567 625 549 c 1,11,-1
 625 218 l 2,12,13
 625 110 625 110 559 48.5 c 128,-1,14
 493 -13 493 -13 362.5 -13 c 128,-1,15
 232 -13 232 -13 159.5 47 c 128,-1,16
 87 107 87 107 87 216 c 2,17,-1
 87 548 l 2,18,19
 87 566 87 566 73.5 578 c 128,-1,20
 60 590 60 590 41 590 c 2,21,-1
 27 590 l 1,22,-1
 27 600 l 1,23,-1
 290 600 l 1,24,-1
 290 590 l 1,25,-1
 276 590 l 2,26,27
 257 590 257 590 244 578 c 128,-1,28
 231 566 231 566 231 548 c 2,29,-1
 231 223 l 2,30,31
 231 131 231 131 273.5 79 c 128,-1,32
 316 27 316 27 393 27 c 128,-1,33
 470 27 470 27 514.5 76 c 128,-1,34
 559 125 559 125 559 212 c 2,35,-1
 559 548 l 1,36,37
 558 567 558 567 545 578.5 c 128,-1,38
 532 590 532 590 513 590 c 2,39,-1
 500 590 l 1,40,-1
 500 600 l 1,41,-1
 685 600 l 1,42,-1
 685 590 l 1,7,-1
EndSplineSet
EndChar

StartChar: uacute
Encoding: 250 250 186
Width: 704
GlyphClass: 2
Flags: W
LayerCount: 2
Fore
SplineSet
369 662 m 1,0,-1
 362 669 l 1,1,2
 405 743 405 743 506 833 c 1,3,4
 554 808 554 808 573 752 c 1,5,6
 471 687 471 687 369 662 c 1,0,-1
685 590 m 1,7,-1
 671 590 l 2,8,9
 652 590 652 590 639 578.5 c 128,-1,10
 626 567 626 567 625 549 c 1,11,-1
 625 218 l 2,12,13
 625 110 625 110 559 48.5 c 128,-1,14
 493 -13 493 -13 362.5 -13 c 128,-1,15
 232 -13 232 -13 159.5 47 c 128,-1,16
 87 107 87 107 87 216 c 2,17,-1
 87 548 l 2,18,19
 87 566 87 566 73.5 578 c 128,-1,20
 60 590 60 590 41 590 c 2,21,-1
 27 590 l 1,22,-1
 27 600 l 1,23,-1
 290 600 l 1,24,-1
 290 590 l 1,25,-1
 276 590 l 2,26,27
 257 590 257 590 244 578 c 128,-1,28
 231 566 231 566 231 548 c 2,29,-1
 231 223 l 2,30,31
 231 131 231 131 273.5 79 c 128,-1,32
 316 27 316 27 393 27 c 128,-1,33
 470 27 470 27 514.5 76 c 128,-1,34
 559 125 559 125 559 212 c 2,35,-1
 559 548 l 1,36,37
 558 567 558 567 545 578.5 c 128,-1,38
 532 590 532 590 513 590 c 2,39,-1
 500 590 l 1,40,-1
 500 600 l 1,41,-1
 685 600 l 1,42,-1
 685 590 l 1,7,-1
EndSplineSet
EndChar

StartChar: ucircumflex
Encoding: 251 251 187
Width: 704
GlyphClass: 2
Flags: W
LayerCount: 2
Fore
SplineSet
373 815 m 1,0,-1
 384 815 l 1,1,-1
 537 662 l 1,2,-1
 530 654 l 1,3,-1
 378 719 l 1,4,-1
 235 654 l 1,5,-1
 229 662 l 1,6,-1
 373 815 l 1,0,-1
685 590 m 1,7,-1
 671 590 l 2,8,9
 645 590 645 590 632 570 c 0,10,11
 625 561 625 561 625 549 c 2,12,-1
 625 218 l 2,13,14
 625 110 625 110 559 48.5 c 128,-1,15
 493 -13 493 -13 362.5 -13 c 128,-1,16
 232 -13 232 -13 159.5 47 c 128,-1,17
 87 107 87 107 87 216 c 2,18,-1
 87 548 l 2,19,20
 87 566 87 566 73.5 578 c 128,-1,21
 60 590 60 590 41 590 c 2,22,-1
 27 590 l 1,23,-1
 27 600 l 1,24,-1
 290 600 l 1,25,-1
 290 590 l 1,26,-1
 276 590 l 2,27,28
 257 590 257 590 244 578 c 128,-1,29
 231 566 231 566 231 548 c 2,30,-1
 231 223 l 2,31,32
 231 131 231 131 273.5 79 c 128,-1,33
 316 27 316 27 393 27 c 128,-1,34
 470 27 470 27 514.5 76 c 128,-1,35
 559 125 559 125 559 212 c 2,36,-1
 559 548 l 1,37,38
 558 567 558 567 545 578.5 c 128,-1,39
 532 590 532 590 513 590 c 2,40,-1
 500 590 l 1,41,-1
 500 600 l 1,42,-1
 685 600 l 1,43,-1
 685 590 l 1,7,-1
EndSplineSet
EndChar

StartChar: udieresis
Encoding: 252 252 188
Width: 704
GlyphClass: 2
Flags: W
LayerCount: 2
Fore
SplineSet
260 659 m 128,-1,1
 235 659 235 659 217.5 676.5 c 128,-1,2
 200 694 200 694 200 719 c 128,-1,3
 200 744 200 744 217.5 761.5 c 128,-1,4
 235 779 235 779 260 779 c 128,-1,5
 285 779 285 779 302.5 761.5 c 128,-1,6
 320 744 320 744 320 719 c 128,-1,7
 320 694 320 694 302.5 676.5 c 128,-1,0
 285 659 285 659 260 659 c 128,-1,1
494 659 m 128,-1,9
 469 659 469 659 451.5 676.5 c 128,-1,10
 434 694 434 694 434 719 c 128,-1,11
 434 744 434 744 451.5 761.5 c 128,-1,12
 469 779 469 779 494 779 c 128,-1,13
 519 779 519 779 536.5 761.5 c 128,-1,14
 554 744 554 744 554 719 c 128,-1,15
 554 694 554 694 536.5 676.5 c 128,-1,8
 519 659 519 659 494 659 c 128,-1,9
685 590 m 1,16,-1
 671 590 l 2,17,18
 652 590 652 590 639 578.5 c 128,-1,19
 626 567 626 567 625 549 c 1,20,-1
 625 218 l 2,21,22
 625 110 625 110 559 48.5 c 128,-1,23
 493 -13 493 -13 362.5 -13 c 128,-1,24
 232 -13 232 -13 159.5 47 c 128,-1,25
 87 107 87 107 87 216 c 2,26,-1
 87 548 l 2,27,28
 87 566 87 566 73.5 578 c 128,-1,29
 60 590 60 590 41 590 c 2,30,-1
 27 590 l 1,31,-1
 27 600 l 1,32,-1
 290 600 l 1,33,-1
 290 590 l 1,34,-1
 276 590 l 2,35,36
 257 590 257 590 244 578 c 128,-1,37
 231 566 231 566 231 548 c 2,38,-1
 231 223 l 2,39,40
 231 131 231 131 273.5 79 c 128,-1,41
 316 27 316 27 393 27 c 128,-1,42
 470 27 470 27 514.5 76 c 128,-1,43
 559 125 559 125 559 212 c 2,44,-1
 559 548 l 1,45,46
 558 567 558 567 545 578.5 c 128,-1,47
 532 590 532 590 513 590 c 2,48,-1
 500 590 l 1,49,-1
 500 600 l 1,50,-1
 685 600 l 1,51,-1
 685 590 l 1,16,-1
EndSplineSet
EndChar

StartChar: yacute
Encoding: 253 253 189
Width: 635
GlyphClass: 2
Flags: W
LayerCount: 2
Fore
SplineSet
347 662 m 1,0,-1
 340 669 l 1,1,2
 383 743 383 743 484 833 c 1,3,4
 533 808 533 808 552 752 c 1,5,6
 449 687 449 687 347 662 c 1,0,-1
669 590 m 1,7,-1
 656 590 l 2,8,9
 630 590 630 590 606.5 576 c 128,-1,10
 583 562 583 562 568 541 c 1,11,-1
 390 267 l 1,12,-1
 390 63 l 1,13,14
 391 41 391 41 407 25.5 c 128,-1,15
 423 10 423 10 447 10 c 2,16,-1
 458 10 l 1,17,-1
 458 0 l 1,18,-1
 178 0 l 1,19,-1
 178 10 l 1,20,-1
 190 10 l 2,21,22
 213 10 213 10 229 25.5 c 128,-1,23
 245 41 245 41 246 63 c 1,24,-1
 246 267 l 1,25,-1
 69 541 l 2,26,27
 55 563 55 563 31.5 576.5 c 128,-1,28
 8 590 8 590 -19 590 c 2,29,-1
 -31 590 l 1,30,-1
 -31 600 l 1,31,-1
 273 600 l 1,32,-1
 273 590 l 1,33,-1
 262 590 l 2,34,35
 243 590 243 590 234.5 577.5 c 128,-1,36
 226 565 226 565 226 556.5 c 128,-1,37
 226 548 226 548 230 541 c 2,38,-1
 363 311 l 1,39,-1
 498 541 l 2,40,41
 501 548 501 548 501 556.5 c 128,-1,42
 501 565 501 565 492.5 577.5 c 128,-1,43
 484 590 484 590 465 590 c 2,44,-1
 455 590 l 1,45,-1
 455 600 l 1,46,-1
 669 600 l 1,47,-1
 669 590 l 1,7,-1
EndSplineSet
EndChar

StartChar: thorn
Encoding: 254 254 190
Width: 571
GlyphClass: 2
Flags: W
LayerCount: 2
Fore
SplineSet
567 303 m 0,0,1
 567 251 567 251 543 207 c 1,2,3
 494 122 494 122 394 122 c 0,4,5
 334 122 334 122 282 157 c 1,6,-1
 282 165 l 1,7,8
 326 160 326 160 365 190 c 0,9,10
 399 216 399 216 413 267 c 0,11,12
 419 289 419 289 419 303 c 128,-1,13
 419 317 419 317 419 320 c 0,14,15
 417 376 417 376 385 408 c 128,-1,16
 353 440 353 440 298 440 c 2,17,-1
 251 440 l 1,18,-1
 251 63 l 1,19,20
 252 32 252 32 278 17 c 0,21,22
 291 10 291 10 305 10 c 2,23,-1
 317 10 l 1,24,-1
 317 0 l 1,25,-1
 43 0 l 1,26,-1
 44 10 l 1,27,-1
 55 10 l 2,28,29
 78 10 78 10 93.5 25.5 c 128,-1,30
 109 41 109 41 110 63 c 1,31,-1
 110 538 l 1,32,33
 109 560 109 560 93.5 575 c 128,-1,34
 78 590 78 590 55 590 c 2,35,-1
 44 590 l 1,36,-1
 43 600 l 1,37,-1
 317 600 l 1,38,-1
 317 590 l 1,39,-1
 305 590 l 2,40,41
 274 590 274 590 259 565 c 0,42,43
 251 553 251 553 251 538 c 2,44,-1
 251 479 l 1,45,-1
 336 479 l 2,46,47
 450 479 450 479 507 433 c 0,48,49
 567 385 567 385 567 303 c 0,0,1
EndSplineSet
EndChar

StartChar: ydieresis
Encoding: 255 255 191
Width: 635
GlyphClass: 2
Flags: W
LayerCount: 2
Fore
SplineSet
239 659 m 128,-1,1
 214 659 214 659 196.5 676.5 c 128,-1,2
 179 694 179 694 179 719 c 128,-1,3
 179 744 179 744 196.5 761.5 c 128,-1,4
 214 779 214 779 239 779 c 128,-1,5
 264 779 264 779 281.5 761.5 c 128,-1,6
 299 744 299 744 299 719 c 128,-1,7
 299 694 299 694 281.5 676.5 c 128,-1,0
 264 659 264 659 239 659 c 128,-1,1
472 659 m 128,-1,9
 447 659 447 659 429.5 676.5 c 128,-1,10
 412 694 412 694 412 719 c 128,-1,11
 412 744 412 744 429.5 761.5 c 128,-1,12
 447 779 447 779 472 779 c 128,-1,13
 497 779 497 779 514.5 761.5 c 128,-1,14
 532 744 532 744 532 719 c 128,-1,15
 532 694 532 694 514.5 676.5 c 128,-1,8
 497 659 497 659 472 659 c 128,-1,9
669 590 m 1,16,-1
 656 590 l 2,17,18
 602 590 602 590 568 541 c 1,19,-1
 390 267 l 1,20,-1
 390 63 l 1,21,22
 391 41 391 41 407 25.5 c 128,-1,23
 423 10 423 10 447 10 c 2,24,-1
 458 10 l 1,25,-1
 458 0 l 1,26,-1
 178 0 l 1,27,-1
 178 10 l 1,28,-1
 190 10 l 2,29,30
 222 10 222 10 238 36 c 0,31,32
 245 48 245 48 246 63 c 1,33,-1
 246 267 l 1,34,-1
 69 541 l 2,35,36
 55 563 55 563 31.5 576.5 c 128,-1,37
 8 590 8 590 -19 590 c 2,38,-1
 -31 590 l 1,39,-1
 -31 600 l 1,40,-1
 273 600 l 1,41,-1
 273 590 l 1,42,-1
 262 590 l 2,43,44
 243 590 243 590 234.5 577.5 c 128,-1,45
 226 565 226 565 226 556.5 c 128,-1,46
 226 548 226 548 230 541 c 2,47,-1
 363 311 l 1,48,-1
 498 541 l 2,49,50
 501 548 501 548 501 556.5 c 128,-1,51
 501 565 501 565 492.5 577.5 c 128,-1,52
 484 590 484 590 465 590 c 2,53,-1
 455 590 l 1,54,-1
 455 600 l 1,55,-1
 669 600 l 1,56,-1
 669 590 l 1,16,-1
EndSplineSet
EndChar

StartChar: Amacron
Encoding: 256 256 192
Width: 716
GlyphClass: 2
Flags: W
LayerCount: 2
Fore
SplineSet
218 795 m 1,0,-1
 218 861 l 1,1,-1
 492 861 l 1,2,-1
 492 795 l 1,3,-1
 218 795 l 1,0,-1
737 10 m 2,4,-1
 746 10 l 1,5,-1
 746 0 l 1,6,-1
 427 0 l 1,7,-1
 427 10 l 1,8,-1
 436 10 l 2,9,10
 458 10 458 10 468.5 23.5 c 128,-1,11
 479 37 479 37 479 49 c 128,-1,12
 479 61 479 61 474 73 c 2,13,-1
 425 196 l 1,14,-1
 191 196 l 1,15,-1
 139 73 l 2,16,17
 134 60 134 60 134 48.5 c 128,-1,18
 134 37 134 37 144.5 23.5 c 128,-1,19
 155 10 155 10 178 10 c 2,20,-1
 186 10 l 1,21,-1
 186 0 l 1,22,-1
 -28 0 l 1,23,-1
 -28 10 l 1,24,-1
 -19 10 l 2,25,26
 4 10 4 10 27 24 c 128,-1,27
 50 38 50 38 65 66 c 1,28,-1
 296 589 l 1,29,30
 343 688 343 688 346 720 c 1,31,-1
 355 720 l 1,32,-1
 652 68 l 1,33,34
 667 39 667 39 690 24.5 c 128,-1,35
 713 10 713 10 737 10 c 2,4,-1
208 238 m 1,36,-1
 408 238 l 1,37,-1
 311 484 l 1,38,-1
 208 238 l 1,36,-1
EndSplineSet
EndChar

StartChar: amacron
Encoding: 257 257 193
Width: 644
GlyphClass: 2
Flags: W
LayerCount: 2
Fore
SplineSet
181 695 m 1,0,-1
 181 761 l 1,1,-1
 455 761 l 1,2,-1
 455 695 l 1,3,-1
 181 695 l 1,0,-1
665 10 m 2,4,-1
 673 10 l 1,5,-1
 673 0 l 1,6,-1
 379 0 l 1,7,-1
 379 10 l 1,8,-1
 387 10 l 2,9,10
 407 10 407 10 416 22 c 128,-1,11
 425 34 425 34 425 44 c 128,-1,12
 425 54 425 54 421 66 c 1,13,-1
 382 157 l 1,14,-1
 170 157 l 1,15,-1
 130 64 l 1,16,17
 116 27 116 27 148 13 c 0,18,19
 156 10 156 10 165 10 c 2,20,-1
 173 10 l 1,21,-1
 173 0 l 1,22,-1
 -27 0 l 1,23,-1
 -27 10 l 1,24,-1
 -19 10 l 2,25,26
 2 10 2 10 23 23 c 128,-1,27
 44 36 44 36 57 62 c 2,28,-1
 264 506 l 1,29,30
 308 605 308 605 310 628 c 1,31,-1
 319 628 l 1,32,-1
 587 66 l 2,33,34
 600 37 600 37 621.5 23.5 c 128,-1,35
 643 10 643 10 665 10 c 2,4,-1
187 196 m 1,36,-1
 365 196 l 1,37,-1
 277 405 l 1,38,-1
 187 196 l 1,36,-1
EndSplineSet
EndChar

StartChar: Abreve
Encoding: 258 258 194
Width: 716
GlyphClass: 2
Flags: W
LayerCount: 2
Fore
SplineSet
479 884 m 0,0,1
 479 841 479 841 444 802.5 c 128,-1,2
 409 764 409 764 351.5 764 c 128,-1,3
 294 764 294 764 259.5 802.5 c 128,-1,4
 225 841 225 841 225 884 c 0,5,6
 225 894 225 894 227 904 c 1,7,-1
 238 904 l 1,8,9
 249 879 249 879 280.5 861.5 c 128,-1,10
 312 844 312 844 351.5 844 c 128,-1,11
 391 844 391 844 423 861.5 c 128,-1,12
 455 879 455 879 466 904 c 1,13,-1
 477 904 l 1,14,15
 479 894 479 894 479 884 c 0,0,1
737 10 m 2,17,-1
 746 10 l 1,18,-1
 746 0 l 1,19,-1
 427 0 l 1,20,-1
 427 10 l 1,21,-1
 436 10 l 2,22,23
 458 10 458 10 468.5 23.5 c 128,-1,24
 479 37 479 37 479 49 c 128,-1,25
 479 61 479 61 474 73 c 2,26,-1
 425 196 l 1,27,-1
 191 196 l 1,28,-1
 139 73 l 2,29,30
 134 60 134 60 134 52 c 128,-1,31
 134 44 134 44 137.5 34.5 c 128,-1,32
 141 25 141 25 152.5 17.5 c 128,-1,33
 164 10 164 10 178 10 c 2,34,-1
 186 10 l 1,35,-1
 186 0 l 1,36,-1
 -28 0 l 1,37,-1
 -28 10 l 1,38,-1
 -19 10 l 2,39,40
 4 10 4 10 27 24 c 128,-1,41
 50 38 50 38 65 66 c 1,42,-1
 296 589 l 1,43,44
 343 688 343 688 346 720 c 1,45,-1
 355 720 l 1,46,-1
 652 68 l 1,47,48
 667 39 667 39 690 24.5 c 128,-1,16
 713 10 713 10 737 10 c 2,17,-1
208 238 m 1,49,-1
 408 238 l 1,50,-1
 311 484 l 1,51,-1
 208 238 l 1,49,-1
EndSplineSet
EndChar

StartChar: abreve
Encoding: 259 259 195
Width: 644
GlyphClass: 2
Flags: W
LayerCount: 2
Fore
SplineSet
442 784 m 0,0,1
 442 741 442 741 407 702.5 c 128,-1,2
 372 664 372 664 315 664 c 0,3,4
 278 664 278 664 247 683.5 c 128,-1,5
 216 703 216 703 202.5 731 c 128,-1,6
 189 759 189 759 189 777 c 128,-1,7
 189 795 189 795 190 804 c 1,8,-1
 202 804 l 1,9,10
 212 779 212 779 244 761.5 c 128,-1,11
 276 744 276 744 315.5 744 c 128,-1,12
 355 744 355 744 387 761.5 c 128,-1,13
 419 779 419 779 429 804 c 1,14,-1
 441 804 l 1,15,16
 442 794 442 794 442 784 c 0,0,1
665 10 m 2,18,-1
 673 10 l 1,19,-1
 673 0 l 1,20,-1
 379 0 l 1,21,-1
 379 10 l 1,22,-1
 387 10 l 2,23,24
 407 10 407 10 416 22 c 128,-1,25
 425 34 425 34 425 44 c 128,-1,26
 425 54 425 54 421 65 c 2,27,-1
 382 157 l 1,28,-1
 170 157 l 1,29,-1
 130 64 l 1,30,31
 116 27 116 27 148 13 c 0,32,33
 156 10 156 10 165 10 c 2,34,-1
 173 10 l 1,35,-1
 173 0 l 1,36,-1
 -27 0 l 1,37,-1
 -27 10 l 1,38,-1
 -19 10 l 2,39,40
 2 10 2 10 23 23 c 128,-1,41
 44 36 44 36 57 62 c 2,42,-1
 264 506 l 1,43,44
 308 605 308 605 310 628 c 1,45,-1
 319 628 l 1,46,-1
 587 66 l 2,47,48
 600 37 600 37 621.5 23.5 c 128,-1,17
 643 10 643 10 665 10 c 2,18,-1
187 196 m 1,49,-1
 365 196 l 1,50,-1
 277 405 l 1,51,-1
 187 196 l 1,49,-1
EndSplineSet
EndChar

StartChar: Aogonek
Encoding: 260 260 196
Width: 726
GlyphClass: 2
Flags: W
LayerCount: 2
Fore
SplineSet
545 0 m 0,0,1
 481 -13 481 -13 481 -72 c 0,2,3
 481 -99 481 -99 500.5 -117.5 c 128,-1,4
 520 -136 520 -136 547 -136 c 128,-1,5
 574 -136 574 -136 598 -114 c 1,6,-1
 604 -120 l 1,7,8
 599 -153 599 -153 577 -173 c 1,9,10
 552 -194 552 -194 523 -194 c 0,11,12
 452 -194 452 -194 424 -148 c 0,13,14
 410 -125 410 -125 410 -97 c 0,15,16
 410 -60 410 -60 427 -40.5 c 128,-1,17
 444 -21 444 -21 467 -7 c 0,18,19
 494 10 494 10 494 28 c 128,-1,20
 494 46 494 46 485 69 c 2,21,-1
 433 196 l 1,22,-1
 193 196 l 1,23,-1
 139 73 l 2,24,25
 134 60 134 60 134 48.5 c 128,-1,26
 134 37 134 37 144.5 23.5 c 128,-1,27
 155 10 155 10 178 10 c 2,28,-1
 186 10 l 1,29,-1
 186 0 l 1,30,-1
 -28 0 l 1,31,-1
 -28 10 l 1,32,-1
 -19 10 l 2,33,34
 6 10 6 10 30 26 c 128,-1,35
 54 42 54 42 68 73 c 2,36,-1
 302 583 l 2,37,38
 348 682 348 682 351 714 c 1,39,-1
 360 714 l 1,40,-1
 661 71 l 2,41,42
 686 18 686 18 747 11 c 2,43,-1
 755 10 l 1,44,-1
 755 0 l 1,45,46
 744 0 744 0 698.5 3 c 128,-1,47
 653 6 653 6 633 6 c 0,48,49
 573 6 573 6 545 0 c 0,0,1
211 238 m 1,50,-1
 415 238 l 1,51,-1
 315 481 l 1,52,-1
 211 238 l 1,50,-1
EndSplineSet
EndChar

StartChar: aogonek
Encoding: 261 261 197
Width: 632
GlyphClass: 2
Flags: W
LayerCount: 2
Fore
SplineSet
403 -69 m 0,0,1
 403 -103 403 -103 422.5 -121.5 c 128,-1,2
 442 -140 442 -140 468.5 -140 c 128,-1,3
 495 -140 495 -140 520 -118 c 1,4,-1
 526 -124 l 1,5,6
 518 -180 518 -180 464 -195 c 0,7,8
 448 -199 448 -199 433 -199 c 0,9,10
 398 -199 398 -199 365 -173.5 c 128,-1,11
 332 -148 332 -148 332 -101 c 0,12,13
 332 -61 332 -61 352.5 -39 c 128,-1,14
 373 -17 373 -17 398 -4 c 0,15,16
 430 12 430 12 430 34 c 0,17,18
 430 47 430 47 423 69 c 1,19,-1
 384 160 l 1,20,-1
 170 160 l 1,21,-1
 128 65 l 2,22,23
 124 54 124 54 124 43.5 c 128,-1,24
 124 33 124 33 133.5 21.5 c 128,-1,25
 143 10 143 10 162 10 c 2,26,-1
 170 10 l 1,27,-1
 170 0 l 1,28,-1
 -24 0 l 1,29,-1
 -24 10 l 1,30,-1
 -16 10 l 2,31,32
 6 10 6 10 26.5 23 c 128,-1,33
 47 36 47 36 61 63 c 1,34,-1
 265 501 l 1,35,36
 308 597 308 597 311 621 c 1,37,-1
 319 621 l 1,38,-1
 585 62 l 2,39,40
 599 34 599 34 624.5 21 c 128,-1,41
 650 8 650 8 665 8 c 1,42,-1
 665 -2 l 1,43,-1
 551 3 l 1,44,45
 493 3 493 3 462 -4 c 0,46,47
 403 -18 403 -18 403 -69 c 0,0,1
187 199 m 1,48,-1
 368 199 l 1,49,-1
 279 411 l 1,50,-1
 187 199 l 1,48,-1
EndSplineSet
EndChar

StartChar: Cacute
Encoding: 262 262 198
Width: 780
GlyphClass: 2
Flags: W
LayerCount: 2
Fore
SplineSet
418 762 m 1,0,-1
 411 769 l 1,1,2
 454 843 454 843 555 933 c 1,3,4
 604 908 604 908 623 852 c 1,5,6
 520 787 520 787 418 762 c 1,0,-1
155 84 m 128,-1,8
 45 181 45 181 45 350 c 128,-1,9
 45 519 45 519 154 616.5 c 128,-1,10
 263 714 263 714 453 714 c 0,11,12
 598 714 598 714 702 660 c 1,13,-1
 704 488 l 1,14,-1
 696 488 l 1,15,16
 645 672 645 672 463 672 c 0,17,18
 345 672 345 672 276.5 586.5 c 128,-1,19
 208 501 208 501 208 353 c 128,-1,20
 208 205 208 205 273.5 118 c 128,-1,21
 339 31 339 31 451 28 c 1,22,23
 568 28 568 28 629.5 87.5 c 128,-1,24
 691 147 691 147 714 292 c 1,25,-1
 722 292 l 1,26,-1
 732 120 l 1,27,28
 651 -14 651 -14 458 -13.5 c 128,-1,7
 265 -13 265 -13 155 84 c 128,-1,8
EndSplineSet
EndChar

StartChar: cacute
Encoding: 263 263 199
Width: 682
GlyphClass: 2
Flags: W
LayerCount: 2
Fore
SplineSet
368 671 m 1,0,-1
 361 678 l 1,1,2
 404 752 404 752 505 843 c 1,3,4
 553 818 553 818 573 761 c 1,5,6
 470 696 470 696 368 671 c 1,0,-1
130 70.5 m 128,-1,8
 34 153 34 153 34 300 c 128,-1,9
 34 447 34 447 129.5 530 c 128,-1,10
 225 613 225 613 394 613 c 0,11,12
 526 613 526 613 619 567 c 1,13,-1
 619 408 l 1,14,-1
 612 408 l 1,15,16
 587 497 587 497 535 535 c 128,-1,17
 483 573 483 573 404 573 c 0,18,19
 298 573 298 573 242 500.5 c 128,-1,20
 186 428 186 428 186 302.5 c 128,-1,21
 186 177 186 177 241 103 c 0,22,23
 298 27 298 27 396 27 c 0,24,25
 467 27 467 27 513 49 c 128,-1,26
 559 71 559 71 586 119.5 c 128,-1,27
 613 168 613 168 626 251 c 1,28,-1
 633 251 l 1,29,-1
 645 100 l 1,30,31
 614 49 614 49 550.5 18 c 128,-1,32
 487 -13 487 -13 394 -13 c 0,33,7
 226 -12 226 -12 130 70.5 c 128,-1,8
EndSplineSet
EndChar

StartChar: Cdotaccent
Encoding: 266 266 200
Width: 780
GlyphClass: 2
Flags: W
LayerCount: 2
Fore
SplineSet
428.5 764 m 128,-1,1
 403 764 403 764 384.5 782 c 128,-1,2
 366 800 366 800 366 825.5 c 128,-1,3
 366 851 366 851 384.5 869.5 c 128,-1,4
 403 888 403 888 428.5 888 c 128,-1,5
 454 888 454 888 472 869.5 c 128,-1,6
 490 851 490 851 490 825.5 c 128,-1,7
 490 800 490 800 472 782 c 128,-1,0
 454 764 454 764 428.5 764 c 128,-1,1
155 84 m 128,-1,9
 45 181 45 181 45 350 c 128,-1,10
 45 519 45 519 154 616.5 c 128,-1,11
 263 714 263 714 453 714 c 0,12,13
 598 714 598 714 702 660 c 1,14,-1
 704 488 l 1,15,-1
 696 488 l 1,16,17
 645 672 645 672 463 672 c 0,18,19
 345 672 345 672 276.5 586.5 c 128,-1,20
 208 501 208 501 208 353 c 128,-1,21
 208 205 208 205 273.5 118 c 128,-1,22
 339 31 339 31 451 28 c 1,23,24
 567 28 567 28 628 86 c 0,25,26
 690 146 690 146 714 292 c 1,27,-1
 722 292 l 1,28,-1
 732 120 l 1,29,30
 651 -14 651 -14 458 -13.5 c 128,-1,8
 265 -13 265 -13 155 84 c 128,-1,9
EndSplineSet
EndChar

StartChar: cdotaccent
Encoding: 267 267 201
Width: 682
GlyphClass: 2
Flags: W
LayerCount: 2
Fore
SplineSet
377.5 674 m 128,-1,1
 352 674 352 674 334 692 c 128,-1,2
 316 710 316 710 316 735.5 c 128,-1,3
 316 761 316 761 334 779 c 128,-1,4
 352 797 352 797 377.5 797 c 128,-1,5
 403 797 403 797 421 779 c 128,-1,6
 439 761 439 761 439 735.5 c 128,-1,7
 439 710 439 710 421 692 c 128,-1,0
 403 674 403 674 377.5 674 c 128,-1,1
130 70.5 m 128,-1,9
 34 153 34 153 34 300 c 128,-1,10
 34 447 34 447 129.5 530 c 128,-1,11
 225 613 225 613 394 613 c 0,12,13
 526 613 526 613 619 567 c 1,14,-1
 619 408 l 1,15,-1
 612 408 l 1,16,17
 587 497 587 497 535 535 c 128,-1,18
 483 573 483 573 404 573 c 0,19,20
 298 573 298 573 242 500.5 c 128,-1,21
 186 428 186 428 186 302.5 c 128,-1,22
 186 177 186 177 241 103 c 0,23,24
 298 27 298 27 400 27 c 128,-1,25
 502 27 502 27 554.5 78 c 128,-1,26
 607 129 607 129 626 251 c 1,27,-1
 633 251 l 1,28,-1
 645 100 l 1,29,30
 614 49 614 49 550.5 18 c 128,-1,31
 487 -13 487 -13 394 -13 c 0,32,8
 226 -12 226 -12 130 70.5 c 128,-1,9
EndSplineSet
EndChar

StartChar: Ccaron
Encoding: 268 268 202
Width: 780
GlyphClass: 2
Flags: W
LayerCount: 2
Fore
SplineSet
435 764 m 1,0,-1
 423 764 l 1,1,-1
 276 917 l 1,2,-1
 283 925 l 1,3,-1
 430 860 l 1,4,-1
 566 925 l 1,5,-1
 573 917 l 1,6,-1
 435 764 l 1,0,-1
155 84 m 128,-1,8
 45 181 45 181 45 350 c 128,-1,9
 45 519 45 519 154 616.5 c 128,-1,10
 263 714 263 714 453 714 c 0,11,12
 598 714 598 714 702 660 c 1,13,-1
 704 488 l 1,14,-1
 696 488 l 1,15,16
 645 672 645 672 463 672 c 0,17,18
 345 672 345 672 276.5 586.5 c 128,-1,19
 208 501 208 501 208 353 c 128,-1,20
 208 205 208 205 273.5 118 c 128,-1,21
 339 31 339 31 451 28 c 1,22,23
 567 28 567 28 628 86 c 0,24,25
 690 146 690 146 714 292 c 1,26,-1
 722 292 l 1,27,-1
 732 120 l 1,28,29
 651 -14 651 -14 458 -13.5 c 128,-1,7
 265 -13 265 -13 155 84 c 128,-1,8
EndSplineSet
EndChar

StartChar: ccaron
Encoding: 269 269 203
Width: 682
GlyphClass: 2
Flags: W
LayerCount: 2
Fore
SplineSet
384 673 m 1,0,-1
 373 673 l 1,1,-1
 226 827 l 1,2,-1
 232 835 l 1,3,-1
 379 770 l 1,4,-1
 516 834 l 1,5,-1
 523 826 l 1,6,-1
 384 673 l 1,0,-1
130 70.5 m 128,-1,8
 34 153 34 153 34 300 c 128,-1,9
 34 447 34 447 129.5 530 c 128,-1,10
 225 613 225 613 394 613 c 0,11,12
 526 613 526 613 619 567 c 1,13,-1
 619 408 l 1,14,-1
 612 408 l 1,15,16
 587 497 587 497 535 535 c 128,-1,17
 483 573 483 573 404 573 c 0,18,19
 298 573 298 573 242 500.5 c 128,-1,20
 186 428 186 428 186 302.5 c 128,-1,21
 186 177 186 177 241 103 c 0,22,23
 298 27 298 27 400 27 c 128,-1,24
 502 27 502 27 554.5 78 c 128,-1,25
 607 129 607 129 626 251 c 1,26,-1
 633 251 l 1,27,-1
 645 100 l 1,28,29
 614 49 614 49 550.5 18 c 128,-1,30
 487 -13 487 -13 394 -13 c 0,31,7
 226 -12 226 -12 130 70.5 c 128,-1,8
EndSplineSet
EndChar

StartChar: Dcaron
Encoding: 270 270 204
Width: 828
GlyphClass: 2
Flags: W
LayerCount: 2
Fore
SplineSet
419 764 m 1,0,-1
 407 764 l 1,1,-1
 260 917 l 1,2,-1
 267 925 l 1,3,-1
 414 860 l 1,4,-1
 550 925 l 1,5,-1
 557 917 l 1,6,-1
 419 764 l 1,0,-1
685 606 m 128,-1,8
 788 512 788 512 788 350 c 128,-1,9
 788 188 788 188 685 94 c 128,-1,10
 582 0 582 0 405 0 c 2,11,-1
 42 0 l 1,12,-1
 42 10 l 1,13,-1
 55 10 l 2,14,15
 81 10 81 10 99.5 28.5 c 128,-1,16
 118 47 118 47 119 73 c 1,17,-1
 119 633 l 2,18,19
 119 657 119 657 99.5 673.5 c 128,-1,20
 80 690 80 690 55 690 c 2,21,-1
 42 690 l 1,22,-1
 42 700 l 1,23,-1
 405 700 l 2,24,7
 582 700 582 700 685 606 c 128,-1,8
392 43 m 2,25,26
 464 43 464 43 516.5 80 c 128,-1,27
 569 117 569 117 597 186.5 c 128,-1,28
 625 256 625 256 625 331 c 128,-1,29
 625 406 625 406 614.5 454.5 c 128,-1,30
 604 503 604 503 584 540.5 c 128,-1,31
 564 578 564 578 536 604 c 0,32,33
 479 658 479 658 392 658 c 2,34,-1
 269 658 l 1,35,-1
 269 43 l 1,36,-1
 392 43 l 2,25,26
EndSplineSet
EndChar

StartChar: dcaron
Encoding: 271 271 205
Width: 748
GlyphClass: 2
Flags: W
LayerCount: 2
Fore
SplineSet
377 665 m 1,0,-1
 365 665 l 1,1,-1
 218 818 l 1,2,-1
 225 826 l 1,3,-1
 372 761 l 1,4,-1
 508 826 l 1,5,-1
 515 818 l 1,6,-1
 377 665 l 1,0,-1
714 300 m 128,-1,8
 714 159 714 159 623 79.5 c 128,-1,9
 532 0 532 0 371 0 c 2,10,-1
 33 0 l 1,11,-1
 33 10 l 1,12,-1
 46 10 l 2,13,14
 69 10 69 10 85 26 c 128,-1,15
 101 42 101 42 102 64 c 1,16,-1
 102 538 l 1,17,18
 100 560 100 560 84 575 c 128,-1,19
 68 590 68 590 45 590 c 2,20,-1
 33 590 l 1,21,-1
 33 600 l 1,22,-1
 371 600 l 2,23,24
 532 600 532 600 623 520.5 c 128,-1,7
 714 441 714 441 714 300 c 128,-1,8
359 40 m 2,25,26
 453 40 453 40 507.5 109 c 128,-1,27
 562 178 562 178 562 300 c 128,-1,28
 562 422 562 422 507.5 491.5 c 128,-1,29
 453 561 453 561 359 561 c 2,30,-1
 246 561 l 1,31,-1
 246 40 l 1,32,-1
 359 40 l 2,25,26
EndSplineSet
EndChar

StartChar: Dcroat
Encoding: 272 272 206
Width: 828
GlyphClass: 2
Flags: W
LayerCount: 2
Fore
SplineSet
278 795 m 1,0,-1
 278 861 l 1,1,-1
 553 861 l 1,2,-1
 553 795 l 1,3,-1
 278 795 l 1,0,-1
685 606 m 128,-1,5
 788 512 788 512 788 350 c 128,-1,6
 788 188 788 188 685 94 c 128,-1,7
 582 0 582 0 405 0 c 2,8,-1
 42 0 l 1,9,-1
 42 10 l 1,10,-1
 55 10 l 2,11,12
 81 10 81 10 99.5 28.5 c 128,-1,13
 118 47 118 47 119 73 c 1,14,-1
 119 633 l 2,15,16
 119 657 119 657 99.5 673.5 c 128,-1,17
 80 690 80 690 55 690 c 2,18,-1
 42 690 l 1,19,-1
 42 700 l 1,20,-1
 405 700 l 2,21,4
 582 700 582 700 685 606 c 128,-1,5
392 43 m 2,22,23
 464 43 464 43 516.5 80 c 128,-1,24
 569 117 569 117 597 186.5 c 128,-1,25
 625 256 625 256 625 350 c 0,26,27
 625 492 625 492 562.5 575 c 128,-1,28
 500 658 500 658 392 658 c 2,29,-1
 269 658 l 1,30,-1
 269 43 l 1,31,-1
 392 43 l 2,22,23
EndSplineSet
EndChar

StartChar: dcroat
Encoding: 273 273 207
Width: 748
GlyphClass: 2
Flags: W
LayerCount: 2
Fore
SplineSet
236 696 m 1,0,-1
 236 762 l 1,1,-1
 511 762 l 1,2,-1
 511 696 l 1,3,-1
 236 696 l 1,0,-1
714 300 m 128,-1,5
 714 159 714 159 623 79.5 c 128,-1,6
 532 0 532 0 371 0 c 2,7,-1
 33 0 l 1,8,-1
 33 10 l 1,9,-1
 46 10 l 2,10,11
 69 10 69 10 85 26 c 128,-1,12
 101 42 101 42 102 64 c 1,13,-1
 102 538 l 1,14,15
 100 560 100 560 84 575 c 128,-1,16
 68 590 68 590 45 590 c 2,17,-1
 33 590 l 1,18,-1
 33 600 l 1,19,-1
 371 600 l 2,20,21
 532 600 532 600 623 520.5 c 128,-1,4
 714 441 714 441 714 300 c 128,-1,5
359 40 m 2,22,23
 453 40 453 40 507.5 109 c 128,-1,24
 562 178 562 178 562 300 c 128,-1,25
 562 422 562 422 507.5 491.5 c 128,-1,26
 453 561 453 561 359 561 c 2,27,-1
 246 561 l 1,28,-1
 246 40 l 1,29,-1
 359 40 l 2,22,23
EndSplineSet
EndChar

StartChar: Emacron
Encoding: 274 274 208
Width: 631
GlyphClass: 2
Flags: W
LayerCount: 2
Fore
SplineSet
189 795 m 1,0,-1
 189 861 l 1,1,-1
 463 861 l 1,2,-1
 463 795 l 1,3,-1
 189 795 l 1,0,-1
55 10 m 2,4,5
 81 10 81 10 99.5 28.5 c 128,-1,6
 118 47 118 47 119 73 c 1,7,-1
 119 630 l 1,8,9
 117 656 117 656 104 668 c 0,10,11
 80 690 80 690 55 690 c 2,12,-1
 42 690 l 1,13,-1
 42 700 l 1,14,-1
 425 700 l 2,15,16
 456 700 456 700 493 706 c 128,-1,17
 530 712 530 712 545 718 c 1,18,-1
 545 543 l 1,19,-1
 535 544 l 1,20,-1
 535 555 l 2,21,22
 535 617 535 617 489 643 c 0,23,24
 467 656 467 656 437 657 c 1,25,-1
 269 657 l 1,26,-1
 269 366 l 1,27,-1
 401 366 l 1,28,29
 438 367 438 367 462 391.5 c 128,-1,30
 486 416 486 416 486 452 c 2,31,-1
 486 461 l 1,32,-1
 496 461 l 1,33,-1
 496 230 l 1,34,-1
 486 230 l 1,35,-1
 486 238 l 2,36,37
 486 275 486 275 462.5 299 c 128,-1,38
 439 323 439 323 403 324 c 1,39,-1
 269 324 l 1,40,-1
 269 43 l 1,41,-1
 400 43 l 2,42,43
 473 43 473 43 522.5 85 c 128,-1,44
 572 127 572 127 596 204 c 1,45,-1
 606 204 l 1,46,-1
 560 0 l 1,47,-1
 42 0 l 1,48,-1
 42 10 l 1,49,-1
 55 10 l 2,4,5
EndSplineSet
EndChar

StartChar: emacron
Encoding: 275 275 209
Width: 563
GlyphClass: 2
Flags: W
LayerCount: 2
Fore
SplineSet
157 696 m 1,0,-1
 157 761 l 1,1,-1
 431 761 l 1,2,-1
 431 696 l 1,3,-1
 157 696 l 1,0,-1
505 0 m 1,4,-1
 34 0 l 1,5,-1
 34 10 l 1,6,-1
 46 10 l 2,7,8
 69 10 69 10 84.5 25 c 128,-1,9
 100 40 100 40 101 62 c 1,10,-1
 101 538 l 1,11,12
 100 560 100 560 84.5 575 c 128,-1,13
 69 590 69 590 46 590 c 2,14,-1
 34 590 l 1,15,-1
 34 600 l 1,16,-1
 386 600 l 2,17,18
 413 600 413 600 445 605 c 128,-1,19
 477 610 477 610 490 615 c 1,20,-1
 490 456 l 1,21,-1
 480 456 l 1,22,-1
 480 465 l 2,23,24
 480 509 480 509 456 534 c 128,-1,25
 432 559 432 559 389 560 c 1,26,-1
 245 560 l 1,27,-1
 245 317 l 1,28,-1
 359 317 l 1,29,30
 393 318 393 318 414 340 c 128,-1,31
 435 362 435 362 435 396 c 2,32,-1
 435 403 l 1,33,-1
 445 403 l 1,34,-1
 445 191 l 1,35,-1
 435 191 l 1,36,-1
 435 198 l 2,37,38
 435 245 435 245 400 266 c 0,39,40
 382 277 382 277 360 277 c 2,41,-1
 245 277 l 1,42,-1
 245 40 l 1,43,-1
 365 40 l 1,44,45
 427 41 427 41 470.5 78.5 c 128,-1,46
 514 116 514 116 534 184 c 1,47,-1
 543 184 l 1,48,-1
 505 0 l 1,4,-1
EndSplineSet
EndChar

StartChar: Edotaccent
Encoding: 278 278 210
Width: 631
GlyphClass: 2
Flags: W
LayerCount: 2
Fore
SplineSet
322.5 764 m 128,-1,1
 297 764 297 764 279 782 c 128,-1,2
 261 800 261 800 261 825.5 c 128,-1,3
 261 851 261 851 279 869.5 c 128,-1,4
 297 888 297 888 322.5 888 c 128,-1,5
 348 888 348 888 366 869.5 c 128,-1,6
 384 851 384 851 384 825.5 c 128,-1,7
 384 800 384 800 366 782 c 128,-1,0
 348 764 348 764 322.5 764 c 128,-1,1
55 10 m 2,8,9
 81 10 81 10 99.5 28.5 c 128,-1,10
 118 47 118 47 119 73 c 1,11,-1
 119 630 l 1,12,13
 117 655 117 655 104 668 c 0,14,15
 80 690 80 690 55 690 c 2,16,-1
 42 690 l 1,17,-1
 42 700 l 1,18,-1
 425 700 l 2,19,20
 474 700 474 700 506 707.5 c 128,-1,21
 538 715 538 715 545 718 c 1,22,-1
 545 543 l 1,23,-1
 535 544 l 1,24,-1
 535 555 l 2,25,26
 535 600 535 600 508.5 627.5 c 128,-1,27
 482 655 482 655 437 657 c 1,28,-1
 269 657 l 1,29,-1
 269 366 l 1,30,-1
 401 366 l 1,31,32
 438 367 438 367 462 391.5 c 128,-1,33
 486 416 486 416 486 452 c 2,34,-1
 486 461 l 1,35,-1
 496 461 l 1,36,-1
 496 230 l 1,37,-1
 486 230 l 1,38,-1
 486 238 l 2,39,40
 486 275 486 275 462.5 299 c 128,-1,41
 439 323 439 323 403 324 c 1,42,-1
 269 324 l 1,43,-1
 269 43 l 1,44,-1
 400 43 l 2,45,46
 473 43 473 43 522.5 85 c 128,-1,47
 572 127 572 127 596 204 c 1,48,-1
 606 204 l 1,49,-1
 560 0 l 1,50,-1
 42 0 l 1,51,-1
 42 10 l 1,52,-1
 55 10 l 2,8,9
EndSplineSet
EndChar

